<?xml version="1.0" encoding="utf-8"?>
<!-- Generator: Adobe Illustrator 21.1.0, SVG Export Plug-In . SVG Version: 6.00 Build 0)  -->
<svg version="1.1" id="Layer_1" xmlns="http://www.w3.org/2000/svg" xmlns:xlink="http://www.w3.org/1999/xlink" x="0px" y="0px"
	 viewBox="0 0 300 300" style="enable-background:new 0 0 300 300;" xml:space="preserve">
<style type="text/css">
	.st0{fill:#0076BE;}
	.st1{fill:#0096DA;}
	.st2{fill:#656668;}
	.st3{fill:#77787B;}
	.st4{fill:#0073AB;}
	.st5{opacity:0.22;fill:#00B8F1;}
	.st6{opacity:0.29;fill:#BABCBE;}
	.st7{opacity:0.29;}
	.st8{fill:#BABCBE;}
	.st9{fill:#6D6E71;}
	.st10{fill:#FFFFFF;}
	.st11{fill:none;stroke:#A4D067;stroke-width:8;stroke-miterlimit:10;}
</style>
<g>
	<path class="st0" d="M260,277.2H28.3L201.1,11.5L260,277.2z M159.4,205.5l51.1,35.8c-3.9-16.5-14.3-70.1-17.6-89.1
		c-3.3-18.9-6.6-36.8-10.3-53.5c-10.9,16.6-22.2,34.5-33.7,53.5s-43.9,69-54.7,85.4L159.4,205.5z"/>
</g>
<g>
	<path class="st1" d="M687.3,231.8H537.7L649.3,42.7L687.3,231.8z M622.3,180.8l33.7,28.9c-2.5-11.7-9.9-53.3-12.1-66.8
		s-4.3-26.2-6.7-38c-7.1,11.8-14.4,24.6-21.8,38s-28.4,49.1-35.3,60.8L622.3,180.8z"/>
</g>
<rect x="-1041.8" y="-293.5" class="st2" width="625.5" height="158.5"/>
<path id="XMLID_9_" class="st3" d="M-895.9-116l-6.1,31.5l-1.8,9.1l-1.7,8.7L-918-84.9l-21.8-31.6l-6,30.9l-8.3,42.6h9.1l8.2-42.3
	l0.3-1.5l1.1-5.6l4.9,7.2l29.4,43.3l8.2-42.3l6.2-31.7H-895.9z"/>
<path id="XMLID_11_" class="st3" d="M-880.6-115.8l-1.9,9.6h18l-0.6,3l-3.8,19.5l-7.9,40.4h9l7.8-40.1l3.9-19.8l0.6-3h18l1.9-9.6
	H-880.6z"/>
<path id="XMLID_13_" class="st3" d="M-808.2-82.1l-6.9-34.4L-835-82.8l-23.3,39.5h9.7l7.3-12h28.6l2.7,12h9.7L-808.2-82.1z
	 M-836.5-63c2.7-4.5,5.5-9.5,8.4-14.7c0.9-1.6,1.8-3.2,2.7-4.8c2-3.5,3.9-6.8,5.8-9.9c0.6,3.2,1.3,6.6,1.8,10.1
	c0.2,1.5,0.5,3,0.7,4.6c0.8,5.2,1.7,10.2,2.7,14.7H-836.5z"/>
<path id="XMLID_16_" class="st3" d="M-739.8-101.5c-0.5-2.3-1.6-4.7-3.4-7.2c-1.8-2.3-4-4-6.6-5.2c-2.7-1.3-5.8-1.9-9.2-1.9h-21.1
	l-6.6,34.3l-7.4,38.3h9.1l4.9-25.4h10l10.4,25.4h11.3l-9.7-23.8l-1.2-3.1l3.4-1.4c2-0.7,3.5-1.5,4.6-2.3c1.2-0.8,2.6-2.1,4.1-3.9
	c0.8-0.9,1.5-1.8,2.1-2.7c0.9-1.2,1.7-2.4,2.3-3.6c1.1-2.1,1.9-4.4,2.4-6.9l0.4-2.1C-739.4-96.3-739.3-99.2-739.8-101.5z
	 M-759.8-79.3c-1.5,0.6-3.2,1-5.1,1v-0.1h-7.1l-3.4,0h-2.8l0.6-2.8l0-0.2l4.2-21.7l0.6-3.1h11.1c2.2,0,4.3,0.3,6,1
	c1.9,0.7,3.3,1.7,4.3,3v0c1.1,1.6,1.7,3,2,4.4c0.2,1.6,0.2,3.4-0.2,5.3c-0.4,2.1-1,3.9-1.9,5.4c-0.9,1.7-2.2,3.2-3.8,4.7
	c-0.7,0.6-1.4,1.2-2,1.6C-758.3-80.2-759.1-79.7-759.8-79.3z"/>
<path id="XMLID_38_" class="st4" d="M-468.6-37.6c-2.2-0.7-5.1-1.6-8.5-2.7c-2.4-0.8-5.1-1.6-8-2.6c-5.5-1.7-11.9-3.7-19.1-5.7h0
	c-2.2-0.6-4.4-1.2-6.8-1.9c-1.6-0.4-3.3-0.9-5-1.3c-8.8-2.3-18.5-4.5-29.1-6.4c-4.5-0.8-9.2-1.6-14.1-2.3
	c-8.6-1.2-17.6-2.3-27.1-2.9c-4.4-0.3-8.9-0.6-13.4-0.8c-3-0.1-6-0.2-9-0.3c-3-0.1-6-0.1-9-0.1c-3.1,0-6.1,0-9.2,0.1
	c-1.9,0-3.8,0.1-5.7,0.1c-9.5,0.3-19.2,0.8-29,1.6c-3.1,0.2-6.2,0.5-9.4,0.8c-14.6,1.3-29.5,3.2-44.3,5.3c-3.1,0.5-6.2,0.9-9.3,1.4
	c-2.7,0.4-5.4,0.8-8.1,1.3c-16.9,2.8-33.8,6.1-50.2,9.3c-16.2,3.2-32.4,5.1-48.2,6.1c-31.5,1.9-60.9-0.5-85.8-4.3
	c-10.9-1.7-20.9-3.7-29.9-5.8c-5.3-4.4-10.1-11.8-12.7-23.8l-8.8-43.9l-40.8,69.1h0.5l-0.1,0.1l-0.3,0.3c0,0,30.3,7.8,53,11.9
	c10.9,2.3,23.3,4.6,37.1,6.3c25.8,3.2,56.3,4.7,88.6,1.7c16.2-1.5,32.8-4,49.4-7.8c16.4-3.8,52.8-11.4,54.5-11.8
	c3.1-0.6,40.6-7,56-8.9c3.5-0.4,6.9-0.8,10.3-1.2c9.3-1,18.6-1.8,27.6-2.3c0.9-0.1,1.9-0.1,2.8-0.2c3.4-0.2,6.8-0.3,10.1-0.4
	c3.3-0.1,6.6-0.2,9.9-0.2c3.1,0,6.1-0.1,9.1,0c4.7,0,9.4,0.2,14,0.3c8.9,0.3,17.4,1,25.6,1.9c5.3,0.6,10.4,1.3,15.4,2
	c10.9,1.6,20.9,3.6,29.9,5.7c1.4,0.3,2.8,0.7,4.2,1c2.9,0.7,5.7,1.4,8.4,2.1c6.6,1.7,12.5,3.3,17.7,4.7c2.7,0.8,5.2,1.5,7.4,2.1
	c3.7,1.1,6.8,2,9.2,2.6c3.1,0.9,5.1,1.5,5.7,1.7C-463.6-36-465.5-36.6-468.6-37.6z M-978.1-66L-978.1-66l-17.4,11.5
	c2.5-4.3,12.1-20.5,14.9-25.4c2.7-4.8,5.3-9.4,7.8-13.7c0.1-0.1,0.1-0.2,0.2-0.2c0.9,4.3,1.6,9,2.4,13.9c0.8,4.9,4,22.5,4.9,26.8
	L-978.1-66z"/>
<path id="XMLID_34_" class="st5" d="M-980.6-79.9c-2.7,4.9-12.3,21.1-14.9,25.4l17.3-11.5l-5,25.2l-25.5-6.5l-0.4-0.1l40.8-69.1
	l-4.5,23C-975.3-89.3-978-84.7-980.6-79.9z"/>
<path id="XMLID_30_" class="st3" d="M-679.2-99.8c-0.6-3.1-1.9-5.9-3.8-8.4c-1.9-2.6-4.2-4.5-6.8-5.8c-2.6-1.3-5.6-1.9-9-1.9H-723
	l-5,26.1l-1.3,6.5l-4.5,22.8l-2.8,14.5l-0.2,1.1l-1.2,6.2h9.6l0.9-4.6l0.9-4.6l2.5-12.7l0.6-3.2h14.7c3.3,0,6.5-0.6,9.7-1.9
	c3.1-1.3,6.2-3.2,9.1-5.8c2.9-2.6,5.2-5.4,7-8.4c0.4-0.8,0.8-1.5,1.2-2.4c1.1-2.4,1.9-4.9,2.5-7.7
	C-678.7-93.4-678.6-96.8-679.2-99.8z M-689-89.8c-0.5,2.3-1.2,4.3-2.3,6.1c-0.3,0.5-0.6,0.9-0.9,1.4c-1,1.4-2.1,2.6-3.4,3.8
	c-1.8,1.6-3.6,2.8-5.5,3.5c-1.9,0.8-3.8,1.1-5.9,1.1l-11.7,0h-3l0.7-3.2l1.1-5.9l1.3-6.8l2.5-12.6l0.6-3.2h14.7
	c2.1,0,3.9,0.4,5.5,1.2c1.5,0.8,3,2,4,3.5c1.1,1.7,1.9,3.4,2.2,5.1C-688.6-94-688.6-92-689-89.8z"/>
<path id="XMLID_20_" class="st3" d="M-610.7-116l-5.9,30.6l-1,5l-2.4,12c-0.2,1.1-2,7-2.7,8.6c-0.5,1.1-1,2.2-1.6,3.2
	c-2.1,3.6-4.9,6.9-8.2,9.9v0c-3.5,3.1-7.1,5.3-10.6,6.7c-3.6,1.5-7.3,2.2-11.3,2.2c-4,0-7.5-0.7-10.6-2.2c-3.2-1.5-5.8-3.8-7.9-6.8
	c-2-2.6-3.4-5.6-4.1-8.7c-0.1-0.4-0.2-0.8-0.3-1.2c-0.4-1.8-0.5-3.8-0.4-5.8c0-1.9,0.3-3.9,0.7-6l2.6-13.5l0.7-3.5l5.9-30.6h9.7
	l-5.9,30.6l-0.7,3.7l-2.2,11.4l-0.3,1.8c-0.3,1.8-0.5,3.5-0.4,5.2c0,0.8,0.1,1.7,0.3,2.5c0.3,1.4,0.7,2.7,1.4,4
	c0.4,0.8,0.9,1.7,1.5,2.5c1.4,2,3.1,3.4,5.2,4.4c2,1,4.3,1.5,6.8,1.5c2.5,0,5-0.5,7.5-1.5c2.5-1,4.7-2.5,6.9-4.4
	c1.7-1.5,3.3-3.2,4.6-5.1c1.6-2.3,3.5-7.9,3.8-9.1l0.4-1.8l2.1-10.4l0.9-4.7l5.9-30.6H-610.7z"/>
<polygon id="XMLID_21_" class="st3" points="-573.4,-48.8 -575.4,-38.6 -616.3,-38.6 -612.5,-58.5 -612.2,-60.1 -608.3,-80.2 
	-601.3,-116 -591.7,-116 -598.7,-79.9 -602.5,-60.1 -604.1,-52.1 -604.7,-48.8 "/>
<path id="XMLID_26_" class="st3" d="M-512-49.6l-0.4-2l-5.3-26.3l-7.8-38.9L-548-78.6l-10.5,17.8l-1.9,3.1l-11.3,19.1h10.3l7.8-12.8
	h30.5l2.9,12.8h10.3L-512-49.6z M-548.3-59.7c2.9-4.8,5.8-10.1,8.9-15.6c0.6-1,1.1-2,1.7-3c2.5-4.5,4.9-8.7,7.3-12.7
	c0.8,4.1,1.6,8.4,2.3,13c0.1,0.9,0.3,1.8,0.4,2.8c0.9,5.6,1.8,10.8,2.9,15.6H-548.3z"/>
<path id="XMLID_29_" class="st3" d="M-446.5-116l-5.9,30.6l-1.8,9.2l-1.2,5.9l-0.4,1.8c-0.5,2.7-1.4,5.2-2.9,7.7
	c-1.5,2.6-3.4,4.7-5.5,6.5c-2.2,1.9-4.4,3.4-6.9,4.4c-2.5,1-5,1.5-7.4,1.5c-2.6,0-4.9-0.5-6.9-1.5c-2.1-1-3.8-2.4-5.2-4.4
	c-1.4-2-2.5-4.2-2.9-6.5c-0.5-2.5-0.4-5,0.1-7.7l0.3-1.8l1.4-6.9l1.6-8.2l5.9-30.6h-9.7l-5.9,30.6l-1.5,8l-1.7,9
	c-0.8,4.3-0.9,8.2-0.3,11.7c0.6,3.1,1.7,5.9,3.4,8.5h0c0.3,0.5,0.6,0.9,0.9,1.4c0.1,0.2,0.2,0.3,0.3,0.5c2.1,2.8,4.5,4.9,7.6,6.4
	c3,1.4,6.6,2.2,10.6,2.2c3,0,5.9-0.4,8.6-1.3c0.3-0.1,0.5-0.2,0.8-0.3c0.6-0.2,1.2-0.4,1.8-0.7c3.5-1.4,7-3.6,10.6-6.7v0
	c3.3-3,6.1-6.3,8.2-9.9c2-3.6,3.5-7.5,4.3-11.7l1.5-7.5l1.9-9.5l5.9-30.6H-446.5z"/>
<polygon id="XMLID_12_" class="st6" points="-918,-84.9 -930.6,-85.3 -935.5,-92.5 -936.6,-86.9 -936.8,-85.4 -945.8,-85.7 
	-939.8,-116.6 "/>
<polygon id="XMLID_63_" class="st6" points="-895.9,-116 -886.8,-116 -893,-84.3 -902,-84.5 "/>
<polygon id="XMLID_64_" class="st6" points="-835.6,-115.8 -837.5,-106.2 -855.5,-106.2 -856,-103.2 -859.9,-83.4 -868.9,-83.7 
	-865.1,-103.2 -864.5,-106.2 -882.5,-106.2 -880.6,-115.8 "/>
<path id="XMLID_32_" class="st6" d="M-808.2-82.1l-9.7-0.2c-0.6-3.5-1.2-6.9-1.8-10.1c-1.9,3.1-3.8,6.5-5.8,9.9l-9.5-0.3l19.9-33.7
	L-808.2-82.1z"/>
<path id="XMLID_10_" class="st6" d="M-740-93l-0.4,2.1c-0.5,2.5-1.3,4.8-2.4,6.9c-0.6,1.2-1.4,2.3-2.3,3.6l-12.4-0.3
	c0.7-0.5,1.3-1,2-1.6c1.7-1.5,2.9-3,3.8-4.7c0.9-1.5,1.5-3.3,1.9-5.4c0.4-1.9,0.4-3.7,0.2-5.3c-0.3-1.4-0.9-2.8-2-4.4v0
	c-1-1.3-2.4-2.3-4.3-3c-1.8-0.7-3.8-1-6-1h-11.1l-0.6,3.1l-4.2,21.7l0,0.2l-9-0.2l6.6-34.3h21.1c3.4,0,6.4,0.6,9.2,1.9
	c2.6,1.2,4.8,2.9,6.6,5.2c1.8,2.5,2.9,4.9,3.4,7.2C-739.3-99.2-739.4-96.3-740-93z"/>
<path id="XMLID_15_" class="st6" d="M-679.4-89.8c-0.5,2.8-1.4,5.3-2.5,7.7l-10.3-0.3c0.3-0.4,0.6-0.9,0.9-1.3
	c1.1-1.8,1.8-3.8,2.3-6.1c0.4-2.2,0.5-4.2,0.1-6c-0.3-1.7-1-3.4-2.2-5.1c-1.1-1.5-2.5-2.8-4-3.5c-1.6-0.8-3.4-1.2-5.5-1.2h-14.7
	l-0.6,3.2l-2.5,12.7l-1.3,6.8l-9.6-0.2l1.3-6.5l5-26.1h24.3c3.4,0,6.4,0.6,9,1.9c2.6,1.2,4.8,3.2,6.8,5.8c1.9,2.6,3.2,5.4,3.8,8.4
	C-678.6-96.8-678.7-93.4-679.4-89.8z"/>
<polygon id="XMLID_68_" class="st6" points="-667.8,-116 -658,-116 -664,-85.4 -664.7,-81.6 -674.4,-81.9 -673.7,-85.4 "/>
<polygon id="XMLID_69_" class="st6" points="-620.5,-116 -610.7,-116 -616.7,-85.4 -617.6,-80.4 -627.3,-80.7 -626.4,-85.4 "/>
<polygon id="XMLID_70_" class="st6" points="-601.3,-116 -591.7,-116 -598.7,-79.9 -608.3,-80.2 "/>
<path id="XMLID_14_" class="st6" d="M-517.7-77.8l-10.5-0.3c-0.7-4.5-1.5-8.9-2.3-13c-2.4,4-4.8,8.2-7.3,12.7l-10.2-0.3l22.5-38.1
	L-517.7-77.8z"/>
<polygon id="XMLID_72_" class="st6" points="-493.8,-116 -484.1,-116 -490,-85.4 -491.6,-77.2 -501.3,-77.4 -499.8,-85.4 "/>
<polygon id="XMLID_73_" class="st6" points="-436.8,-116 -442.7,-85.4 -444.6,-75.9 -454.3,-76.2 -452.4,-85.4 -446.5,-116 "/>
<text id="XMLID_1_" transform="matrix(1.101 0 0 1 -626.315 5.1387)" class="st3" style="font-family:'LemonMilkitalic'; font-size:41.5686px;">cargo</text>
<text id="XMLID_2_" transform="matrix(1.13 0 0 1 -1013.3386 5.1387)" class="st9" style="font-family:'LemonMilklightitalic'; font-size:21.7673px;">www.antarpulaucargo.com</text>
<g id="XMLID_150_">
	<path class="st3" d="M194.5-284.6l-9,46.5l-2.6,13.5l-2.5,12.8l-18.6-26.9l-32.3-46.8l-8.9,45.7l-12.3,63h13.5l12.1-62.6l0.4-2.2
		l1.6-8.2l7.2,10.6l43.4,64l12.2-62.6l9.1-46.9H194.5z"/>
</g>
<g id="XMLID_148_">
	<path class="st3" d="M217-284.4l-2.8,14.2h26.7l-0.9,4.5l-5.6,28.9l-11.6,59.7h13.3l11.6-59.4l5.7-29.2l0.9-4.5h26.6l2.7-14.2H217z
		"/>
</g>
<g id="XMLID_144_">
	<path class="st3" d="M324.2-234.5L314-285.4l-29.4,49.9L250-177.1h14.3l10.8-17.7h42.4l4,17.7h14.3L324.2-234.5z M282.3-206.3
		c4-6.7,8.1-14,12.4-21.7c1.3-2.4,2.7-4.8,4-7.1c2.9-5.1,5.7-10,8.5-14.7c0.9,4.7,1.9,9.8,2.7,15c0.4,2.2,0.7,4.5,1.1,6.8
		c1.2,7.7,2.5,15,4,21.7H282.3z"/>
</g>
<g id="XMLID_140_">
	<path class="st3" d="M425.3-263.3c-0.7-3.4-2.4-6.9-5.1-10.6c-2.7-3.4-5.9-5.9-9.7-7.7c-4-1.9-8.6-2.8-13.6-2.8h-31.2l-9.8,50.7
		l-11,56.6h13.4l7.3-37.6h14.8l15.4,37.6h16.7l-14.3-35.1l-1.8-4.6l5.1-2c2.9-1.1,5.1-2.2,6.9-3.5c1.8-1.2,3.8-3.1,6.1-5.7
		c1.1-1.4,2.2-2.7,3-4c1.3-1.8,2.5-3.6,3.4-5.3c1.7-3.1,2.8-6.6,3.5-10.2l0.6-3C426-255.5,426-259.7,425.3-263.3z M395.7-230.4
		c-2.2,0.9-4.8,1.4-7.5,1.4v-0.1h-10.5l-5.1-0.1h-4.2l0.8-4.2l0.1-0.3l6.3-32.1l0.9-4.6h16.4c3.3,0,6.3,0.5,8.9,1.5
		c2.8,1.1,4.9,2.5,6.4,4.5v0.1c1.6,2.3,2.5,4.5,3,6.5c0.4,2.4,0.3,5-0.3,7.8c-0.6,3.1-1.5,5.8-2.8,8c-1.3,2.5-3.2,4.8-5.6,6.9
		c-1,0.9-2,1.7-3,2.4C398-231.7,396.8-230.9,395.7-230.4z"/>
</g>
<g id="XMLID_137_">
	<path class="st0" d="M826.4-168.7c-3.3-1.1-7.6-2.4-12.6-4c-3.5-1.1-7.5-2.4-11.8-3.8c-8.1-2.5-17.5-5.4-28.2-8.4h0
		c-3.2-0.9-6.5-1.8-10-2.8c-2.4-0.7-4.9-1.3-7.4-2c-13-3.3-27.4-6.7-43.1-9.5c-6.7-1.2-13.7-2.4-20.8-3.4c-12.7-1.8-26.1-3.4-40-4.3
		c-6.5-0.5-13.1-0.8-19.8-1.1c-4.4-0.2-8.8-0.3-13.3-0.4c-4.4-0.1-8.8-0.2-13.3-0.2c-4.5,0-9.1,0-13.6,0.1c-2.8,0.1-5.6,0.1-8.5,0.2
		c-14.1,0.4-28.4,1.2-42.9,2.3c-4.6,0.4-9.2,0.8-13.9,1.2c-21.7,2-43.6,4.7-65.6,7.9c-4.6,0.7-9.2,1.4-13.8,2.1
		c-4,0.6-7.9,1.2-11.9,1.9c-25,4.1-50,9-74.2,13.7c-24,4.7-48,7.6-71.2,9c-46.5,2.8-90.1-0.7-126.9-6.4c-16.1-2.5-30.9-5.5-44.2-8.6
		c-7.9-6.5-15-17.4-18.8-35.2l-13.1-64.9L27.1-183.1l0.2,0.6c0,0,44.8,11.5,78.4,17.6c16.1,3.4,34.5,6.8,54.9,9.3
		c38.2,4.7,83.2,6.9,131.1,2.5c23.9-2.2,48.5-5.9,73.1-11.5c24.3-5.6,78.1-16.9,80.5-17.4c4.6-0.9,60.1-10.4,82.8-13.2
		c5.1-0.7,10.2-1.2,15.2-1.8c13.8-1.5,27.5-2.6,40.9-3.5c1.4-0.1,2.8-0.2,4.2-0.2c5-0.3,10-0.5,15-0.6c4.9-0.2,9.8-0.3,14.6-0.3
		c4.5-0.1,9-0.1,13.4,0c7,0.1,13.9,0.2,20.7,0.5c13.1,0.5,25.7,1.5,37.8,2.8c7.9,0.9,15.4,1.9,22.7,3c16.1,2.4,30.9,5.4,44.3,8.4
		c2.1,0.5,4.2,1,6.3,1.5c4.3,1,8.4,2,12.4,3c9.8,2.5,18.6,4.8,26.1,6.9c4,1.1,7.6,2.2,11,3.1c5.5,1.6,10.1,2.9,13.7,3.9
		c4.6,1.3,7.5,2.2,8.4,2.4C833.8-166.3,831-167.3,826.4-168.7z M72.8-210.7l-0.1,0.1l-25.5,17c3.7-6.3,18-30.3,22-37.5
		c3.9-7.1,7.8-13.9,11.6-20.2c0.1-0.1,0.1-0.2,0.2-0.4c1.3,6.4,2.4,13.3,3.6,20.6c1.2,7.3,5.9,33.3,7.3,39.6L72.8-210.7z"/>
</g>
<g id="XMLID_134_">
	<path class="st3" d="M515-260.8c-0.9-4.5-2.8-8.7-5.6-12.5c-2.8-3.8-6.2-6.7-10-8.5c-3.8-1.9-8.2-2.9-13.2-2.9h-36l-7.5,38.6
		l-1.9,9.6l-6.6,33.8l-4.2,21.5l-0.3,1.7l-1.8,9.2h14.3l1.3-6.8l1.3-6.8l3.7-18.8l0.9-4.8h21.8c4.9,0,9.7-0.9,14.3-2.8
		c4.6-1.9,9.2-4.8,13.5-8.5c4.2-3.8,7.7-7.9,10.3-12.4c0.7-1.1,1.3-2.3,1.8-3.5c1.6-3.6,2.9-7.3,3.7-11.4
		C515.7-251.2,515.8-256.2,515-260.8z M500.4-245.9c-0.7,3.4-1.8,6.4-3.4,9c-0.4,0.7-0.8,1.3-1.3,2c-1.4,2-3.1,3.9-5,5.6
		c-2.7,2.4-5.4,4.1-8.1,5.1c-2.8,1.2-5.6,1.7-8.7,1.7l-17.3-0.1h-4.5l1-4.8l1.7-8.7l1.9-10l3.6-18.7l0.9-4.8h21.8
		c3.1,0,5.8,0.6,8.1,1.8c2.3,1.2,4.4,2.9,6,5.2c1.7,2.6,2.8,5.1,3.2,7.6C501.1-252.1,501-249.2,500.4-245.9z"/>
</g>
<g id="XMLID_133_">
	<path class="st3" d="M616.2-284.6l-8.7,45.2l-1.4,7.3l-3.5,17.8c-0.3,1.6-2.9,10.3-4,12.6c-0.7,1.6-1.5,3.2-2.4,4.7
		c-3.2,5.3-7.2,10.2-12.1,14.6v0.1c-5.2,4.5-10.5,7.9-15.6,9.9c-5.3,2.2-10.9,3.3-16.7,3.3c-5.9,0-11.2-1.1-15.6-3.2
		c-4.7-2.2-8.5-5.6-11.7-10.1c-2.9-3.9-5-8.2-6.1-12.9c-0.1-0.6-0.3-1.2-0.4-1.8c-0.5-2.7-0.7-5.6-0.6-8.6c0.1-2.8,0.4-5.7,1-8.8
		l3.9-20l1-5.1l8.8-45.2h14.4l-8.8,45.2l-1.1,5.5l-3.3,16.9l-0.5,2.6c-0.5,2.6-0.7,5.2-0.6,7.6c0.1,1.3,0.2,2.5,0.4,3.8
		c0.4,2.1,1.1,4,2,5.9c0.6,1.2,1.4,2.5,2.2,3.7c2.1,3,4.6,5.1,7.7,6.6c2.9,1.4,6.3,2.2,10.1,2.2c3.6,0,7.3-0.8,11-2.2
		c3.6-1.5,7-3.7,10.2-6.6c2.6-2.2,4.9-4.7,6.8-7.6c2.4-3.3,5.2-11.7,5.6-13.4l0.5-2.6l3-15.4l1.4-7l8.8-45.2H616.2z"/>
</g>
<g id="XMLID_132_">
	<polygon class="st3" points="671.4,-185.3 668.5,-170.2 607.9,-170.2 613.7,-199.6 614.1,-202 619.9,-231.7 630.2,-284.6 
		644.4,-284.6 634.1,-231.3 628.4,-202 626.1,-190.1 625.1,-185.3 	"/>
</g>
<g id="XMLID_128_">
	<path class="st3" d="M762.3-186.4l-0.6-2.9l-7.8-38.9l-11.6-57.5L709-229.4l-15.5,26.3l-2.7,4.6l-16.7,28.3h15.2l11.5-18.9H746
		l4.3,18.9h15.2L762.3-186.4z M708.5-201.4c4.2-7.1,8.6-14.9,13.1-23.1c0.8-1.5,1.7-3,2.5-4.5c3.7-6.6,7.3-12.9,10.8-18.8
		c1.2,6,2.3,12.4,3.4,19.2c0.2,1.3,0.4,2.7,0.7,4.1c1.3,8.2,2.7,16,4.2,23.1H708.5z"/>
</g>
<g id="XMLID_126_">
	<path class="st3" d="M859.1-284.6l-8.7,45.2l-2.7,13.6l-1.7,8.8l-0.5,2.6c-0.8,4-2.1,7.8-4.2,11.4c-2.2,3.8-5,6.9-8.2,9.6
		c-3.2,2.9-6.5,5.1-10.2,6.5c-3.7,1.5-7.4,2.2-11,2.2c-3.8,0-7.2-0.8-10.1-2.2c-3.1-1.5-5.6-3.6-7.7-6.5c-2.1-3-3.6-6.2-4.2-9.6
		c-0.7-3.6-0.6-7.4,0.1-11.4l0.4-2.6l2-10.2l2.4-12.2l8.8-45.2h-14.4l-8.8,45.2l-2.3,11.8l-2.6,13.3c-1.2,6.3-1.4,12.1-0.4,17.4
		c0.9,4.5,2.5,8.7,5.1,12.6h0c0.4,0.7,0.9,1.4,1.4,2c0.2,0.2,0.3,0.5,0.5,0.7c3.1,4.1,6.7,7.3,11.2,9.4c4.5,2.1,9.7,3.2,15.6,3.2
		c4.4,0,8.7-0.6,12.8-1.9c0.4-0.1,0.8-0.3,1.2-0.4c0.9-0.3,1.8-0.6,2.7-1c5.2-2.1,10.4-5.4,15.6-9.9v-0.1c4.9-4.4,9-9.3,12.2-14.6
		c3-5.3,5.1-11.1,6.4-17.4l2.2-11.1l2.7-14l8.8-45.2H859.1z"/>
</g>
<g id="XMLID_125_" class="st7">
	<polygon class="st8" points="161.8,-238.7 143.2,-239.2 135.9,-249.8 134.3,-241.6 133.9,-239.4 120.6,-239.8 129.5,-285.5 	"/>
</g>
<g id="XMLID_124_" class="st7">
	<polygon class="st8" points="194.5,-284.6 207.9,-284.6 198.8,-237.7 185.5,-238.1 	"/>
</g>
<g id="XMLID_123_" class="st7">
	<polygon class="st8" points="283.7,-284.4 280.9,-270.2 254.3,-270.2 253.4,-265.7 247.7,-236.5 234.5,-236.8 240.1,-265.7 
		240.9,-270.2 214.2,-270.2 217,-284.4 	"/>
</g>
<g id="XMLID_122_" class="st7">
	<path class="st8" d="M324.2-234.5l-14.4-0.4c-0.9-5.2-1.8-10.3-2.7-15c-2.8,4.6-5.6,9.5-8.5,14.7l-14.1-0.4l29.4-49.9L324.2-234.5z
		"/>
</g>
<g id="XMLID_121_" class="st7">
	<path class="st8" d="M425-250.6l-0.6,3c-0.7,3.7-1.9,7.1-3.5,10.2c-0.9,1.7-2,3.5-3.4,5.3l-18.3-0.5c1-0.7,2-1.5,3-2.4
		c2.5-2.2,4.3-4.5,5.6-6.9c1.3-2.2,2.2-4.9,2.8-8c0.6-2.8,0.7-5.4,0.3-7.8c-0.4-2-1.4-4.2-3-6.5v-0.1c-1.4-2-3.5-3.4-6.4-4.5
		c-2.6-1-5.6-1.5-8.9-1.5h-16.4l-0.9,4.6l-6.3,32.1l-0.1,0.3l-13.3-0.4l9.8-50.7H397c5,0,9.5,0.9,13.6,2.8c3.8,1.8,7.1,4.3,9.7,7.7
		c2.7,3.7,4.3,7.2,5.1,10.6C426-259.7,426-255.5,425-250.6z"/>
</g>
<g id="XMLID_120_" class="st7">
	<path class="st8" d="M514.7-245.9c-0.8,4.1-2,7.8-3.7,11.4l-15.2-0.4c0.4-0.7,0.9-1.3,1.3-2c1.6-2.6,2.7-5.6,3.4-9
		c0.6-3.3,0.7-6.2,0.1-8.9c-0.5-2.5-1.5-5.1-3.2-7.6c-1.6-2.3-3.7-4.1-6-5.2c-2.3-1.1-5-1.8-8.1-1.8h-21.8l-0.9,4.8l-3.6,18.7
		l-1.9,10l-14.2-0.4l1.9-9.6l7.5-38.6h36c5,0,9.4,0.9,13.2,2.9c3.8,1.8,7.2,4.7,10,8.5c2.8,3.8,4.7,7.9,5.6,12.5
		C515.8-256.2,515.7-251.2,514.7-245.9z"/>
</g>
<g id="XMLID_119_" class="st7">
	<polygon class="st8" points="531.9,-284.6 546.3,-284.6 537.5,-239.4 536.4,-233.8 522.1,-234.2 523.1,-239.4 	"/>
</g>
<g id="XMLID_118_" class="st7">
	<polygon class="st8" points="601.9,-284.6 616.2,-284.6 607.5,-239.4 606.1,-232.1 591.7,-232.4 593.1,-239.4 	"/>
</g>
<g id="XMLID_117_" class="st7">
	<polygon class="st8" points="630.2,-284.6 644.4,-284.6 634.1,-231.3 619.9,-231.7 	"/>
</g>
<g id="XMLID_116_" class="st7">
	<path class="st8" d="M753.9-228.2l-15.5-0.4c-1.1-6.7-2.2-13.1-3.4-19.2c-3.5,5.9-7.1,12.2-10.8,18.8l-15.1-0.4l33.3-56.3
		L753.9-228.2z"/>
</g>
<g id="XMLID_115_" class="st7">
	<polygon class="st8" points="789.1,-284.6 803.5,-284.6 794.8,-239.4 792.4,-227.2 778.1,-227.6 780.4,-239.4 	"/>
</g>
<g id="XMLID_114_" class="st7">
	<polygon class="st8" points="873.5,-284.6 864.7,-239.4 862,-225.4 847.7,-225.7 850.3,-239.4 859.1,-284.6 	"/>
</g>
<g id="XMLID_113_">
	<path class="st3" d="M619.4-105.2c-6.9,0-12.3-2.4-16.2-7.1c-3.9-4.8-5.1-10.6-3.7-17.3c1.5-6.8,5.2-12.5,11.1-17.4
		c6-4.8,12.4-7.2,19.3-7.2l-0.1,0.1c7.6,0,13,3.3,16.3,7.2l-8.6,6.9c-2.4-2.9-5.6-4.3-9.8-4.3c-4.2,0-8,1.4-11.6,4.3
		c-3.6,2.9-5.8,6.4-6.6,10.4c-0.9,4.1-0.2,7.5,2.2,10.4c2.3,2.9,5.6,4.3,9.7,4.3s8.1-1.4,11.6-4.3l5.6,6.9
		C633.9-108.4,627.2-105.2,619.4-105.2z"/>
	<path class="st3" d="M675.3-154.9l12,49.4h-10.8l-1.8-7.4h-17l-4.9,7.4h-10.8L675.3-154.9z M672.7-121.4l-2.3-10.2l-6.7,10.2H672.7
		z"/>
	<path class="st3" d="M705.6-153.9h16.2c5.5,0,9.5,2,11.9,4.9c2.4,2.9,3.6,5.6,2.4,11l-0.3,1.3c-0.7,3.3-2.4,6.3-5.1,9.2
		c-2.2,2.4-3.8,3.4-6.9,4.5l7.8,17.5h-12.2l-9.7-21.4l-4.6,21.4h-9.9L705.6-153.9z M725.8-137.7c0.4-1.8,0.1-3.3-1-4.7
		c-1-1.2-3.3-1.9-5.7-1.9h-5.6l-2.8,13.4h3.8v0h3.3C721.4-130.9,725-134,725.8-137.7z"/>
	<path class="st3" d="M772.7-154.2c7.6,0,13.1,3.3,16.3,7.2l-8.6,6.9c-2.4-2.9-5.7-4.4-9.7-4.4c-4.2,0-8,1.4-11.6,4.4
		c-3.6,2.9-5.8,6.4-6.6,10.4c-0.9,4.1-0.2,7.5,2.2,10.4c2.3,2.9,5.6,4.3,9.7,4.3c6.4,0,12.3-3.9,15.4-8.5h-14.1l2-9.3H793
		c-1.2,9-5.7,15.6-11.6,20.3c-5.9,4.8-12.4,7.2-19.3,7.2c-7,0-12.4-2.4-16.2-7.2c-3.9-4.8-5.1-10.5-3.7-17.3
		c1.5-6.8,5.2-12.5,11.1-17.4C759.3-151.9,765.7-154.3,772.7-154.2L772.7-154.2z"/>
	<path class="st3" d="M845.6-147c3.9,4.8,5.1,10.6,3.7,17.4c-1.5,6.8-5.2,12.6-11.1,17.3c-5.9,4.8-12.4,7.1-19.3,7.1
		c-6.9,0-12.4-2.4-16.2-7.1c-3.9-4.8-5.1-10.6-3.7-17.3c1.5-6.8,5.2-12.5,11.1-17.4c6-4.8,12.4-7.2,19.3-7.2S841.7-151.9,845.6-147z
		 M815.6-140.1c-3.6,2.9-5.8,6.4-6.7,10.4c-0.9,4.1-0.1,7.5,2.2,10.4c2.3,2.9,5.6,4.3,9.8,4.3c4.1,0,8-1.4,11.5-4.3
		c3.6-2.9,5.9-6.3,6.7-10.4c0.9-4.1,0.1-7.5-2.2-10.4c-2.3-2.9-5.6-4.3-9.7-4.3C823-144.5,819.2-143,815.6-140.1z"/>
</g>
<g id="XMLID_112_">
	<path class="st9" d="M30.3-129.9l2.4,14.6l8-13.8l1.9,13.8l8.8-14.6H55l-14.4,23.8l-1.9-14.3l-8,14.2l-3.9-23.7H30.3z"/>
	<path class="st9" d="M59.8-129.9l2.4,14.6l8-13.8l1.9,13.8l8.8-14.6h3.6l-14.4,23.8l-1.9-14.3l-8,14.2l-3.9-23.7H59.8z"/>
	<path class="st9" d="M89.3-129.9l2.4,14.6l8-13.8l1.9,13.8l8.8-14.6h3.6l-14.4,23.8l-1.9-14.3l-8,14.2l-3.9-23.7H89.3z"/>
	<path class="st9" d="M107.8-109.7c0.6-0.5,1.3-0.7,2-0.7s1.3,0.3,1.7,0.7s0.6,1.1,0.4,1.8s-0.5,1.3-1.2,1.8c-0.6,0.5-1.3,0.7-2,0.7
		s-1.3-0.2-1.7-0.7s-0.5-1.1-0.4-1.8C106.8-108.6,107.2-109.2,107.8-109.7z"/>
	<path class="st9" d="M134.2-106.5h-3.5l-1-3.9h-5.2h-5.2l-2.7,3.9h-3.5l15.7-23.6L134.2-106.5z M125-112.8h4c-0.4-1.5-0.7-3-1-4.7
		c-0.3-1.7-0.6-3.3-0.9-4.7c-1,1.5-2,3.1-3.1,4.7s-2.1,3.3-3,4.7H125z"/>
	<path class="st9" d="M154.1-114l0.6-2.8l2.9-13.1h3.3l-5.2,23.8l-12.5-16.3l-0.4,1.8l-3.1,14.1h-3.3l5.2-23.7L154.1-114z"/>
	<path class="st9" d="M174.1-129.9h5.5l-0.7,3.1h-5.5h-1l-0.2,1l-4.2,19.3h-3.3l4.2-19.3l0.2-1h-1h-5.5l0.7-3.1h5.5H174.1z"/>
	<path class="st9" d="M192.4-106.5h-3.5l-1-3.9h-5.2h-5.2l-2.7,3.9h-3.5l15.7-23.6L192.4-106.5z M183.2-112.8h4
		c-0.4-1.5-0.7-3-1-4.7c-0.3-1.7-0.6-3.3-0.9-4.7c-1,1.5-2,3.1-3.1,4.7s-2.1,3.3-3,4.7H183.2z"/>
	<path class="st9" d="M199.8-129.9h7.7c1.2,0,2.3,0.2,3.3,0.6c0.9,0.4,1.7,0.9,2.4,1.7c0.7,0.8,1.1,1.6,1.2,2.3
		c0.2,0.8,0.2,1.7-0.1,2.8l-0.1,0.7c-0.2,0.8-0.5,1.6-0.9,2.2c-0.4,0.6-0.9,1.3-1.6,2c-0.6,0.6-1,1-1.5,1.2c-0.4,0.3-1,0.5-1.7,0.8
		l-1.2,0.4l0.4,1l3.5,7.7h-4.1l-3.8-8.2h-3.6l-1.8,8.2h-3.3L199.8-129.9z M205.3-117.8L205.3-117.8c0.7,0,1.3-0.1,1.8-0.3
		c0.5-0.2,1-0.5,1.6-1c0.6-0.5,1.1-1,1.4-1.5c0.3-0.5,0.6-1.1,0.7-1.7c0.1-0.6,0.2-1.2,0.1-1.7c-0.1-0.4-0.3-0.9-0.7-1.4v0
		c-0.4-0.4-0.9-0.7-1.6-1c-0.6-0.2-1.4-0.3-2.2-0.3h-3h-1l-0.2,1l-1.5,7l-0.2,1h1l1.2,0h0.8H205.3z"/>
	<path class="st9" d="M215-113.1l2-8.9l1.7-7.9h4.3h4c1.2,0,2.2,0.2,3.1,0.6c0.9,0.4,1.7,1,2.3,1.7c0.6,0.8,1.1,1.6,1.3,2.5
		c0.2,0.9,0.2,1.9-0.1,3c-0.2,1.1-0.7,2.1-1.3,3c-0.6,0.9-1.4,1.8-2.4,2.5c-1,0.8-2,1.4-3.1,1.7c-1.1,0.4-2.2,0.6-3.3,0.6h-4h-1
		l-0.2,1l-1.5,6.6h-3.3L215-113.1z M219.2-117.2h1l4,0c0.7,0,1.4-0.1,2-0.3c0.6-0.2,1.2-0.6,1.9-1.1c0.6-0.5,1.1-1,1.4-1.6
		c0.4-0.5,0.6-1.1,0.8-1.8c0.1-0.7,0.2-1.3,0-1.8c-0.1-0.5-0.4-1-0.7-1.6c-0.4-0.5-0.9-0.8-1.4-1.1c-0.5-0.2-1.2-0.4-1.9-0.4h-4h-1
		l-0.2,1l-0.8,3.8l-0.8,3.8L219.2-117.2z"/>
	<path class="st9" d="M257-129.9l-2,9.2l-1.1,5.1c-0.3,1.3-0.8,2.5-1.5,3.6c-0.7,1.1-1.7,2.1-2.8,3v0c-1.2,0.9-2.4,1.6-3.6,2
		c-1.2,0.5-2.5,0.7-3.9,0.7c-1.4,0-2.6-0.2-3.6-0.7c-1.1-0.5-2-1.1-2.7-2.1c-0.8-0.9-1.3-1.9-1.5-3c-0.2-1.1-0.2-2.3,0.1-3.6
		l1.1-5.1l2-9.2h3.3l-2,9.2l-1,4.6l-0.1,0.5c-0.2,0.8-0.2,1.6,0,2.3c0.1,0.7,0.5,1.4,1,2c0.5,0.6,1.1,1,1.8,1.3
		c0.7,0.3,1.5,0.5,2.3,0.5c0.8,0,1.7-0.2,2.5-0.5c0.8-0.3,1.6-0.8,2.3-1.3c0.7-0.6,1.4-1.2,1.9-2c0.5-0.7,0.8-1.5,1-2.3l0.1-0.5
		l1-4.6l2-9.2H257z"/>
	<path class="st9" d="M263.5-129.9l-4.2,19.3l-0.2,1h1h9.7l-0.7,3.1h-14l5.1-23.4H263.5z"/>
	<path class="st9" d="M291.5-106.5H288l-1-3.9h-5.2h-5.2l-2.7,3.9h-3.5l15.7-23.6L291.5-106.5z M282.3-112.8h4c-0.4-1.5-0.7-3-1-4.7
		c-0.3-1.7-0.6-3.3-0.9-4.7c-1,1.5-2,3.1-3.1,4.7s-2.1,3.3-3,4.7H282.3z"/>
	<path class="st9" d="M316.4-129.9l-2,9.2l-1.1,5.1c-0.3,1.3-0.8,2.5-1.5,3.6c-0.7,1.1-1.7,2.1-2.8,3v0c-1.2,0.9-2.4,1.6-3.6,2
		c-1.2,0.5-2.5,0.7-3.9,0.7c-1.4,0-2.6-0.2-3.6-0.7c-1.1-0.5-2-1.1-2.7-2.1c-0.8-0.9-1.3-1.9-1.5-3c-0.2-1.1-0.2-2.3,0.1-3.6
		l1.1-5.1l2-9.2h3.3l-2,9.2l-1,4.6l-0.1,0.5c-0.2,0.8-0.2,1.6,0,2.3c0.1,0.7,0.5,1.4,1,2c0.5,0.6,1.1,1,1.8,1.3
		c0.7,0.3,1.5,0.5,2.3,0.5c0.8,0,1.7-0.2,2.5-0.5c0.8-0.3,1.6-0.8,2.3-1.3c0.7-0.6,1.4-1.2,1.9-2c0.5-0.7,0.8-1.5,1-2.3l0.1-0.5
		l1-4.6l2-9.2H316.4z"/>
	<path class="st9" d="M331.1-130c0.9,0,1.7,0.1,2.5,0.2c0.8,0.2,1.5,0.4,2.2,0.7c0.7,0.3,1.3,0.7,1.9,1.1c0.3,0.3,0.7,0.5,0.9,0.8
		l-2.9,2.2c-0.6-0.5-1.2-0.9-1.9-1.3c-1-0.4-2.1-0.6-3.3-0.6s-2.5,0.2-3.7,0.6c-1.2,0.5-2.3,1.1-3.4,1.9c-1.1,0.8-1.9,1.8-2.6,2.8h0
		c-0.7,1-1.1,2.1-1.4,3.3c-0.3,1.2-0.3,2.3-0.1,3.3c0.2,1,0.7,2,1.4,2.8c0.7,0.8,1.5,1.5,2.5,1.9s2.1,0.6,3.4,0.6
		c1.2,0,2.5-0.2,3.7-0.6c0.9-0.3,1.7-0.7,2.5-1.3l1.8,2.2c-0.4,0.3-0.8,0.5-1.3,0.8c-0.8,0.5-1.6,0.8-2.4,1.1
		c-0.9,0.3-1.7,0.5-2.5,0.7c-0.8,0.2-1.7,0.2-2.6,0.2c-1.7,0-3.2-0.3-4.6-0.9c-1.4-0.6-2.5-1.4-3.4-2.6c-1-1.2-1.6-2.5-1.9-3.9
		c-0.3-1.4-0.3-2.9,0.1-4.5c0.4-1.7,1-3.2,1.9-4.5c0.9-1.4,2.1-2.7,3.6-3.9c1.5-1.2,3-2,4.6-2.6c1.2-0.4,2.4-0.7,3.6-0.8H331.1z"/>
	<path class="st9" d="M356.4-106.5h-3.5l-1-3.9h-5.2h-5.2l-2.7,3.9h-3.5l15.7-23.6L356.4-106.5z M347.3-112.8h4
		c-0.4-1.5-0.7-3-1-4.7c-0.3-1.7-0.6-3.3-0.9-4.7c-1,1.5-2,3.1-3.1,4.7s-2.1,3.3-3,4.7H347.3z"/>
	<path class="st9" d="M363.8-129.9h7.7c1.2,0,2.3,0.2,3.3,0.6c0.9,0.4,1.7,0.9,2.4,1.7c0.7,0.8,1.1,1.6,1.2,2.3
		c0.2,0.8,0.2,1.7-0.1,2.8l-0.1,0.7c-0.2,0.8-0.5,1.6-0.9,2.2c-0.4,0.6-0.9,1.3-1.6,2c-0.6,0.6-1,1-1.5,1.2c-0.4,0.3-1,0.5-1.7,0.8
		l-1.2,0.4l0.4,1l3.5,7.7h-4.1l-3.8-8.2h-3.6l-1.8,8.2h-3.3L363.8-129.9z M369.4-117.8L369.4-117.8c0.7,0,1.3-0.1,1.8-0.3
		c0.5-0.2,1-0.5,1.6-1c0.6-0.5,1.1-1,1.4-1.5c0.3-0.5,0.6-1.1,0.7-1.7c0.1-0.6,0.2-1.2,0.1-1.7c-0.1-0.4-0.3-0.9-0.7-1.4v0
		c-0.4-0.4-0.9-0.7-1.6-1c-0.6-0.2-1.4-0.3-2.2-0.3h-3h-1l-0.2,1l-1.5,7l-0.2,1h1l1.2,0h0.8H369.4z"/>
	<path class="st9" d="M393.5-130h0.7c0.9,0,1.7,0.1,2.5,0.2c0.8,0.2,1.5,0.4,2.2,0.7c0.7,0.3,1.3,0.7,1.9,1.1
		c0.3,0.2,0.6,0.5,0.9,0.8l-2.8,2.2c-0.6-0.5-1.2-0.9-1.9-1.3c-1-0.4-2.1-0.6-3.4-0.6c-1.3,0-2.5,0.2-3.6,0.6
		c-1.2,0.4-2.3,1.1-3.4,1.9c-1.1,0.9-2,1.8-2.6,2.8c-0.7,1.1-1.2,2.2-1.4,3.3c-0.3,1.2-0.3,2.3-0.1,3.3c0.2,1,0.7,1.9,1.4,2.8
		c0.7,0.9,1.5,1.5,2.5,1.9c1,0.4,2.1,0.6,3.4,0.6c1,0,1.9-0.1,2.9-0.4c0.9-0.3,1.8-0.7,2.8-1.2c0.7-0.5,1.4-1,2-1.5
		c0.6-0.6,1.2-1.2,1.7-1.8l1-1.4h-1.6h-6.6l0.6-2.9h0.3h11.3c-0.3,1.7-0.9,3.2-1.7,4.6c-1,1.7-2.3,3.1-3.9,4.4c-1.5,1.2-3,2-4.6,2.6
		c-1.6,0.6-3.2,0.9-5,0.9c-1.8,0-3.3-0.3-4.6-0.9c-1.4-0.6-2.5-1.4-3.5-2.6c-1-1.2-1.6-2.5-1.9-3.8c-0.3-1.4-0.2-2.9,0.1-4.6
		s1-3.2,1.9-4.6c0.9-1.4,2.1-2.6,3.6-3.9c1.5-1.2,3-2,4.6-2.6C390.6-129.7,392-130,393.5-130L393.5-130z"/>
	<path class="st9" d="M425-129.2c1.3,0.6,2.5,1.5,3.5,2.6c1,1.2,1.6,2.5,1.9,3.8c0.3,1.4,0.3,2.9-0.1,4.6c-0.4,1.6-1,3.2-1.9,4.6
		c-0.9,1.4-2.1,2.7-3.6,3.8c-1.5,1.1-3,2-4.6,2.6s-3.3,0.9-5,0.9c-1.7,0-3.3-0.3-4.6-0.9c-1.4-0.6-2.5-1.4-3.4-2.6
		c-1-1.2-1.6-2.5-1.9-3.9c-0.3-1.4-0.3-2.9,0.1-4.5c0.4-1.7,1-3.2,1.9-4.5c0.9-1.4,2.1-2.7,3.6-3.9c1.5-1.2,3-2,4.6-2.6
		c1.6-0.6,3.2-0.9,5-0.9C422.2-130,423.7-129.8,425-129.2z M416.1-126.2c-1.2,0.5-2.3,1.1-3.4,1.9c-1.1,0.9-2,1.8-2.6,2.8
		c-0.7,1-1.1,2.1-1.4,3.3c-0.3,1.2-0.3,2.3-0.1,3.3c0.2,1,0.7,1.9,1.4,2.8c0.7,0.8,1.5,1.5,2.5,1.9s2.1,0.6,3.4,0.6
		c1.2,0,2.4-0.2,3.6-0.6s2.3-1.1,3.4-1.9c1.1-0.9,2-1.8,2.6-2.8c0.7-1,1.2-2.1,1.4-3.3c0.3-1.2,0.3-2.3,0-3.3
		c-0.2-1-0.7-1.9-1.4-2.8c-0.7-0.8-1.6-1.5-2.6-1.9c-1-0.4-2.1-0.6-3.3-0.6C418.5-126.9,417.3-126.7,416.1-126.2z"/>
	<path class="st9" d="M430.7-109.7c0.6-0.5,1.3-0.7,2-0.7s1.3,0.3,1.7,0.7s0.6,1.1,0.4,1.8s-0.5,1.3-1.2,1.8c-0.6,0.5-1.3,0.7-2,0.7
		s-1.3-0.2-1.7-0.7s-0.5-1.1-0.4-1.8C429.7-108.6,430.1-109.2,430.7-109.7z"/>
	<path class="st9" d="M453.6-130c0.9,0,1.7,0.1,2.5,0.2c0.8,0.2,1.5,0.4,2.2,0.7c0.7,0.3,1.3,0.7,1.9,1.1c0.3,0.3,0.7,0.5,0.9,0.8
		l-2.9,2.2c-0.6-0.5-1.2-0.9-1.9-1.3c-1-0.4-2.1-0.6-3.3-0.6s-2.5,0.2-3.7,0.6c-1.2,0.5-2.3,1.1-3.4,1.9c-1.1,0.8-1.9,1.8-2.6,2.8h0
		c-0.7,1-1.1,2.1-1.4,3.3c-0.3,1.2-0.3,2.3-0.1,3.3c0.2,1,0.7,2,1.4,2.8c0.7,0.8,1.5,1.5,2.5,1.9s2.1,0.6,3.4,0.6
		c1.2,0,2.5-0.2,3.7-0.6c0.9-0.3,1.7-0.7,2.5-1.3l1.8,2.2c-0.4,0.3-0.8,0.5-1.3,0.8c-0.8,0.5-1.6,0.8-2.4,1.1
		c-0.9,0.3-1.7,0.5-2.5,0.7c-0.8,0.2-1.7,0.2-2.6,0.2c-1.7,0-3.2-0.3-4.6-0.9c-1.4-0.6-2.5-1.4-3.4-2.6c-1-1.2-1.6-2.5-1.9-3.9
		c-0.3-1.4-0.3-2.9,0.1-4.5c0.4-1.7,1-3.2,1.9-4.5c0.9-1.4,2.1-2.7,3.6-3.9c1.5-1.2,3-2,4.6-2.6c1.2-0.4,2.4-0.7,3.6-0.8H453.6z"/>
	<path class="st9" d="M477.4-129.2c1.3,0.6,2.5,1.5,3.5,2.6c1,1.2,1.6,2.5,1.9,3.8c0.3,1.4,0.3,2.9-0.1,4.6c-0.4,1.6-1,3.2-1.9,4.6
		c-0.9,1.4-2.1,2.7-3.6,3.8c-1.5,1.1-3,2-4.6,2.6s-3.3,0.9-5,0.9c-1.7,0-3.3-0.3-4.6-0.9c-1.4-0.6-2.5-1.4-3.4-2.6
		c-1-1.2-1.6-2.5-1.9-3.9c-0.3-1.4-0.3-2.9,0.1-4.5c0.4-1.7,1-3.2,1.9-4.5c0.9-1.4,2.1-2.7,3.6-3.9c1.5-1.2,3-2,4.6-2.6
		c1.6-0.6,3.2-0.9,5-0.9C474.6-130,476.1-129.8,477.4-129.2z M468.5-126.2c-1.2,0.5-2.3,1.1-3.4,1.9c-1.1,0.9-2,1.8-2.6,2.8
		c-0.7,1-1.1,2.1-1.4,3.3c-0.3,1.2-0.3,2.3-0.1,3.3c0.2,1,0.7,1.9,1.4,2.8c0.7,0.8,1.5,1.5,2.5,1.9s2.1,0.6,3.4,0.6
		c1.2,0,2.4-0.2,3.6-0.6s2.3-1.1,3.4-1.9c1.1-0.9,2-1.8,2.6-2.8c0.7-1,1.2-2.1,1.4-3.3c0.3-1.2,0.3-2.3,0-3.3
		c-0.2-1-0.7-1.9-1.4-2.8c-0.7-0.8-1.6-1.5-2.6-1.9c-1-0.4-2.1-0.6-3.3-0.6C470.9-126.9,469.7-126.7,468.5-126.2z"/>
	<path class="st9" d="M495.8-112.6l15.9-17.5l-5.2,23.6h-3.3l2.9-13.3L494.5-107l-5.9-12.7l-2.9,13.3h-3.3l5.2-23.6L495.8-112.6z"/>
</g>
<path id="XMLID_110_" class="st10" d="M-895.9-263.3l-6.1,31.5l-1.8,9.1l-1.7,8.7l-12.6-18.2l-21.8-31.6l-6,30.9l-8.3,42.6h9.1
	l8.2-42.3l0.3-1.5l1.1-5.6l4.9,7.2l29.4,43.3l8.2-42.3l6.2-31.7H-895.9z"/>
<path id="XMLID_108_" class="st10" d="M-880.6-263.2l-1.9,9.6h18l-0.6,3l-3.8,19.5l-7.9,40.4h9l7.8-40.1l3.9-19.8l0.6-3h18l1.9-9.6
	H-880.6z"/>
<path id="XMLID_104_" class="st10" d="M-808.2-229.4l-6.9-34.4l-19.9,33.7l-23.3,39.5h9.7l7.3-12h28.6l2.7,12h9.7L-808.2-229.4z
	 M-836.5-210.4c2.7-4.5,5.5-9.5,8.4-14.7c0.9-1.6,1.8-3.2,2.7-4.8c2-3.5,3.9-6.8,5.8-9.9c0.6,3.2,1.3,6.6,1.8,10.1
	c0.2,1.5,0.5,3,0.7,4.6c0.8,5.2,1.7,10.2,2.7,14.7H-836.5z"/>
<path id="XMLID_100_" class="st10" d="M-739.8-248.9c-0.5-2.3-1.6-4.7-3.4-7.2c-1.8-2.3-4-4-6.6-5.2c-2.7-1.3-5.8-1.9-9.2-1.9h-21.1
	l-6.6,34.3l-7.4,38.3h9.1l4.9-25.4h10l10.4,25.4h11.3l-9.7-23.8l-1.2-3.1l3.4-1.4c2-0.7,3.5-1.5,4.6-2.3c1.2-0.8,2.6-2.1,4.1-3.9
	c0.8-0.9,1.5-1.8,2.1-2.7c0.9-1.2,1.7-2.4,2.3-3.6c1.1-2.1,1.9-4.4,2.4-6.9l0.4-2.1C-739.4-243.6-739.3-246.5-739.8-248.9z
	 M-759.8-226.7c-1.5,0.6-3.2,1-5.1,1v-0.1h-7.1l-3.4,0h-2.8l0.6-2.8l0-0.2l4.2-21.7l0.6-3.1h11.1c2.2,0,4.3,0.3,6,1
	c1.9,0.7,3.3,1.7,4.3,3v0c1.1,1.6,1.7,3,2,4.4c0.2,1.6,0.2,3.4-0.2,5.3c-0.4,2.1-1,3.9-1.9,5.4c-0.9,1.7-2.2,3.2-3.8,4.7
	c-0.7,0.6-1.4,1.2-2,1.6C-758.3-227.5-759.1-227-759.8-226.7z"/>
<path id="XMLID_97_" class="st4" d="M-468.6-185c-2.2-0.7-5.1-1.6-8.5-2.7c-2.4-0.8-5.1-1.6-8-2.6c-5.5-1.7-11.9-3.7-19.1-5.7h0
	c-2.2-0.6-4.4-1.2-6.8-1.9c-1.6-0.4-3.3-0.9-5-1.3c-8.8-2.3-18.5-4.5-29.1-6.4c-4.5-0.8-9.2-1.6-14.1-2.3
	c-8.6-1.2-17.6-2.3-27.1-2.9c-4.4-0.3-8.9-0.6-13.4-0.8c-3-0.1-6-0.2-9-0.3c-3-0.1-6-0.1-9-0.1c-3.1,0-6.1,0-9.2,0.1
	c-1.9,0-3.8,0.1-5.7,0.1c-9.5,0.3-19.2,0.8-29,1.6c-3.1,0.2-6.2,0.5-9.4,0.8c-14.6,1.3-29.5,3.2-44.3,5.3c-3.1,0.5-6.2,0.9-9.3,1.4
	c-2.7,0.4-5.4,0.8-8.1,1.3c-16.9,2.8-33.8,6.1-50.2,9.3c-16.2,3.2-32.4,5.1-48.2,6.1c-31.5,1.9-60.9-0.5-85.8-4.3
	c-10.9-1.7-20.9-3.7-29.9-5.8c-5.3-4.4-10.1-11.8-12.7-23.8l-8.8-43.9l-40.8,69.1h0.5l-0.1,0.1l-0.3,0.3c0,0,30.3,7.8,53,11.9
	c10.9,2.3,23.3,4.6,37.1,6.3c25.8,3.2,56.3,4.7,88.6,1.7c16.2-1.5,32.8-4,49.4-7.8c16.4-3.8,52.8-11.4,54.5-11.8
	c3.1-0.6,40.6-7,56-8.9c3.5-0.4,6.9-0.8,10.3-1.2c9.3-1,18.6-1.8,27.6-2.3c0.9-0.1,1.9-0.1,2.8-0.2c3.4-0.2,6.8-0.3,10.1-0.4
	c3.3-0.1,6.6-0.2,9.9-0.2c3.1,0,6.1-0.1,9.1,0c4.7,0,9.4,0.2,14,0.3c8.9,0.3,17.4,1,25.6,1.9c5.3,0.6,10.4,1.3,15.4,2
	c10.9,1.6,20.9,3.6,29.9,5.7c1.4,0.3,2.8,0.7,4.2,1c2.9,0.7,5.7,1.4,8.4,2.1c6.6,1.7,12.5,3.3,17.7,4.7c2.7,0.8,5.2,1.5,7.4,2.1
	c3.7,1.1,6.8,2,9.2,2.6c3.1,0.9,5.1,1.5,5.7,1.7C-463.6-183.3-465.5-184-468.6-185z M-978.1-213.4L-978.1-213.4l-17.4,11.5
	c2.5-4.3,12.1-20.5,14.9-25.4c2.7-4.8,5.3-9.4,7.8-13.7c0.1-0.1,0.1-0.2,0.2-0.2c0.9,4.3,1.6,9,2.4,13.9c0.8,4.9,4,22.5,4.9,26.8
	L-978.1-213.4z"/>
<path id="XMLID_96_" class="st5" d="M-980.6-227.2c-2.7,4.9-12.3,21.1-14.9,25.4l17.3-11.5l-5,25.2l-25.5-6.5l-0.4-0.1l40.8-69.1
	l-4.5,23C-975.3-236.6-978-232.1-980.6-227.2z"/>
<path id="XMLID_93_" class="st10" d="M-679.2-247.2c-0.6-3.1-1.9-5.9-3.8-8.4c-1.9-2.6-4.2-4.5-6.8-5.8c-2.6-1.3-5.6-1.9-9-1.9H-723
	l-5,26.1l-1.3,6.5l-4.5,22.8l-2.8,14.5l-0.2,1.1l-1.2,6.2h9.6l0.9-4.6l0.9-4.6l2.5-12.7l0.6-3.2h14.7c3.3,0,6.5-0.6,9.7-1.9
	c3.1-1.3,6.2-3.2,9.1-5.8c2.9-2.6,5.2-5.4,7-8.4c0.4-0.8,0.8-1.5,1.2-2.4c1.1-2.4,1.9-4.9,2.5-7.7
	C-678.7-240.7-678.6-244.1-679.2-247.2z M-689-237.1c-0.5,2.3-1.2,4.3-2.3,6.1c-0.3,0.5-0.6,0.9-0.9,1.4c-1,1.4-2.1,2.6-3.4,3.8
	c-1.8,1.6-3.6,2.8-5.5,3.5c-1.9,0.8-3.8,1.1-5.9,1.1l-11.7,0h-3l0.7-3.2l1.1-5.9l1.3-6.8l2.5-12.6l0.6-3.2h14.7
	c2.1,0,3.9,0.4,5.5,1.2c1.5,0.8,3,2,4,3.5c1.1,1.7,1.9,3.4,2.2,5.1C-688.6-241.3-688.6-239.4-689-237.1z"/>
<path id="XMLID_92_" class="st10" d="M-610.7-263.3l-5.9,30.6l-1,5l-2.4,12c-0.2,1.1-2,7-2.7,8.6c-0.5,1.1-1,2.2-1.6,3.2
	c-2.1,3.6-4.9,6.9-8.2,9.9v0c-3.5,3.1-7.1,5.3-10.6,6.7c-3.6,1.5-7.3,2.2-11.3,2.2c-4,0-7.5-0.7-10.6-2.2c-3.2-1.5-5.8-3.8-7.9-6.8
	c-2-2.6-3.4-5.6-4.1-8.7c-0.1-0.4-0.2-0.8-0.3-1.2c-0.4-1.8-0.5-3.8-0.4-5.8c0-1.9,0.3-3.9,0.7-6l2.6-13.5l0.7-3.5l5.9-30.6h9.7
	l-5.9,30.6l-0.7,3.7l-2.2,11.4l-0.3,1.8c-0.3,1.8-0.5,3.5-0.4,5.2c0,0.8,0.1,1.7,0.3,2.5c0.3,1.4,0.7,2.7,1.4,4
	c0.4,0.8,0.9,1.7,1.5,2.5c1.4,2,3.1,3.4,5.2,4.4c2,1,4.3,1.5,6.8,1.5c2.5,0,5-0.5,7.5-1.5c2.5-1,4.7-2.5,6.9-4.4
	c1.7-1.5,3.3-3.2,4.6-5.1c1.6-2.3,3.5-7.9,3.8-9.1l0.4-1.8l2.1-10.4l0.9-4.7l5.9-30.6H-610.7z"/>
<polygon id="XMLID_91_" class="st10" points="-573.4,-196.1 -575.4,-185.9 -616.3,-185.9 -612.5,-205.8 -612.2,-207.4 
	-608.3,-227.5 -601.3,-263.3 -591.7,-263.3 -598.7,-227.3 -602.5,-207.5 -604.1,-199.4 -604.7,-196.1 "/>
<path id="XMLID_87_" class="st10" d="M-512-196.9l-0.4-2l-5.3-26.3l-7.8-38.9L-548-226l-10.5,17.8l-1.9,3.1l-11.3,19.1h10.3
	l7.8-12.8h30.5l2.9,12.8h10.3L-512-196.9z M-548.3-207c2.9-4.8,5.8-10.1,8.9-15.6c0.6-1,1.1-2,1.7-3c2.5-4.5,4.9-8.7,7.3-12.7
	c0.8,4.1,1.6,8.4,2.3,13c0.1,0.9,0.3,1.8,0.4,2.8c0.9,5.6,1.8,10.8,2.9,15.6H-548.3z"/>
<path id="XMLID_85_" class="st10" d="M-446.5-263.3l-5.9,30.6l-1.8,9.2l-1.2,5.9l-0.4,1.8c-0.5,2.7-1.4,5.2-2.9,7.7
	c-1.5,2.6-3.4,4.7-5.5,6.5c-2.2,1.9-4.4,3.4-6.9,4.4c-2.5,1-5,1.5-7.4,1.5c-2.6,0-4.9-0.5-6.9-1.5c-2.1-1-3.8-2.4-5.2-4.4
	c-1.4-2-2.5-4.2-2.9-6.5c-0.5-2.5-0.4-5,0.1-7.7l0.3-1.8l1.4-6.9l1.6-8.2l5.9-30.6h-9.7l-5.9,30.6l-1.5,8l-1.7,9
	c-0.8,4.3-0.9,8.2-0.3,11.7c0.6,3.1,1.7,5.9,3.4,8.5h0c0.3,0.5,0.6,0.9,0.9,1.4c0.1,0.2,0.2,0.3,0.3,0.5c2.1,2.8,4.5,4.9,7.6,6.4
	c3,1.4,6.6,2.2,10.6,2.2c3,0,5.9-0.4,8.6-1.3c0.3-0.1,0.5-0.2,0.8-0.3c0.6-0.2,1.2-0.4,1.8-0.7c3.5-1.4,7-3.6,10.6-6.7v0
	c3.3-3,6.1-6.3,8.2-9.9c2-3.6,3.5-7.5,4.3-11.7l1.5-7.5l1.9-9.5l5.9-30.6H-446.5z"/>
<polygon id="XMLID_84_" class="st6" points="-918,-232.3 -930.6,-232.6 -935.5,-239.8 -936.6,-234.2 -936.8,-232.8 -945.8,-233 
	-939.8,-263.9 "/>
<polygon id="XMLID_83_" class="st6" points="-895.9,-263.3 -886.8,-263.3 -893,-231.6 -902,-231.9 "/>
<polygon id="XMLID_82_" class="st6" points="-835.6,-263.2 -837.5,-253.6 -855.5,-253.6 -856,-250.5 -859.9,-230.8 -868.9,-231 
	-865.1,-250.5 -864.5,-253.6 -882.5,-253.6 -880.6,-263.2 "/>
<path id="XMLID_81_" class="st6" d="M-808.2-229.4l-9.7-0.2c-0.6-3.5-1.2-6.9-1.8-10.1c-1.9,3.1-3.8,6.5-5.8,9.9l-9.5-0.3l19.9-33.7
	L-808.2-229.4z"/>
<path id="XMLID_80_" class="st6" d="M-740-240.3l-0.4,2.1c-0.5,2.5-1.3,4.8-2.4,6.9c-0.6,1.2-1.4,2.3-2.3,3.6l-12.4-0.3
	c0.7-0.5,1.3-1,2-1.6c1.7-1.5,2.9-3,3.8-4.7c0.9-1.5,1.5-3.3,1.9-5.4c0.4-1.9,0.4-3.7,0.2-5.3c-0.3-1.4-0.9-2.8-2-4.4v0
	c-1-1.3-2.4-2.3-4.3-3c-1.8-0.7-3.8-1-6-1h-11.1l-0.6,3.1l-4.2,21.7l0,0.2l-9-0.2l6.6-34.3h21.1c3.4,0,6.4,0.6,9.2,1.9
	c2.6,1.2,4.8,2.9,6.6,5.2c1.8,2.5,2.9,4.9,3.4,7.2C-739.3-246.5-739.4-243.6-740-240.3z"/>
<path id="XMLID_79_" class="st6" d="M-679.4-237.1c-0.5,2.8-1.4,5.3-2.5,7.7l-10.3-0.3c0.3-0.4,0.6-0.9,0.9-1.3
	c1.1-1.8,1.8-3.8,2.3-6.1c0.4-2.2,0.5-4.2,0.1-6c-0.3-1.7-1-3.4-2.2-5.1c-1.1-1.5-2.5-2.8-4-3.5c-1.6-0.8-3.4-1.2-5.5-1.2h-14.7
	l-0.6,3.2l-2.5,12.7l-1.3,6.8l-9.6-0.2l1.3-6.5l5-26.1h24.3c3.4,0,6.4,0.6,9,1.9c2.6,1.2,4.8,3.2,6.8,5.8c1.9,2.6,3.2,5.4,3.8,8.4
	C-678.6-244.1-678.7-240.7-679.4-237.1z"/>
<polygon id="XMLID_78_" class="st6" points="-667.8,-263.3 -658,-263.3 -664,-232.7 -664.7,-229 -674.4,-229.2 -673.7,-232.7 "/>
<polygon id="XMLID_77_" class="st6" points="-620.5,-263.3 -610.7,-263.3 -616.7,-232.7 -617.6,-227.8 -627.3,-228 -626.4,-232.7 
	"/>
<polygon id="XMLID_76_" class="st6" points="-601.3,-263.3 -591.7,-263.3 -598.7,-227.3 -608.3,-227.5 "/>
<path id="XMLID_75_" class="st6" d="M-517.7-225.2l-10.5-0.3c-0.7-4.5-1.5-8.9-2.3-13c-2.4,4-4.8,8.2-7.3,12.7L-548-226l22.5-38.1
	L-517.7-225.2z"/>
<polygon id="XMLID_74_" class="st6" points="-493.8,-263.3 -484.1,-263.3 -490,-232.7 -491.6,-224.5 -501.3,-224.7 -499.8,-232.7 
	"/>
<polygon id="XMLID_52_" class="st6" points="-436.8,-263.3 -442.7,-232.7 -444.6,-223.3 -454.3,-223.5 -452.4,-232.7 -446.5,-263.3 
	"/>
<text id="XMLID_51_" transform="matrix(1.101 0 0 1 -626.315 -142.1946)" class="st10" style="font-family:'LemonMilkitalic'; font-size:41.5686px;">cargo</text>
<text id="XMLID_50_" transform="matrix(1.13 0 0 1 -1013.3386 -142.1946)" class="st10" style="font-family:'LemonMilklightitalic'; font-size:21.7673px;">www.antarpulaucargo.com</text>
<text id="XMLID_3_" transform="matrix(1 0 0 1 -980.4135 115.5)" style="font-family:'LemonMilklightitalic'; font-size:80px;">ANTAR </text>
<text id="XMLID_5_" transform="matrix(1 0 0 1 -749.342 115.5)" style="font-family:'LemonMilkitalic'; font-size:80px;">PULAU</text>
<path id="XMLID_6_" class="st11" d="M-959.5,97.7c0,0,20.9,32.8,113.7,32.8c75.3,0,142.7-38.2,196-39.6
	c48.5-1.3,101.5,4.6,165.7,39.6"/>
<path id="XMLID_53_" d="M-888.2,203.6l1.3-6.9l6.3-32.5h7.2l-11.5,59.3l-27.4-40.4l-0.9,4.5l-6.8,35.1h-7.3l11.4-58.8L-888.2,203.6z
	"/>
<path id="XMLID_59_" d="M-844.4,164.3h12.1l-1.5,7.7h-12.1h-2.3l-0.5,2.4l-9.3,48h-7.2l9.3-48l0.5-2.4h-2.3h-12.1l1.5-7.7h12.1
	H-844.4z"/>
<path id="XMLID_61_" d="M-804.1,222.4h-7.7l-2.1-9.6h-11.5h-11.4l-5.9,9.6h-7.7l34.6-58.6L-804.1,222.4z M-824.2,206.6h8.9
	c-0.8-3.6-1.5-7.6-2.1-11.8s-1.3-8.1-2.1-11.8c-2.2,3.7-4.5,7.6-6.8,11.8s-4.5,8.1-6.7,11.8H-824.2z"/>
<path id="XMLID_66_" d="M-787.8,164.3h16.9c2.7,0,5.2,0.5,7.3,1.5c2.1,1,3.8,2.3,5.3,4.2c1.4,2,2.3,3.9,2.7,5.7
	c0.4,1.9,0.4,4.2-0.2,6.8l-0.3,1.6c-0.4,2-1,3.9-1.9,5.5c-0.9,1.6-2,3.3-3.5,5c-1.2,1.4-2.3,2.4-3.3,3.1c-0.9,0.7-2.1,1.3-3.7,1.9
	l-2.7,1.1l1,2.5l7.7,19h-9l-8.4-20.4h-8l-3.9,20.4h-7.3L-787.8,164.3z M-775.7,194.2L-775.7,194.2c1.5,0,2.9-0.2,4.1-0.7
	c1.1-0.5,2.3-1.3,3.6-2.5c1.3-1.2,2.3-2.4,3-3.8c0.7-1.2,1.2-2.7,1.5-4.3c0.3-1.5,0.4-2.9,0.2-4.2c-0.2-1.1-0.7-2.3-1.6-3.5v0
	c-0.8-1.1-1.9-1.8-3.4-2.4c-1.4-0.5-3-0.8-4.8-0.8h-6.6h-2.3l-0.5,2.5l-3.4,17.4l-0.5,2.4h2.3l2.7,0h1.8H-775.7z"/>
<g id="XMLID_8_">
	<path id="XMLID_18_" d="M-742.1,205.9l8.6-44.1h20.6c5.7,0,10.1,2.1,13.3,6.4c3.2,4.3,4.2,9.5,3,15.6c-1.2,6.1-4.2,11.3-9.1,15.5
		c-4.9,4.3-10.2,6.4-15.8,6.4h-8.8l-3.7,18.9h-11.8L-742.1,205.9z M-715.4,174.4h-8.8c-1.2,6.3-2.5,12.7-3.7,19l8.8,0
		c4.8,0,9.6-4.3,10.7-9.5S-710.6,174.4-715.4,174.4z"/>
	<path id="XMLID_24_" d="M-659.3,200l7.4-38.1h11.8c-2.5,12.7-5,25.4-7.4,38.1c-1.4,7-4.8,13-10.4,18c-5.6,5-11.7,7.4-18.2,7.4
		c-6.6,0-11.6-2.5-15.3-7.4s-4.8-11-3.4-18c2.5-12.7,4.9-25.4,7.4-38.1h11.9L-683,200c-1.3,6.9,2.9,12.7,9.4,12.7
		C-667.2,212.6-660.6,206.8-659.3,200z"/>
	<path id="XMLID_39_" d="M-621.2,161.9l-9.8,50.4h23.6l-2.5,12.6h-35.3l12.2-63H-621.2z"/>
	<path id="XMLID_41_" d="M-567.9,160.6l14.2,64.3h-12.7l-2.1-9.6h-20l-5.8,9.6h-12.7L-567.9,160.6z M-570.9,204.1l-2.8-13.3l-8,13.3
		H-570.9z"/>
	<path id="XMLID_44_" d="M-514.1,200l7.4-38.1h11.8c-2.5,12.7-5,25.4-7.4,38.1c-1.4,7-4.8,13-10.4,18c-5.6,5-11.7,7.4-18.2,7.4
		c-6.6,0-11.6-2.5-15.3-7.4s-4.8-11-3.4-18c2.5-12.7,4.9-25.4,7.4-38.1h11.9l-7.4,38.1c-1.3,6.9,2.9,12.7,9.4,12.7
		C-522.1,212.6-515.5,206.8-514.1,200z"/>
</g>
<path id="XMLID_4_" class="st4" d="M-448.2,232.1c-2.2-0.7-5.1-1.6-8.5-2.7c-2.4-0.8-5.1-1.6-8-2.6c-5.5-1.7-11.9-3.7-19.1-5.7h0
	c-2.2-0.6-4.4-1.2-6.8-1.9c-1.6-0.4-3.3-0.9-5-1.3c-8.8-2.3-18.5-4.5-29.1-6.4c-4.5-0.8-9.2-1.6-14.1-2.3
	c-8.6-1.2-17.6-2.3-27.1-2.9c-4.4-0.3-8.9-0.6-13.4-0.8c-3-0.1-6-0.2-9-0.3c-3-0.1-6-0.1-9-0.1c-3.1,0-6.1,0-9.2,0.1
	c-1.9,0-3.8,0.1-5.7,0.1c-9.5,0.3-19.2,0.8-29,1.6c-3.1,0.2-6.2,0.5-9.4,0.8c-14.6,1.3-29.5,3.2-44.3,5.3c-3.1,0.5-6.2,0.9-9.3,1.4
	c-2.7,0.4-5.4,0.8-8.1,1.3c-16.9,2.8-33.8,6.1-50.2,9.3c-16.2,3.2-32.4,5.1-48.2,6.1c-31.5,1.9-60.9-0.5-85.8-4.3
	c-10.9-1.7-20.9-3.7-29.9-5.8c-5.3-4.4-10.1-11.8-12.7-23.8l-8.8-43.9l-40.8,69.1h0.5l-0.1,0.1l-0.3,0.3c0,0,30.3,7.8,53,11.9
	c10.9,2.3,23.3,4.6,37.1,6.3c25.8,3.2,56.3,4.7,88.6,1.7c16.2-1.5,32.8-4,49.4-7.8c16.4-3.8,52.8-11.4,54.5-11.8
	c3.1-0.6,40.6-7,56-8.9c3.5-0.4,6.9-0.8,10.3-1.2c9.3-1,18.6-1.8,27.6-2.3c0.9-0.1,1.9-0.1,2.8-0.2c3.4-0.2,6.8-0.3,10.1-0.4
	c3.3-0.1,6.6-0.2,9.9-0.2c3.1,0,6.1-0.1,9.1,0c4.7,0,9.4,0.2,14,0.3c8.9,0.3,17.4,1,25.6,1.9c5.3,0.6,10.4,1.3,15.4,2
	c10.9,1.6,20.9,3.6,29.9,5.7c1.4,0.3,2.8,0.7,4.2,1c2.9,0.7,5.7,1.4,8.4,2.1c6.6,1.7,12.5,3.3,17.7,4.7c2.7,0.8,5.2,1.5,7.4,2.1
	c3.7,1.1,6.8,2,9.2,2.6c3.1,0.9,5.1,1.5,5.7,1.7C-443.2,233.7-445.1,233.1-448.2,232.1z M-957.7,203.7L-957.7,203.7l-17.4,11.5
	c2.5-4.3,12.1-20.5,14.9-25.4c2.7-4.8,5.3-9.4,7.8-13.7c0.1-0.1,0.1-0.2,0.2-0.2c0.9,4.3,1.6,9,2.4,13.9c0.8,4.9,4,22.5,4.9,26.8
	L-957.7,203.7z"/>
<g id="XMLID_152_">
	<path class="st1" d="M68.8-230.7c-4.2,7.5-17.8,30.5-21.6,37l25.7-17L64-166.7l-36.7-15.9l-0.2-0.6l60.4-102.2l-6.7,33.8
		C76.9-245.1,72.9-238.1,68.8-230.7z"/>
</g>
<g>
	<path class="st1" d="M182.3,99.2l18.8-87.7L28.3,277.2l112.4,15.9l18.8-87.5l-0.1-0.1l-65.2,32.2
		C104.9,221.2,171.5,115.7,182.3,99.2z"/>
</g>
</svg>
