<?xml version="1.0" encoding="utf-8"?>
<!-- Generator: Adobe Illustrator 21.1.0, SVG Export Plug-In . SVG Version: 6.00 Build 0)  -->
<svg version="1.1" id="Layer_1" xmlns="http://www.w3.org/2000/svg" xmlns:xlink="http://www.w3.org/1999/xlink" x="0px" y="0px"
	 viewBox="0 0 924.1 271.8" style="enable-background:new 0 0 924.1 271.8;" xml:space="preserve">
<style type="text/css">
	.st0{fill:#0076BE;}
	.st1{fill:#0096DA;}
	.st2{fill:#656668;}
	.st3{fill:#77787B;}
	.st4{fill:#0073AB;}
	.st5{opacity:0.22;fill:#00B8F1;}
	.st6{opacity:0.29;fill:#BABCBE;}
	.st7{opacity:0.29;}
	.st8{fill:#BABCBE;}
	.st9{fill:#6D6E71;}
	.st10{fill:#FFFFFF;}
	.st11{fill:none;stroke:#A4D067;stroke-width:8;stroke-miterlimit:10;}
</style>
<g>
	<path class="st0" d="M225.7,557.6H76.1l111.6-189.1L225.7,557.6z M160.7,506.6l33,25.4c-2.5-11.7-9.2-49.9-11.4-63.4
		s-4.3-26.2-6.7-38c-7.1,11.8-14.4,24.6-21.8,38s-28.4,49.1-35.3,60.8L160.7,506.6z"/>
</g>
<g>
	<path class="st1" d="M702.3,563.3H552.6l111.6-189.1L702.3,563.3z M637.3,512.3l33.7,28.9c-2.5-11.7-9.9-53.3-12.1-66.8
		s-4.3-26.2-6.7-38c-7.1,11.8-14.4,24.6-21.8,38s-28.4,49.1-35.3,60.8L637.3,512.3z"/>
</g>
<rect x="-1026.9" y="38" class="st2" width="625.5" height="158.5"/>
<path id="XMLID_9_" class="st3" d="M-881,215.5l-6.1,31.5l-1.8,9.1l-1.7,8.7l-12.6-18.2l-21.8-31.6l-6,30.9l-8.3,42.6h9.1l8.2-42.3
	l0.3-1.5l1.1-5.6l4.9,7.2l29.4,43.3l8.2-42.3l6.2-31.7H-881z"/>
<path id="XMLID_11_" class="st3" d="M-865.7,215.7l-1.9,9.6h18l-0.6,3l-3.8,19.5l-7.9,40.4h9l7.8-40.1l3.9-19.8l0.6-3h18l1.9-9.6
	H-865.7z"/>
<path id="XMLID_13_" class="st3" d="M-793.3,249.4l-6.9-34.4l-19.9,33.7l-23.3,39.5h9.7l7.3-12h28.6l2.7,12h9.7L-793.3,249.4z
	 M-821.6,268.5c2.7-4.5,5.5-9.5,8.4-14.7c0.9-1.6,1.8-3.2,2.7-4.8c2-3.5,3.9-6.8,5.8-9.9c0.6,3.2,1.3,6.6,1.8,10.1
	c0.2,1.5,0.5,3,0.7,4.6c0.8,5.2,1.7,10.2,2.7,14.7H-821.6z"/>
<path id="XMLID_16_" class="st3" d="M-724.9,230c-0.5-2.3-1.6-4.7-3.4-7.2c-1.8-2.3-4-4-6.6-5.2c-2.7-1.3-5.8-1.9-9.2-1.9h-21.1
	l-6.6,34.3l-7.4,38.3h9.1l4.9-25.4h10l10.4,25.4h11.3l-9.7-23.8l-1.2-3.1l3.4-1.4c2-0.7,3.5-1.5,4.6-2.3c1.2-0.8,2.6-2.1,4.1-3.9
	c0.8-0.9,1.5-1.8,2.1-2.7c0.9-1.2,1.7-2.4,2.3-3.6c1.1-2.1,1.9-4.4,2.4-6.9l0.4-2.1C-724.5,235.2-724.4,232.3-724.9,230z
	 M-744.9,252.2c-1.5,0.6-3.2,1-5.1,1v-0.1h-7.1l-3.4,0h-2.8l0.6-2.8l0-0.2l4.2-21.7l0.6-3.1h11.1c2.2,0,4.3,0.3,6,1
	c1.9,0.7,3.3,1.7,4.3,3v0c1.1,1.6,1.7,3,2,4.4c0.2,1.6,0.2,3.4-0.2,5.3c-0.4,2.1-1,3.9-1.9,5.4c-0.9,1.7-2.2,3.2-3.8,4.7
	c-0.7,0.6-1.4,1.2-2,1.6C-743.4,251.3-744.2,251.8-744.9,252.2z"/>
<path id="XMLID_38_" class="st4" d="M-453.7,293.9c-2.2-0.7-5.1-1.6-8.5-2.7c-2.4-0.8-5.1-1.6-8-2.6c-5.5-1.7-11.9-3.7-19.1-5.7h0
	c-2.2-0.6-4.4-1.2-6.8-1.9c-1.6-0.4-3.3-0.9-5-1.3c-8.8-2.3-18.5-4.5-29.1-6.4c-4.5-0.8-9.2-1.6-14.1-2.3
	c-8.6-1.2-17.6-2.3-27.1-2.9c-4.4-0.3-8.9-0.6-13.4-0.8c-3-0.1-6-0.2-9-0.3c-3-0.1-6-0.1-9-0.1c-3.1,0-6.1,0-9.2,0.1
	c-1.9,0-3.8,0.1-5.7,0.1c-9.5,0.3-19.2,0.8-29,1.6c-3.1,0.2-6.2,0.5-9.4,0.8c-14.6,1.3-29.5,3.2-44.3,5.3c-3.1,0.5-6.2,0.9-9.3,1.4
	c-2.7,0.4-5.4,0.8-8.1,1.3c-16.9,2.8-33.8,6.1-50.2,9.3c-16.2,3.2-32.4,5.1-48.2,6.1c-31.5,1.9-60.9-0.5-85.8-4.3
	c-10.9-1.7-20.9-3.7-29.9-5.8c-5.3-4.4-10.1-11.8-12.7-23.8l-8.8-43.9l-40.8,69.1h0.5l-0.1,0.1l-0.3,0.3c0,0,30.3,7.8,53,11.9
	c10.9,2.3,23.3,4.6,37.1,6.3c25.8,3.2,56.3,4.7,88.6,1.7c16.2-1.5,32.8-4,49.4-7.8c16.4-3.8,52.8-11.4,54.5-11.8
	c3.1-0.6,40.6-7,56-8.9c3.5-0.4,6.9-0.8,10.3-1.2c9.3-1,18.6-1.8,27.6-2.3c0.9-0.1,1.9-0.1,2.8-0.2c3.4-0.2,6.8-0.3,10.1-0.4
	c3.3-0.1,6.6-0.2,9.9-0.2c3.1,0,6.1-0.1,9.1,0c4.7,0,9.4,0.2,14,0.3c8.9,0.3,17.4,1,25.6,1.9c5.3,0.6,10.4,1.3,15.4,2
	c10.9,1.6,20.9,3.6,29.9,5.7c1.4,0.3,2.8,0.7,4.2,1c2.9,0.7,5.7,1.4,8.4,2.1c6.6,1.7,12.5,3.3,17.7,4.7c2.7,0.8,5.2,1.5,7.4,2.1
	c3.7,1.1,6.8,2,9.2,2.6c3.1,0.9,5.1,1.5,5.7,1.7C-448.7,295.5-450.6,294.9-453.7,293.9z M-963.2,265.5L-963.2,265.5l-17.4,11.5
	c2.5-4.3,12.1-20.5,14.9-25.4c2.7-4.8,5.3-9.4,7.8-13.7c0.1-0.1,0.1-0.2,0.2-0.2c0.9,4.3,1.6,9,2.4,13.9c0.8,4.9,4,22.5,4.9,26.8
	L-963.2,265.5z"/>
<path id="XMLID_34_" class="st5" d="M-965.7,251.6c-2.7,4.9-12.3,21.1-14.9,25.4l17.3-11.5l-5,25.2l-25.5-6.5l-0.4-0.1l40.8-69.1
	l-4.5,23C-960.4,242.2-963.1,246.8-965.7,251.6z"/>
<path id="XMLID_30_" class="st3" d="M-664.3,231.7c-0.6-3.1-1.9-5.9-3.8-8.4c-1.9-2.6-4.2-4.5-6.8-5.8c-2.6-1.3-5.6-1.9-9-1.9h-24.3
	l-5,26.1l-1.3,6.5l-4.5,22.8l-2.8,14.5l-0.2,1.1l-1.2,6.2h9.6l0.9-4.6l0.9-4.6l2.5-12.7l0.6-3.2h14.7c3.3,0,6.5-0.6,9.7-1.9
	c3.1-1.3,6.2-3.2,9.1-5.8c2.9-2.6,5.2-5.4,7-8.4c0.4-0.8,0.8-1.5,1.2-2.4c1.1-2.4,1.9-4.9,2.5-7.7
	C-663.8,238.1-663.7,234.7-664.3,231.7z M-674.1,241.7c-0.5,2.3-1.2,4.3-2.3,6.1c-0.3,0.5-0.6,0.9-0.9,1.4c-1,1.4-2.1,2.6-3.4,3.8
	c-1.8,1.6-3.6,2.8-5.5,3.5c-1.9,0.8-3.8,1.1-5.9,1.1l-11.7,0h-3l0.7-3.2l1.1-5.9l1.3-6.8l2.5-12.6l0.6-3.2h14.7
	c2.1,0,3.9,0.4,5.5,1.2c1.5,0.8,3,2,4,3.5c1.1,1.7,1.9,3.4,2.2,5.1C-673.7,237.5-673.7,239.5-674.1,241.7z"/>
<path id="XMLID_20_" class="st3" d="M-595.8,215.5l-5.9,30.6l-1,5l-2.4,12c-0.2,1.1-2,7-2.7,8.6c-0.5,1.1-1,2.2-1.6,3.2
	c-2.1,3.6-4.9,6.9-8.2,9.9v0c-3.5,3.1-7.1,5.3-10.6,6.7c-3.6,1.5-7.3,2.2-11.3,2.2c-4,0-7.5-0.7-10.6-2.2c-3.2-1.5-5.8-3.8-7.9-6.8
	c-2-2.6-3.4-5.6-4.1-8.7c-0.1-0.4-0.2-0.8-0.3-1.2c-0.4-1.8-0.5-3.8-0.4-5.8c0-1.9,0.3-3.9,0.7-6l2.6-13.5l0.7-3.5l5.9-30.6h9.7
	l-5.9,30.6l-0.7,3.7l-2.2,11.4l-0.3,1.8c-0.3,1.8-0.5,3.5-0.4,5.2c0,0.8,0.1,1.7,0.3,2.5c0.3,1.4,0.7,2.7,1.4,4
	c0.4,0.8,0.9,1.7,1.5,2.5c1.4,2,3.1,3.4,5.2,4.4c2,1,4.3,1.5,6.8,1.5c2.5,0,5-0.5,7.5-1.5c2.5-1,4.7-2.5,6.9-4.4
	c1.7-1.5,3.3-3.2,4.6-5.1c1.6-2.3,3.5-7.9,3.8-9.1l0.4-1.8l2.1-10.4l0.9-4.7l5.9-30.6H-595.8z"/>
<polygon id="XMLID_21_" class="st3" points="-558.5,282.7 -560.5,292.9 -601.4,292.9 -597.6,273 -597.3,271.4 -593.4,251.3 
	-586.4,215.5 -576.8,215.5 -583.8,251.6 -587.6,271.4 -589.2,279.4 -589.8,282.7 "/>
<path id="XMLID_26_" class="st3" d="M-497.1,281.9l-0.4-2l-5.3-26.3l-7.8-38.9l-22.5,38.1l-10.5,17.8l-1.9,3.1l-11.3,19.1h10.3
	l7.8-12.8h30.5l2.9,12.8h10.3L-497.1,281.9z M-533.4,271.8c2.9-4.8,5.8-10.1,8.9-15.6c0.6-1,1.1-2,1.7-3c2.5-4.5,4.9-8.7,7.3-12.7
	c0.8,4.1,1.6,8.4,2.3,13c0.1,0.9,0.3,1.8,0.4,2.8c0.9,5.6,1.8,10.8,2.9,15.6H-533.4z"/>
<path id="XMLID_29_" class="st3" d="M-431.6,215.5l-5.9,30.6l-1.8,9.2l-1.2,5.9l-0.4,1.8c-0.5,2.7-1.4,5.2-2.9,7.7
	c-1.5,2.6-3.4,4.7-5.5,6.5c-2.2,1.9-4.4,3.4-6.9,4.4c-2.5,1-5,1.5-7.4,1.5c-2.6,0-4.9-0.5-6.9-1.5c-2.1-1-3.8-2.4-5.2-4.4
	c-1.4-2-2.5-4.2-2.9-6.5c-0.5-2.5-0.4-5,0.1-7.7l0.3-1.8l1.4-6.9l1.6-8.2l5.9-30.6h-9.7l-5.9,30.6l-1.5,8l-1.7,9
	c-0.8,4.3-0.9,8.2-0.3,11.7c0.6,3.1,1.7,5.9,3.4,8.5h0c0.3,0.5,0.6,0.9,0.9,1.4c0.1,0.2,0.2,0.3,0.3,0.5c2.1,2.8,4.5,4.9,7.6,6.4
	c3,1.4,6.6,2.2,10.6,2.2c3,0,5.9-0.4,8.6-1.3c0.3-0.1,0.5-0.2,0.8-0.3c0.6-0.2,1.2-0.4,1.8-0.7c3.5-1.4,7-3.6,10.6-6.7v0
	c3.3-3,6.1-6.3,8.2-9.9c2-3.6,3.5-7.5,4.3-11.7l1.5-7.5l1.9-9.5l5.9-30.6H-431.6z"/>
<polygon id="XMLID_12_" class="st6" points="-903.1,246.6 -915.7,246.2 -920.6,239 -921.7,244.6 -921.9,246.1 -930.9,245.8 
	-924.9,214.9 "/>
<polygon id="XMLID_63_" class="st6" points="-881,215.5 -871.9,215.5 -878.1,247.2 -887.1,247 "/>
<polygon id="XMLID_64_" class="st6" points="-820.7,215.7 -822.5,225.3 -840.6,225.3 -841.1,228.3 -845,248.1 -854,247.8 
	-850.2,228.3 -849.6,225.3 -867.6,225.3 -865.7,215.7 "/>
<path id="XMLID_32_" class="st6" d="M-793.3,249.4l-9.7-0.2c-0.6-3.5-1.2-6.9-1.8-10.1c-1.9,3.1-3.8,6.5-5.8,9.9l-9.5-0.3l19.9-33.7
	L-793.3,249.4z"/>
<path id="XMLID_10_" class="st6" d="M-725.1,238.5l-0.4,2.1c-0.5,2.5-1.3,4.8-2.4,6.9c-0.6,1.2-1.4,2.3-2.3,3.6l-12.4-0.3
	c0.7-0.5,1.3-1,2-1.6c1.7-1.5,2.9-3,3.8-4.7c0.9-1.5,1.5-3.3,1.9-5.4c0.4-1.9,0.4-3.7,0.2-5.3c-0.3-1.4-0.9-2.8-2-4.4v0
	c-1-1.3-2.4-2.3-4.3-3c-1.8-0.7-3.8-1-6-1H-758l-0.6,3.1l-4.2,21.7l0,0.2l-9-0.2l6.6-34.3h21.1c3.4,0,6.4,0.6,9.2,1.9
	c2.6,1.2,4.8,2.9,6.6,5.2c1.8,2.5,2.9,4.9,3.4,7.2C-724.4,232.3-724.5,235.2-725.1,238.5z"/>
<path id="XMLID_15_" class="st6" d="M-664.5,241.7c-0.5,2.8-1.4,5.3-2.5,7.7l-10.3-0.3c0.3-0.4,0.6-0.9,0.9-1.3
	c1.1-1.8,1.8-3.8,2.3-6.1c0.4-2.2,0.5-4.2,0.1-6c-0.3-1.7-1-3.4-2.2-5.1c-1.1-1.5-2.5-2.8-4-3.5c-1.6-0.8-3.4-1.2-5.5-1.2h-14.7
	l-0.6,3.2l-2.5,12.7l-1.3,6.8l-9.6-0.2l1.3-6.5l5-26.1h24.3c3.4,0,6.4,0.6,9,1.9c2.6,1.2,4.8,3.2,6.8,5.8c1.9,2.6,3.2,5.4,3.8,8.4
	C-663.7,234.7-663.8,238.1-664.5,241.7z"/>
<polygon id="XMLID_68_" class="st6" points="-652.9,215.5 -643.1,215.5 -649.1,246.1 -649.8,249.9 -659.4,249.6 -658.8,246.1 "/>
<polygon id="XMLID_69_" class="st6" points="-605.5,215.5 -595.8,215.5 -601.7,246.1 -602.7,251.1 -612.4,250.8 -611.5,246.1 "/>
<polygon id="XMLID_70_" class="st6" points="-586.4,215.5 -576.8,215.5 -583.8,251.6 -593.4,251.3 "/>
<path id="XMLID_14_" class="st6" d="M-502.8,253.7l-10.5-0.3c-0.7-4.5-1.5-8.9-2.3-13c-2.4,4-4.8,8.2-7.3,12.7l-10.2-0.3l22.5-38.1
	L-502.8,253.7z"/>
<polygon id="XMLID_72_" class="st6" points="-478.9,215.5 -469.2,215.5 -475.1,246.1 -476.7,254.3 -486.4,254.1 -484.8,246.1 "/>
<polygon id="XMLID_73_" class="st6" points="-421.9,215.5 -427.8,246.1 -429.7,255.6 -439.3,255.3 -437.5,246.1 -431.6,215.5 "/>
<text id="XMLID_1_" transform="matrix(1.101 0 0 1 -611.4058 336.6387)" class="st3" style="font-family:'LemonMilkitalic'; font-size:41.5686px;">cargo</text>
<text id="XMLID_2_" transform="matrix(1.13 0 0 1 -998.4295 336.6387)" class="st9" style="font-family:'LemonMilklightitalic'; font-size:21.7673px;">www.antarpulaucargo.com</text>
<g id="XMLID_150_">
	<path class="st3" d="M209.4,46.9l-9,46.5l-2.6,13.5l-2.5,12.8l-18.6-26.9L144.4,46l-8.9,45.7l-12.3,63h13.5l12.1-62.6l0.4-2.2
		l1.6-8.2l7.2,10.6l43.4,64l12.2-62.6l9.1-46.9H209.4z"/>
</g>
<g id="XMLID_148_">
	<path class="st3" d="M232,47.1l-2.8,14.2h26.7l-0.9,4.5l-5.6,28.9l-11.6,59.7h13.3L262.6,95l5.7-29.2l0.9-4.5h26.6l2.7-14.2H232z"
		/>
</g>
<g id="XMLID_144_">
	<path class="st3" d="M339.1,97l-10.3-50.9L299.4,96l-34.5,58.4h14.3l10.8-17.7h42.4l4,17.7h14.3L339.1,97z M297.2,125.2
		c4-6.7,8.1-14,12.4-21.7c1.3-2.4,2.7-4.8,4-7.1c2.9-5.1,5.7-10,8.5-14.7c0.9,4.7,1.9,9.8,2.7,15c0.4,2.2,0.7,4.5,1.1,6.8
		c1.2,7.7,2.5,15,4,21.7H297.2z"/>
</g>
<g id="XMLID_140_">
	<path class="st3" d="M440.2,68.2c-0.7-3.4-2.4-6.9-5.1-10.6c-2.7-3.4-5.9-5.9-9.7-7.7c-4-1.9-8.6-2.8-13.6-2.8h-31.2l-9.8,50.7
		l-11,56.6h13.4l7.3-37.6h14.8l15.4,37.6h16.7l-14.3-35.1l-1.8-4.6l5.1-2c2.9-1.1,5.1-2.2,6.9-3.5c1.8-1.2,3.8-3.1,6.1-5.7
		c1.1-1.4,2.2-2.7,3-4c1.3-1.8,2.5-3.6,3.4-5.3c1.7-3.1,2.8-6.6,3.5-10.2l0.6-3C440.9,76,441,71.8,440.2,68.2z M410.6,101.1
		c-2.2,0.9-4.8,1.4-7.5,1.4v-0.1h-10.5l-5.1-0.1h-4.2l0.8-4.2l0.1-0.3l6.3-32.1l0.9-4.6h16.4c3.3,0,6.3,0.5,8.9,1.5
		c2.8,1.1,4.9,2.5,6.4,4.5v0.1c1.6,2.3,2.5,4.5,3,6.5c0.4,2.4,0.3,5-0.3,7.8c-0.6,3.1-1.5,5.8-2.8,8c-1.3,2.5-3.2,4.8-5.6,6.9
		c-1,0.9-2,1.7-3,2.4C412.9,99.8,411.7,100.6,410.6,101.1z"/>
</g>
<g id="XMLID_137_">
	<path class="st0" d="M841.3,162.8c-3.3-1.1-7.6-2.4-12.6-4c-3.5-1.1-7.5-2.4-11.8-3.8c-8.1-2.5-17.5-5.4-28.2-8.4h0
		c-3.2-0.9-6.5-1.8-10-2.8c-2.4-0.7-4.9-1.3-7.4-2c-13-3.3-27.4-6.7-43.1-9.5c-6.7-1.2-13.7-2.4-20.8-3.4c-12.7-1.8-26.1-3.4-40-4.3
		c-6.5-0.5-13.1-0.8-19.8-1.1c-4.4-0.2-8.8-0.3-13.3-0.4c-4.4-0.1-8.8-0.2-13.3-0.2c-4.5,0-9.1,0-13.6,0.1c-2.8,0.1-5.6,0.1-8.5,0.2
		c-14,0.4-28.4,1.2-42.9,2.3c-4.6,0.4-9.2,0.8-13.9,1.2c-21.7,2-43.6,4.7-65.6,7.9c-4.6,0.7-9.2,1.4-13.8,2.1
		c-4,0.6-7.9,1.2-11.9,1.9c-25,4.1-50,9-74.2,13.7c-24,4.7-48,7.6-71.2,9c-46.5,2.8-90.1-0.7-126.9-6.4c-16.1-2.5-30.9-5.5-44.2-8.6
		c-7.9-6.5-15-17.4-18.8-35.2l-13.1-64.9L42,148.4l0.2,0.6c0,0,44.8,11.5,78.4,17.6c16.1,3.4,34.5,6.8,54.9,9.3
		c38.2,4.7,83.2,6.9,131.1,2.5c23.9-2.2,48.5-5.9,73.1-11.5c24.3-5.6,78.1-16.9,80.5-17.4c4.6-0.9,60.1-10.4,82.8-13.2
		c5.1-0.7,10.2-1.2,15.2-1.8c13.8-1.5,27.5-2.6,40.9-3.5c1.4-0.1,2.8-0.2,4.2-0.2c5-0.3,10-0.5,15-0.6c4.9-0.2,9.8-0.3,14.6-0.3
		c4.5-0.1,9-0.1,13.4,0c7,0.1,13.9,0.2,20.7,0.5c13.1,0.5,25.7,1.5,37.8,2.8c7.9,0.9,15.4,1.9,22.7,3c16.1,2.4,30.9,5.4,44.3,8.4
		c2.1,0.5,4.2,1,6.3,1.5c4.3,1,8.4,2,12.4,3c9.8,2.5,18.6,4.8,26.1,6.9c4,1.1,7.6,2.2,11,3.1c5.5,1.6,10.1,2.9,13.7,3.9
		c4.6,1.3,7.5,2.2,8.4,2.4C848.7,165.2,845.9,164.2,841.3,162.8z M87.8,120.8l-0.1,0.1l-25.5,17c3.7-6.3,18-30.3,22-37.5
		c3.9-7.1,7.8-13.9,11.6-20.2c0.1-0.1,0.1-0.2,0.2-0.4c1.3,6.4,2.4,13.3,3.6,20.6c1.2,7.3,5.9,33.3,7.3,39.6L87.8,120.8z"/>
</g>
<g id="XMLID_134_">
	<path class="st3" d="M529.9,70.7c-0.9-4.5-2.8-8.7-5.6-12.5c-2.8-3.8-6.2-6.7-10-8.5c-3.8-1.9-8.2-2.9-13.2-2.9h-36l-7.5,38.6
		l-1.9,9.6l-6.6,33.8l-4.2,21.5l-0.3,1.7l-1.8,9.2H457l1.3-6.8l1.3-6.8l3.7-18.8l0.9-4.8H486c4.9,0,9.7-0.9,14.3-2.8
		c4.6-1.9,9.2-4.8,13.5-8.5c4.2-3.8,7.7-7.9,10.3-12.4c0.7-1.1,1.3-2.3,1.8-3.5c1.6-3.6,2.9-7.3,3.7-11.4
		C530.6,80.3,530.7,75.3,529.9,70.7z M515.3,85.6c-0.7,3.4-1.8,6.4-3.4,9c-0.4,0.7-0.8,1.3-1.3,2c-1.4,2-3.1,3.9-5,5.6
		c-2.7,2.4-5.4,4.1-8.1,5.1c-2.8,1.2-5.6,1.7-8.7,1.7l-17.3-0.1h-4.5l1-4.8l1.7-8.7l1.9-10l3.6-18.7l0.9-4.8h21.8
		c3.1,0,5.8,0.6,8.1,1.8c2.3,1.2,4.4,2.9,6,5.2c1.7,2.6,2.8,5.1,3.2,7.6C516,79.4,516,82.3,515.3,85.6z"/>
</g>
<g id="XMLID_133_">
	<path class="st3" d="M631.1,46.9l-8.7,45.2l-1.4,7.3l-3.5,17.8c-0.3,1.6-2.9,10.3-4,12.6c-0.7,1.6-1.5,3.2-2.4,4.7
		c-3.2,5.3-7.2,10.2-12.1,14.6v0.1c-5.2,4.5-10.5,7.9-15.6,9.9c-5.3,2.2-10.9,3.3-16.7,3.3c-5.9,0-11.2-1.1-15.6-3.2
		c-4.7-2.2-8.5-5.6-11.7-10.1c-2.9-3.9-5-8.2-6.1-12.9c-0.1-0.6-0.3-1.2-0.4-1.8c-0.5-2.7-0.7-5.6-0.6-8.6c0.1-2.8,0.4-5.7,1-8.8
		l3.9-20l1-5.1l8.8-45.2h14.4l-8.8,45.2l-1.1,5.5l-3.3,16.9l-0.5,2.6c-0.5,2.6-0.7,5.2-0.6,7.6c0.1,1.3,0.2,2.5,0.4,3.8
		c0.4,2.1,1.1,4,2,5.9c0.6,1.2,1.4,2.5,2.2,3.7c2.1,3,4.6,5.1,7.7,6.6c2.9,1.4,6.3,2.2,10.1,2.2c3.6,0,7.3-0.8,11-2.2
		c3.6-1.5,7-3.7,10.2-6.6c2.6-2.2,4.9-4.7,6.8-7.6c2.4-3.3,5.2-11.7,5.6-13.4l0.5-2.6l3-15.4l1.4-7l8.8-45.2H631.1z"/>
</g>
<g id="XMLID_132_">
	<polygon class="st3" points="686.3,146.2 683.4,161.3 622.8,161.3 628.6,131.9 629,129.5 634.8,99.8 645.1,46.9 659.3,46.9 
		649,100.2 643.3,129.5 641,141.4 640,146.2 	"/>
</g>
<g id="XMLID_128_">
	<path class="st3" d="M777.2,145.1l-0.6-2.9l-7.8-38.9l-11.6-57.5l-33.3,56.3l-15.5,26.3l-2.7,4.6L689,161.3h15.2l11.5-18.9h45.2
		l4.3,18.9h15.2L777.2,145.1z M723.4,130.1c4.2-7.1,8.6-14.9,13.1-23.1c0.8-1.5,1.7-3,2.5-4.5c3.7-6.6,7.3-12.9,10.8-18.8
		c1.2,6,2.3,12.4,3.4,19.2c0.2,1.3,0.4,2.7,0.7,4.1c1.3,8.2,2.7,16,4.2,23.1H723.4z"/>
</g>
<g id="XMLID_126_">
	<path class="st3" d="M874,46.9l-8.7,45.2l-2.7,13.6l-1.7,8.8l-0.5,2.6c-0.8,4-2.1,7.8-4.2,11.4c-2.2,3.8-5,6.9-8.2,9.6
		c-3.2,2.9-6.5,5.1-10.2,6.5c-3.7,1.5-7.4,2.2-11,2.2c-3.8,0-7.2-0.8-10.1-2.2c-3.1-1.5-5.6-3.6-7.7-6.5c-2.1-3-3.6-6.2-4.2-9.6
		c-0.7-3.6-0.6-7.4,0.1-11.4l0.4-2.6l2-10.2l2.4-12.2l8.8-45.2h-14.4l-8.8,45.2l-2.3,11.8l-2.6,13.3c-1.2,6.3-1.4,12.1-0.4,17.4
		c0.9,4.5,2.5,8.7,5.1,12.6h0c0.4,0.7,0.9,1.4,1.4,2c0.2,0.2,0.3,0.5,0.5,0.7c3.1,4.1,6.7,7.3,11.2,9.4c4.5,2.1,9.7,3.2,15.6,3.2
		c4.4,0,8.7-0.6,12.8-1.9c0.4-0.1,0.8-0.3,1.2-0.4c0.9-0.3,1.8-0.6,2.7-1c5.2-2.1,10.4-5.4,15.6-9.9v-0.1c4.9-4.4,9-9.3,12.2-14.6
		c3-5.3,5.1-11.1,6.4-17.4l2.2-11.1l2.7-14l8.8-45.2H874z"/>
</g>
<g id="XMLID_125_" class="st7">
	<polygon class="st8" points="176.7,92.8 158.1,92.3 150.9,81.7 149.3,89.9 148.8,92.1 135.5,91.7 144.4,46 	"/>
</g>
<g id="XMLID_124_" class="st7">
	<polygon class="st8" points="209.4,46.9 222.8,46.9 213.7,93.8 200.4,93.4 	"/>
</g>
<g id="XMLID_123_" class="st7">
	<polygon class="st8" points="298.6,47.1 295.8,61.3 269.2,61.3 268.3,65.8 262.6,95 249.4,94.7 255,65.8 255.8,61.3 229.1,61.3 
		232,47.1 	"/>
</g>
<g id="XMLID_122_" class="st7">
	<path class="st8" d="M339.1,97l-14.4-0.4c-0.9-5.2-1.8-10.3-2.7-15c-2.8,4.6-5.6,9.5-8.5,14.7L299.4,96l29.4-49.9L339.1,97z"/>
</g>
<g id="XMLID_121_" class="st7">
	<path class="st8" d="M439.9,80.9l-0.6,3c-0.7,3.7-1.9,7.1-3.5,10.2c-0.9,1.7-2,3.5-3.4,5.3L414.2,99c1-0.7,2-1.5,3-2.4
		c2.5-2.2,4.3-4.5,5.6-6.9c1.3-2.2,2.2-4.9,2.8-8c0.6-2.8,0.7-5.4,0.3-7.8c-0.4-2-1.4-4.2-3-6.5v-0.1c-1.4-2-3.5-3.4-6.4-4.5
		c-2.6-1-5.6-1.5-8.9-1.5h-16.4l-0.9,4.6l-6.3,32.1l-0.1,0.3l-13.3-0.4l9.8-50.7h31.2c5,0,9.5,0.9,13.6,2.8c3.8,1.8,7.1,4.3,9.7,7.7
		c2.7,3.7,4.3,7.2,5.1,10.6C441,71.8,440.9,76,439.9,80.9z"/>
</g>
<g id="XMLID_120_" class="st7">
	<path class="st8" d="M529.6,85.6c-0.8,4.1-2,7.8-3.7,11.4l-15.2-0.4c0.4-0.7,0.9-1.3,1.3-2c1.6-2.6,2.7-5.6,3.4-9
		c0.6-3.3,0.7-6.2,0.1-8.9c-0.5-2.5-1.5-5.1-3.2-7.6c-1.6-2.3-3.7-4.1-6-5.2c-2.3-1.1-5-1.8-8.1-1.8h-21.8l-0.9,4.8l-3.6,18.7
		l-1.9,10l-14.2-0.4l1.9-9.6l7.5-38.6h36c5,0,9.4,0.9,13.2,2.9c3.8,1.8,7.2,4.7,10,8.5c2.8,3.8,4.7,7.9,5.6,12.5
		C530.7,75.3,530.6,80.3,529.6,85.6z"/>
</g>
<g id="XMLID_119_" class="st7">
	<polygon class="st8" points="546.8,46.9 561.2,46.9 552.4,92.1 551.4,97.7 537,97.3 538,92.1 	"/>
</g>
<g id="XMLID_118_" class="st7">
	<polygon class="st8" points="616.8,46.9 631.1,46.9 622.4,92.1 621,99.4 606.6,99.1 608,92.1 	"/>
</g>
<g id="XMLID_117_" class="st7">
	<polygon class="st8" points="645.1,46.9 659.3,46.9 649,100.2 634.8,99.8 	"/>
</g>
<g id="XMLID_116_" class="st7">
	<path class="st8" d="M768.8,103.3l-15.5-0.4c-1.1-6.7-2.2-13.1-3.4-19.2c-3.5,5.9-7.1,12.2-10.8,18.8l-15.1-0.4l33.3-56.3
		L768.8,103.3z"/>
</g>
<g id="XMLID_115_" class="st7">
	<polygon class="st8" points="804.1,46.9 818.5,46.9 809.7,92.1 807.3,104.3 793,103.9 795.3,92.1 	"/>
</g>
<g id="XMLID_114_" class="st7">
	<polygon class="st8" points="888.4,46.9 879.6,92.1 876.9,106.1 862.6,105.8 865.2,92.1 874,46.9 	"/>
</g>
<g id="XMLID_113_">
	<path class="st3" d="M634.3,226.3c-6.9,0-12.3-2.4-16.2-7.1c-3.9-4.8-5.1-10.6-3.7-17.3c1.5-6.8,5.2-12.5,11.1-17.4
		c6-4.8,12.4-7.2,19.3-7.2l-0.1,0.1c7.6,0,13,3.3,16.3,7.2l-8.6,6.9c-2.4-2.9-5.6-4.3-9.8-4.3c-4.2,0-8,1.4-11.6,4.3
		c-3.6,2.9-5.8,6.4-6.6,10.4c-0.9,4.1-0.2,7.5,2.2,10.4c2.3,2.9,5.6,4.3,9.7,4.3s8.1-1.4,11.6-4.3l5.6,6.9
		C648.8,223.1,642.1,226.3,634.3,226.3z"/>
	<path class="st3" d="M690.2,176.6l12,49.4h-10.8l-1.8-7.4h-17l-4.9,7.4H657L690.2,176.6z M687.6,210.1l-2.3-10.2l-6.7,10.2H687.6z"
		/>
	<path class="st3" d="M720.5,177.6h16.2c5.5,0,9.5,2,11.9,4.9c2.4,2.9,3.6,5.6,2.4,11l-0.3,1.3c-0.7,3.3-2.4,6.3-5.1,9.2
		c-2.2,2.4-3.8,3.4-6.9,4.5l7.8,17.5h-12.2l-9.7-21.4l-4.6,21.4h-9.9L720.5,177.6z M740.7,193.8c0.4-1.8,0.1-3.3-1-4.7
		c-1-1.2-3.3-1.9-5.7-1.9h-5.6l-2.8,13.4h3.8v0h3.3C736.3,200.6,739.9,197.5,740.7,193.8z"/>
	<path class="st3" d="M787.6,177.3c7.6,0,13.1,3.3,16.3,7.2l-8.6,6.9c-2.4-2.9-5.7-4.4-9.7-4.4c-4.2,0-8,1.4-11.6,4.4
		c-3.6,2.9-5.8,6.4-6.6,10.4c-0.9,4.1-0.2,7.5,2.2,10.4c2.3,2.9,5.6,4.3,9.7,4.3c6.4,0,12.3-3.9,15.4-8.5h-14.1l2-9.3h25.4
		c-1.2,9-5.7,15.6-11.6,20.3c-5.9,4.8-12.4,7.2-19.3,7.2c-7,0-12.4-2.4-16.2-7.2c-3.9-4.8-5.1-10.5-3.7-17.3
		c1.5-6.8,5.2-12.5,11.1-17.4C774.2,179.6,780.6,177.2,787.6,177.3L787.6,177.3z"/>
	<path class="st3" d="M860.5,184.5c3.9,4.8,5.1,10.6,3.7,17.4c-1.5,6.8-5.2,12.6-11.1,17.3c-5.9,4.8-12.4,7.1-19.3,7.1
		c-6.9,0-12.4-2.4-16.2-7.1c-3.9-4.8-5.1-10.6-3.7-17.3c1.5-6.8,5.2-12.5,11.1-17.4c6-4.8,12.4-7.2,19.3-7.2
		S856.6,179.6,860.5,184.5z M830.6,191.4c-3.6,2.9-5.8,6.4-6.7,10.4c-0.9,4.1-0.1,7.5,2.2,10.4c2.3,2.9,5.6,4.3,9.8,4.3
		c4.1,0,8-1.4,11.5-4.3c3.6-2.9,5.9-6.3,6.7-10.4c0.9-4.1,0.1-7.5-2.2-10.4c-2.3-2.9-5.6-4.3-9.7-4.3
		C837.9,187,834.1,188.5,830.6,191.4z"/>
</g>
<g id="XMLID_112_">
	<path class="st9" d="M45.2,201.6l2.4,14.6l8-13.8l1.9,13.8l8.8-14.6h3.6l-14.4,23.8l-1.9-14.3l-8,14.2l-3.9-23.7H45.2z"/>
	<path class="st9" d="M74.7,201.6l2.4,14.6l8-13.8l1.9,13.8l8.8-14.6h3.6L85,225.4l-1.9-14.3l-8,14.2l-3.9-23.7H74.7z"/>
	<path class="st9" d="M104.2,201.6l2.4,14.6l8-13.8l1.9,13.8l8.8-14.6h3.6l-14.4,23.8l-1.9-14.3l-8,14.2l-3.9-23.7H104.2z"/>
	<path class="st9" d="M122.7,221.8c0.6-0.5,1.3-0.7,2-0.7s1.3,0.3,1.7,0.7s0.6,1.1,0.4,1.8s-0.5,1.3-1.2,1.8c-0.6,0.5-1.3,0.7-2,0.7
		s-1.3-0.2-1.7-0.7s-0.5-1.1-0.4-1.8C121.7,222.9,122.1,222.3,122.7,221.8z"/>
	<path class="st9" d="M149.1,225h-3.5l-1-3.9h-5.2h-5.2l-2.7,3.9H128l15.7-23.6L149.1,225z M139.9,218.7h4c-0.4-1.5-0.7-3-1-4.7
		c-0.3-1.7-0.6-3.3-0.9-4.7c-1,1.5-2,3.1-3.1,4.7s-2.1,3.3-3,4.7H139.9z"/>
	<path class="st9" d="M169.1,217.5l0.6-2.8l2.9-13.1h3.3l-5.2,23.8l-12.5-16.3l-0.4,1.8l-3.1,14.1h-3.3l5.2-23.7L169.1,217.5z"/>
	<path class="st9" d="M189,201.6h5.5l-0.7,3.1h-5.5h-1l-0.2,1l-4.2,19.3h-3.3l4.2-19.3l0.2-1h-1h-5.5l0.7-3.1h5.5H189z"/>
	<path class="st9" d="M207.3,225h-3.5l-1-3.9h-5.2h-5.2l-2.7,3.9h-3.5l15.7-23.6L207.3,225z M198.1,218.7h4c-0.4-1.5-0.7-3-1-4.7
		c-0.3-1.7-0.6-3.3-0.9-4.7c-1,1.5-2,3.1-3.1,4.7s-2.1,3.3-3,4.7H198.1z"/>
	<path class="st9" d="M214.7,201.6h7.7c1.2,0,2.3,0.2,3.3,0.6c0.9,0.4,1.7,0.9,2.4,1.7c0.7,0.8,1.1,1.6,1.2,2.3
		c0.2,0.8,0.2,1.7-0.1,2.8l-0.1,0.7c-0.2,0.8-0.5,1.6-0.9,2.2c-0.4,0.6-0.9,1.3-1.6,2c-0.6,0.6-1,1-1.5,1.2c-0.4,0.3-1,0.5-1.7,0.8
		l-1.2,0.4l0.4,1l3.5,7.7h-4.1l-3.8-8.2h-3.6l-1.8,8.2h-3.3L214.7,201.6z M220.2,213.7L220.2,213.7c0.7,0,1.3-0.1,1.8-0.3
		c0.5-0.2,1-0.5,1.6-1c0.6-0.5,1.1-1,1.4-1.5c0.3-0.5,0.6-1.1,0.7-1.7c0.1-0.6,0.2-1.2,0.1-1.7c-0.1-0.4-0.3-0.9-0.7-1.4v0
		c-0.4-0.4-0.9-0.7-1.6-1c-0.6-0.2-1.4-0.3-2.2-0.3h-3h-1l-0.2,1l-1.5,7l-0.2,1h1l1.2,0h0.8H220.2z"/>
	<path class="st9" d="M229.9,218.4l2-8.9l1.7-7.9h4.3h4c1.2,0,2.2,0.2,3.1,0.6c0.9,0.4,1.7,1,2.3,1.7c0.6,0.8,1.1,1.6,1.3,2.5
		c0.2,0.9,0.2,1.9-0.1,3c-0.2,1.1-0.7,2.1-1.3,3c-0.6,0.9-1.4,1.8-2.4,2.5c-1,0.8-2,1.4-3.1,1.7c-1.1,0.4-2.2,0.6-3.3,0.6h-4h-1
		l-0.2,1l-1.5,6.6h-3.3L229.9,218.4z M234.1,214.3h1l4,0c0.7,0,1.4-0.1,2-0.3c0.6-0.2,1.2-0.6,1.9-1.1c0.6-0.5,1.1-1,1.4-1.6
		c0.4-0.5,0.6-1.1,0.8-1.8c0.1-0.7,0.2-1.3,0-1.8c-0.1-0.5-0.4-1-0.7-1.6c-0.4-0.5-0.9-0.8-1.4-1.1c-0.5-0.2-1.2-0.4-1.9-0.4h-4h-1
		l-0.2,1l-0.8,3.8l-0.8,3.8L234.1,214.3z"/>
	<path class="st9" d="M271.9,201.6l-2,9.2l-1.1,5.1c-0.3,1.3-0.8,2.5-1.5,3.6c-0.7,1.1-1.7,2.1-2.8,3v0c-1.2,0.9-2.4,1.6-3.6,2
		c-1.2,0.5-2.5,0.7-3.9,0.7c-1.4,0-2.6-0.2-3.6-0.7c-1.1-0.5-2-1.1-2.7-2.1c-0.8-0.9-1.3-1.9-1.5-3c-0.2-1.1-0.2-2.3,0.1-3.6
		l1.1-5.1l2-9.2h3.3l-2,9.2l-1,4.6l-0.1,0.5c-0.2,0.8-0.2,1.6,0,2.3c0.1,0.7,0.5,1.4,1,2c0.5,0.6,1.1,1,1.8,1.3
		c0.7,0.3,1.5,0.5,2.3,0.5c0.8,0,1.7-0.2,2.5-0.5c0.8-0.3,1.6-0.8,2.3-1.3c0.7-0.6,1.4-1.2,1.9-2c0.5-0.7,0.8-1.5,1-2.3l0.1-0.5
		l1-4.6l2-9.2H271.9z"/>
	<path class="st9" d="M278.4,201.6l-4.2,19.3l-0.2,1h1h9.7L284,225h-14l5.1-23.4H278.4z"/>
	<path class="st9" d="M306.4,225h-3.5l-1-3.9h-5.2h-5.2l-2.7,3.9h-3.5l15.7-23.6L306.4,225z M297.2,218.7h4c-0.4-1.5-0.7-3-1-4.7
		c-0.3-1.7-0.6-3.3-0.9-4.7c-1,1.5-2,3.1-3.1,4.7s-2.1,3.3-3,4.7H297.2z"/>
	<path class="st9" d="M331.3,201.6l-2,9.2l-1.1,5.1c-0.3,1.3-0.8,2.5-1.5,3.6c-0.7,1.1-1.7,2.1-2.8,3v0c-1.2,0.9-2.4,1.6-3.6,2
		c-1.2,0.5-2.5,0.7-3.9,0.7c-1.4,0-2.6-0.2-3.6-0.7c-1.1-0.5-2-1.1-2.7-2.1c-0.8-0.9-1.3-1.9-1.5-3c-0.2-1.1-0.2-2.3,0.1-3.6
		l1.1-5.1l2-9.2h3.3l-2,9.2l-1,4.6L312,216c-0.2,0.8-0.2,1.6,0,2.3c0.1,0.7,0.5,1.4,1,2c0.5,0.6,1.1,1,1.8,1.3
		c0.7,0.3,1.5,0.5,2.3,0.5c0.8,0,1.7-0.2,2.5-0.5c0.8-0.3,1.6-0.8,2.3-1.3c0.7-0.6,1.4-1.2,1.9-2c0.5-0.7,0.8-1.5,1-2.3l0.1-0.5
		l1-4.6l2-9.2H331.3z"/>
	<path class="st9" d="M346,201.5c0.9,0,1.7,0.1,2.5,0.2c0.8,0.2,1.5,0.4,2.2,0.7c0.7,0.3,1.3,0.7,1.9,1.1c0.3,0.3,0.7,0.5,0.9,0.8
		l-2.9,2.2c-0.6-0.5-1.2-0.9-1.9-1.3c-1-0.4-2.1-0.6-3.3-0.6s-2.5,0.2-3.7,0.6c-1.2,0.5-2.3,1.1-3.4,1.9c-1.1,0.8-1.9,1.8-2.6,2.8h0
		c-0.7,1-1.1,2.1-1.4,3.3c-0.3,1.2-0.3,2.3-0.1,3.3c0.2,1,0.7,2,1.4,2.8c0.7,0.8,1.5,1.5,2.5,1.9s2.1,0.6,3.4,0.6
		c1.2,0,2.5-0.2,3.7-0.6c0.9-0.3,1.7-0.7,2.5-1.3l1.8,2.2c-0.4,0.3-0.8,0.5-1.3,0.8c-0.8,0.5-1.6,0.8-2.4,1.1
		c-0.9,0.3-1.7,0.5-2.5,0.7c-0.8,0.2-1.7,0.2-2.6,0.2c-1.7,0-3.2-0.3-4.6-0.9c-1.4-0.6-2.5-1.4-3.4-2.6c-1-1.2-1.6-2.5-1.9-3.9
		c-0.3-1.4-0.3-2.9,0.1-4.5c0.4-1.7,1-3.2,1.9-4.5c0.9-1.4,2.1-2.7,3.6-3.9c1.5-1.2,3-2,4.6-2.6c1.2-0.4,2.4-0.7,3.6-0.8H346z"/>
	<path class="st9" d="M371.4,225h-3.5l-1-3.9h-5.2h-5.2l-2.7,3.9h-3.5l15.7-23.6L371.4,225z M362.2,218.7h4c-0.4-1.5-0.7-3-1-4.7
		c-0.3-1.7-0.6-3.3-0.9-4.7c-1,1.5-2,3.1-3.1,4.7s-2.1,3.3-3,4.7H362.2z"/>
	<path class="st9" d="M378.7,201.6h7.7c1.2,0,2.3,0.2,3.3,0.6c0.9,0.4,1.7,0.9,2.4,1.7c0.7,0.8,1.1,1.6,1.2,2.3
		c0.2,0.8,0.2,1.7-0.1,2.8l-0.1,0.7c-0.2,0.8-0.5,1.6-0.9,2.2c-0.4,0.6-0.9,1.3-1.6,2c-0.6,0.6-1,1-1.5,1.2c-0.4,0.3-1,0.5-1.7,0.8
		l-1.2,0.4l0.4,1l3.5,7.7h-4.1l-3.8-8.2h-3.6l-1.8,8.2h-3.3L378.7,201.6z M384.3,213.7L384.3,213.7c0.7,0,1.3-0.1,1.8-0.3
		c0.5-0.2,1-0.5,1.6-1c0.6-0.5,1.1-1,1.4-1.5c0.3-0.5,0.6-1.1,0.7-1.7c0.1-0.6,0.2-1.2,0.1-1.7c-0.1-0.4-0.3-0.9-0.7-1.4v0
		c-0.4-0.4-0.9-0.7-1.6-1c-0.6-0.2-1.4-0.3-2.2-0.3h-3h-1l-0.2,1l-1.5,7l-0.2,1h1l1.2,0h0.8H384.3z"/>
	<path class="st9" d="M408.4,201.5h0.7c0.9,0,1.7,0.1,2.5,0.2c0.8,0.2,1.5,0.4,2.2,0.7c0.7,0.3,1.3,0.7,1.9,1.1
		c0.3,0.2,0.6,0.5,0.9,0.8l-2.8,2.2c-0.6-0.5-1.2-0.9-1.9-1.3c-1-0.4-2.1-0.6-3.4-0.6c-1.3,0-2.5,0.2-3.6,0.6
		c-1.2,0.4-2.3,1.1-3.4,1.9c-1.1,0.9-2,1.8-2.6,2.8c-0.7,1.1-1.2,2.2-1.4,3.3c-0.3,1.2-0.3,2.3-0.1,3.3c0.2,1,0.7,1.9,1.4,2.8
		c0.7,0.9,1.5,1.5,2.5,1.9c1,0.4,2.1,0.6,3.4,0.6c1,0,1.9-0.1,2.9-0.4c0.9-0.3,1.8-0.7,2.8-1.2c0.7-0.5,1.4-1,2-1.5
		c0.6-0.6,1.2-1.2,1.7-1.8l1-1.4h-1.6h-6.6l0.6-2.9h0.3h11.3c-0.3,1.7-0.9,3.2-1.7,4.6c-1,1.7-2.3,3.1-3.9,4.4c-1.5,1.2-3,2-4.6,2.6
		c-1.6,0.6-3.2,0.9-5,0.9c-1.8,0-3.3-0.3-4.6-0.9c-1.4-0.6-2.5-1.4-3.5-2.6c-1-1.2-1.6-2.5-1.9-3.8c-0.3-1.4-0.2-2.9,0.1-4.6
		s1-3.2,1.9-4.6c0.9-1.4,2.1-2.6,3.6-3.9c1.5-1.2,3-2,4.6-2.6C405.5,201.8,406.9,201.5,408.4,201.5L408.4,201.5z"/>
	<path class="st9" d="M440,202.3c1.3,0.6,2.5,1.5,3.5,2.6c1,1.2,1.6,2.5,1.9,3.8c0.3,1.4,0.3,2.9-0.1,4.6c-0.4,1.6-1,3.2-1.9,4.6
		c-0.9,1.4-2.1,2.7-3.6,3.8c-1.5,1.1-3,2-4.6,2.6s-3.3,0.9-5,0.9c-1.7,0-3.3-0.3-4.6-0.9c-1.4-0.6-2.5-1.4-3.4-2.6
		c-1-1.2-1.6-2.5-1.9-3.9c-0.3-1.4-0.3-2.9,0.1-4.5c0.4-1.7,1-3.2,1.9-4.5c0.9-1.4,2.1-2.7,3.6-3.9c1.5-1.2,3-2,4.6-2.6
		c1.6-0.6,3.2-0.9,5-0.9C437.1,201.5,438.6,201.7,440,202.3z M431,205.3c-1.2,0.5-2.3,1.1-3.4,1.9c-1.1,0.9-2,1.8-2.6,2.8
		c-0.7,1-1.1,2.1-1.4,3.3c-0.3,1.2-0.3,2.3-0.1,3.3c0.2,1,0.7,1.9,1.4,2.8c0.7,0.8,1.5,1.5,2.5,1.9s2.1,0.6,3.4,0.6
		c1.2,0,2.4-0.2,3.6-0.6s2.3-1.1,3.4-1.9c1.1-0.9,2-1.8,2.6-2.8c0.7-1,1.2-2.1,1.4-3.3c0.3-1.2,0.3-2.3,0-3.3
		c-0.2-1-0.7-1.9-1.4-2.8c-0.7-0.8-1.6-1.5-2.6-1.9c-1-0.4-2.1-0.6-3.3-0.6C433.4,204.6,432.2,204.8,431,205.3z"/>
	<path class="st9" d="M445.6,221.8c0.6-0.5,1.3-0.7,2-0.7s1.3,0.3,1.7,0.7s0.6,1.1,0.4,1.8s-0.5,1.3-1.2,1.8c-0.6,0.5-1.3,0.7-2,0.7
		s-1.3-0.2-1.7-0.7s-0.5-1.1-0.4-1.8C444.6,222.9,445,222.3,445.6,221.8z"/>
	<path class="st9" d="M468.5,201.5c0.9,0,1.7,0.1,2.5,0.2c0.8,0.2,1.5,0.4,2.2,0.7c0.7,0.3,1.3,0.7,1.9,1.1c0.3,0.3,0.7,0.5,0.9,0.8
		l-2.9,2.2c-0.6-0.5-1.2-0.9-1.9-1.3c-1-0.4-2.1-0.6-3.3-0.6s-2.5,0.2-3.7,0.6c-1.2,0.5-2.3,1.1-3.4,1.9c-1.1,0.8-1.9,1.8-2.6,2.8h0
		c-0.7,1-1.1,2.1-1.4,3.3c-0.3,1.2-0.3,2.3-0.1,3.3c0.2,1,0.7,2,1.4,2.8c0.7,0.8,1.5,1.5,2.5,1.9s2.1,0.6,3.4,0.6
		c1.2,0,2.5-0.2,3.7-0.6c0.9-0.3,1.7-0.7,2.5-1.3l1.8,2.2c-0.4,0.3-0.8,0.5-1.3,0.8c-0.8,0.5-1.6,0.8-2.4,1.1
		c-0.9,0.3-1.7,0.5-2.5,0.7c-0.8,0.2-1.7,0.2-2.6,0.2c-1.7,0-3.2-0.3-4.6-0.9c-1.4-0.6-2.5-1.4-3.4-2.6c-1-1.2-1.6-2.5-1.9-3.9
		c-0.3-1.4-0.3-2.9,0.1-4.5c0.4-1.7,1-3.2,1.9-4.5c0.9-1.4,2.1-2.7,3.6-3.9c1.5-1.2,3-2,4.6-2.6c1.2-0.4,2.4-0.7,3.6-0.8H468.5z"/>
	<path class="st9" d="M492.3,202.3c1.3,0.6,2.5,1.5,3.5,2.6c1,1.2,1.6,2.5,1.9,3.8c0.3,1.4,0.3,2.9-0.1,4.6c-0.4,1.6-1,3.2-1.9,4.6
		c-0.9,1.4-2.1,2.7-3.6,3.8c-1.5,1.1-3,2-4.6,2.6s-3.3,0.9-5,0.9c-1.7,0-3.3-0.3-4.6-0.9c-1.4-0.6-2.5-1.4-3.4-2.6
		c-1-1.2-1.6-2.5-1.9-3.9c-0.3-1.4-0.3-2.9,0.1-4.5c0.4-1.7,1-3.2,1.9-4.5c0.9-1.4,2.1-2.7,3.6-3.9c1.5-1.2,3-2,4.6-2.6
		c1.6-0.6,3.2-0.9,5-0.9C489.5,201.5,491,201.7,492.3,202.3z M483.4,205.3c-1.2,0.5-2.3,1.1-3.4,1.9c-1.1,0.9-2,1.8-2.6,2.8
		c-0.7,1-1.1,2.1-1.4,3.3c-0.3,1.2-0.3,2.3-0.1,3.3c0.2,1,0.7,1.9,1.4,2.8c0.7,0.8,1.5,1.5,2.5,1.9s2.1,0.6,3.4,0.6
		c1.2,0,2.4-0.2,3.6-0.6s2.3-1.1,3.4-1.9c1.1-0.9,2-1.8,2.6-2.8c0.7-1,1.2-2.1,1.4-3.3c0.3-1.2,0.3-2.3,0-3.3
		c-0.2-1-0.7-1.9-1.4-2.8c-0.7-0.8-1.6-1.5-2.6-1.9c-1-0.4-2.1-0.6-3.3-0.6C485.8,204.6,484.6,204.8,483.4,205.3z"/>
	<path class="st9" d="M510.7,218.9l15.9-17.5l-5.2,23.6H518l2.9-13.3l-11.5,12.7l-5.9-12.7l-2.9,13.3h-3.3l5.2-23.6L510.7,218.9z"/>
</g>
<path id="XMLID_110_" class="st10" d="M-881,68.2l-6.1,31.5l-1.8,9.1l-1.7,8.7l-12.6-18.2l-21.8-31.6l-6,30.9l-8.3,42.6h9.1
	l8.2-42.3l0.3-1.5l1.1-5.6l4.9,7.2l29.4,43.3l8.2-42.3l6.2-31.7H-881z"/>
<path id="XMLID_108_" class="st10" d="M-865.7,68.3l-1.9,9.6h18l-0.6,3l-3.8,19.5l-7.9,40.4h9l7.8-40.1l3.9-19.8l0.6-3h18l1.9-9.6
	H-865.7z"/>
<path id="XMLID_104_" class="st10" d="M-793.3,102.1l-6.9-34.4l-19.9,33.7l-23.3,39.5h9.7l7.3-12h28.6l2.7,12h9.7L-793.3,102.1z
	 M-821.6,121.1c2.7-4.5,5.5-9.5,8.4-14.7c0.9-1.6,1.8-3.2,2.7-4.8c2-3.5,3.9-6.8,5.8-9.9c0.6,3.2,1.3,6.6,1.8,10.1
	c0.2,1.5,0.5,3,0.7,4.6c0.8,5.2,1.7,10.2,2.7,14.7H-821.6z"/>
<path id="XMLID_100_" class="st10" d="M-724.9,82.6c-0.5-2.3-1.6-4.7-3.4-7.2c-1.8-2.3-4-4-6.6-5.2c-2.7-1.3-5.8-1.9-9.2-1.9h-21.1
	l-6.6,34.3l-7.4,38.3h9.1l4.9-25.4h10l10.4,25.4h11.3l-9.7-23.8l-1.2-3.1l3.4-1.4c2-0.7,3.5-1.5,4.6-2.3c1.2-0.8,2.6-2.1,4.1-3.9
	c0.8-0.9,1.5-1.8,2.1-2.7c0.9-1.2,1.7-2.4,2.3-3.6c1.1-2.1,1.9-4.4,2.4-6.9l0.4-2.1C-724.5,87.9-724.4,85-724.9,82.6z M-744.9,104.8
	c-1.5,0.6-3.2,1-5.1,1v-0.1h-7.1l-3.4,0h-2.8l0.6-2.8l0-0.2l4.2-21.7l0.6-3.1h11.1c2.2,0,4.3,0.3,6,1c1.9,0.7,3.3,1.7,4.3,3v0
	c1.1,1.6,1.7,3,2,4.4c0.2,1.6,0.2,3.4-0.2,5.3c-0.4,2.1-1,3.9-1.9,5.4c-0.9,1.7-2.2,3.2-3.8,4.7c-0.7,0.6-1.4,1.2-2,1.6
	C-743.4,104-744.2,104.5-744.9,104.8z"/>
<path id="XMLID_97_" class="st4" d="M-453.7,146.5c-2.2-0.7-5.1-1.6-8.5-2.7c-2.4-0.8-5.1-1.6-8-2.6c-5.5-1.7-11.9-3.7-19.1-5.7h0
	c-2.2-0.6-4.4-1.2-6.8-1.9c-1.6-0.4-3.3-0.9-5-1.3c-8.8-2.3-18.5-4.5-29.1-6.4c-4.5-0.8-9.2-1.6-14.1-2.3
	c-8.6-1.2-17.6-2.3-27.1-2.9c-4.4-0.3-8.9-0.6-13.4-0.8c-3-0.1-6-0.2-9-0.3c-3-0.1-6-0.1-9-0.1c-3.1,0-6.1,0-9.2,0.1
	c-1.9,0-3.8,0.1-5.7,0.1c-9.5,0.3-19.2,0.8-29,1.6c-3.1,0.2-6.2,0.5-9.4,0.8c-14.6,1.3-29.5,3.2-44.3,5.3c-3.1,0.5-6.2,0.9-9.3,1.4
	c-2.7,0.4-5.4,0.8-8.1,1.3c-16.9,2.8-33.8,6.1-50.2,9.3c-16.2,3.2-32.4,5.1-48.2,6.1c-31.5,1.9-60.9-0.5-85.8-4.3
	c-10.9-1.7-20.9-3.7-29.9-5.8c-5.3-4.4-10.1-11.8-12.7-23.8l-8.8-43.9l-40.8,69.1h0.5l-0.1,0.1l-0.3,0.3c0,0,30.3,7.8,53,11.9
	c10.9,2.3,23.3,4.6,37.1,6.3c25.8,3.2,56.3,4.7,88.6,1.7c16.2-1.5,32.8-4,49.4-7.8c16.4-3.8,52.8-11.4,54.5-11.8
	c3.1-0.6,40.6-7,56-8.9c3.5-0.4,6.9-0.8,10.3-1.2c9.3-1,18.6-1.8,27.6-2.3c0.9-0.1,1.9-0.1,2.8-0.2c3.4-0.2,6.8-0.3,10.1-0.4
	c3.3-0.1,6.6-0.2,9.9-0.2c3.1,0,6.1-0.1,9.1,0c4.7,0,9.4,0.2,14,0.3c8.9,0.3,17.4,1,25.6,1.9c5.3,0.6,10.4,1.3,15.4,2
	c10.9,1.6,20.9,3.6,29.9,5.7c1.4,0.3,2.8,0.7,4.2,1c2.9,0.7,5.7,1.4,8.4,2.1c6.6,1.7,12.5,3.3,17.7,4.7c2.7,0.8,5.2,1.5,7.4,2.1
	c3.7,1.1,6.8,2,9.2,2.6c3.1,0.9,5.1,1.5,5.7,1.7C-448.7,148.2-450.6,147.5-453.7,146.5z M-963.2,118.1L-963.2,118.1l-17.4,11.5
	c2.5-4.3,12.1-20.5,14.9-25.4c2.7-4.8,5.3-9.4,7.8-13.7c0.1-0.1,0.1-0.2,0.2-0.2c0.9,4.3,1.6,9,2.4,13.9c0.8,4.9,4,22.5,4.9,26.8
	L-963.2,118.1z"/>
<path id="XMLID_96_" class="st5" d="M-965.7,104.3c-2.7,4.9-12.3,21.1-14.9,25.4l17.3-11.5l-5,25.2l-25.5-6.5l-0.4-0.1l40.8-69.1
	l-4.5,23C-960.4,94.9-963.1,99.4-965.7,104.3z"/>
<path id="XMLID_93_" class="st10" d="M-664.3,84.3c-0.6-3.1-1.9-5.9-3.8-8.4c-1.9-2.6-4.2-4.5-6.8-5.8c-2.6-1.3-5.6-1.9-9-1.9h-24.3
	l-5,26.1l-1.3,6.5l-4.5,22.8l-2.8,14.5l-0.2,1.1l-1.2,6.2h9.6l0.9-4.6l0.9-4.6l2.5-12.7l0.6-3.2h14.7c3.3,0,6.5-0.6,9.7-1.9
	c3.1-1.3,6.2-3.2,9.1-5.8c2.9-2.6,5.2-5.4,7-8.4c0.4-0.8,0.8-1.5,1.2-2.4c1.1-2.4,1.9-4.9,2.5-7.7
	C-663.8,90.8-663.7,87.4-664.3,84.3z M-674.1,94.4c-0.5,2.3-1.2,4.3-2.3,6.1c-0.3,0.5-0.6,0.9-0.9,1.4c-1,1.4-2.1,2.6-3.4,3.8
	c-1.8,1.6-3.6,2.8-5.5,3.5c-1.9,0.8-3.8,1.1-5.9,1.1l-11.7,0h-3l0.7-3.2l1.1-5.9l1.3-6.8l2.5-12.6l0.6-3.2h14.7
	c2.1,0,3.9,0.4,5.5,1.2c1.5,0.8,3,2,4,3.5c1.1,1.7,1.9,3.4,2.2,5.1C-673.7,90.2-673.7,92.1-674.1,94.4z"/>
<path id="XMLID_92_" class="st10" d="M-595.8,68.2l-5.9,30.6l-1,5l-2.4,12c-0.2,1.1-2,7-2.7,8.6c-0.5,1.1-1,2.2-1.6,3.2
	c-2.1,3.6-4.9,6.9-8.2,9.9v0c-3.5,3.1-7.1,5.3-10.6,6.7c-3.6,1.5-7.3,2.2-11.3,2.2c-4,0-7.5-0.7-10.6-2.2c-3.2-1.5-5.8-3.8-7.9-6.8
	c-2-2.6-3.4-5.6-4.1-8.7c-0.1-0.4-0.2-0.8-0.3-1.2c-0.4-1.8-0.5-3.8-0.4-5.8c0-1.9,0.3-3.9,0.7-6l2.6-13.5l0.7-3.5l5.9-30.6h9.7
	l-5.9,30.6l-0.7,3.7l-2.2,11.4l-0.3,1.8c-0.3,1.8-0.5,3.5-0.4,5.2c0,0.8,0.1,1.7,0.3,2.5c0.3,1.4,0.7,2.7,1.4,4
	c0.4,0.8,0.9,1.7,1.5,2.5c1.4,2,3.1,3.4,5.2,4.4c2,1,4.3,1.5,6.8,1.5c2.5,0,5-0.5,7.5-1.5c2.5-1,4.7-2.5,6.9-4.4
	c1.7-1.5,3.3-3.2,4.6-5.1c1.6-2.3,3.5-7.9,3.8-9.1l0.4-1.8l2.1-10.4l0.9-4.7l5.9-30.6H-595.8z"/>
<polygon id="XMLID_91_" class="st10" points="-558.5,135.4 -560.5,145.6 -601.4,145.6 -597.6,125.7 -597.3,124.1 -593.4,104 
	-586.4,68.2 -576.8,68.2 -583.8,104.2 -587.6,124 -589.2,132.1 -589.8,135.4 "/>
<path id="XMLID_87_" class="st10" d="M-497.1,134.6l-0.4-2l-5.3-26.3l-7.8-38.9l-22.5,38.1l-10.5,17.8l-1.9,3.1l-11.3,19.1h10.3
	l7.8-12.8h30.5l2.9,12.8h10.3L-497.1,134.6z M-533.4,124.5c2.9-4.8,5.8-10.1,8.9-15.6c0.6-1,1.1-2,1.7-3c2.5-4.5,4.9-8.7,7.3-12.7
	c0.8,4.1,1.6,8.4,2.3,13c0.1,0.9,0.3,1.8,0.4,2.8c0.9,5.6,1.8,10.8,2.9,15.6H-533.4z"/>
<path id="XMLID_85_" class="st10" d="M-431.6,68.2l-5.9,30.6l-1.8,9.2l-1.2,5.9l-0.4,1.8c-0.5,2.7-1.4,5.2-2.9,7.7
	c-1.5,2.6-3.4,4.7-5.5,6.5c-2.2,1.9-4.4,3.4-6.9,4.4c-2.5,1-5,1.5-7.4,1.5c-2.6,0-4.9-0.5-6.9-1.5c-2.1-1-3.8-2.4-5.2-4.4
	c-1.4-2-2.5-4.2-2.9-6.5c-0.5-2.5-0.4-5,0.1-7.7l0.3-1.8l1.4-6.9l1.6-8.2l5.9-30.6h-9.7l-5.9,30.6l-1.5,8l-1.7,9
	c-0.8,4.3-0.9,8.2-0.3,11.7c0.6,3.1,1.7,5.9,3.4,8.5h0c0.3,0.5,0.6,0.9,0.9,1.4c0.1,0.2,0.2,0.3,0.3,0.5c2.1,2.8,4.5,4.9,7.6,6.4
	c3,1.4,6.6,2.2,10.6,2.2c3,0,5.9-0.4,8.6-1.3c0.3-0.1,0.5-0.2,0.8-0.3c0.6-0.2,1.2-0.4,1.8-0.7c3.5-1.4,7-3.6,10.6-6.7v0
	c3.3-3,6.1-6.3,8.2-9.9c2-3.6,3.5-7.5,4.3-11.7l1.5-7.5l1.9-9.5l5.9-30.6H-431.6z"/>
<polygon id="XMLID_84_" class="st6" points="-903.1,99.2 -915.7,98.9 -920.6,91.7 -921.7,97.3 -921.9,98.7 -930.9,98.5 -924.9,67.6 
	"/>
<polygon id="XMLID_83_" class="st6" points="-881,68.2 -871.9,68.2 -878.1,99.9 -887.1,99.6 "/>
<polygon id="XMLID_82_" class="st6" points="-820.7,68.3 -822.5,77.9 -840.6,77.9 -841.1,81 -845,100.7 -854,100.5 -850.2,81 
	-849.6,77.9 -867.6,77.9 -865.7,68.3 "/>
<path id="XMLID_81_" class="st6" d="M-793.3,102.1l-9.7-0.2c-0.6-3.5-1.2-6.9-1.8-10.1c-1.9,3.1-3.8,6.5-5.8,9.9l-9.5-0.3l19.9-33.7
	L-793.3,102.1z"/>
<path id="XMLID_80_" class="st6" d="M-725.1,91.2l-0.4,2.1c-0.5,2.5-1.3,4.8-2.4,6.9c-0.6,1.2-1.4,2.3-2.3,3.6l-12.4-0.3
	c0.7-0.5,1.3-1,2-1.6c1.7-1.5,2.9-3,3.8-4.7c0.9-1.5,1.5-3.3,1.9-5.4c0.4-1.9,0.4-3.7,0.2-5.3c-0.3-1.4-0.9-2.8-2-4.4v0
	c-1-1.3-2.4-2.3-4.3-3c-1.8-0.7-3.8-1-6-1H-758l-0.6,3.1l-4.2,21.7l0,0.2l-9-0.2l6.6-34.3h21.1c3.4,0,6.4,0.6,9.2,1.9
	c2.6,1.2,4.8,2.9,6.6,5.2c1.8,2.5,2.9,4.9,3.4,7.2C-724.4,85-724.5,87.9-725.1,91.2z"/>
<path id="XMLID_79_" class="st6" d="M-664.5,94.4c-0.5,2.8-1.4,5.3-2.5,7.7l-10.3-0.3c0.3-0.4,0.6-0.9,0.9-1.3
	c1.1-1.8,1.8-3.8,2.3-6.1c0.4-2.2,0.5-4.2,0.1-6c-0.3-1.7-1-3.4-2.2-5.1c-1.1-1.5-2.5-2.8-4-3.5c-1.6-0.8-3.4-1.2-5.5-1.2h-14.7
	l-0.6,3.2l-2.5,12.7l-1.3,6.8l-9.6-0.2l1.3-6.5l5-26.1h24.3c3.4,0,6.4,0.6,9,1.9c2.6,1.2,4.8,3.2,6.8,5.8c1.9,2.6,3.2,5.4,3.8,8.4
	C-663.7,87.4-663.8,90.8-664.5,94.4z"/>
<polygon id="XMLID_78_" class="st6" points="-652.9,68.2 -643.1,68.2 -649.1,98.8 -649.8,102.5 -659.4,102.3 -658.8,98.8 "/>
<polygon id="XMLID_77_" class="st6" points="-605.5,68.2 -595.8,68.2 -601.7,98.8 -602.7,103.7 -612.4,103.5 -611.5,98.8 "/>
<polygon id="XMLID_76_" class="st6" points="-586.4,68.2 -576.8,68.2 -583.8,104.2 -593.4,104 "/>
<path id="XMLID_75_" class="st6" d="M-502.8,106.3l-10.5-0.3c-0.7-4.5-1.5-8.9-2.3-13c-2.4,4-4.8,8.2-7.3,12.7l-10.2-0.3l22.5-38.1
	L-502.8,106.3z"/>
<polygon id="XMLID_74_" class="st6" points="-478.9,68.2 -469.2,68.2 -475.1,98.8 -476.7,107 -486.4,106.8 -484.8,98.8 "/>
<polygon id="XMLID_52_" class="st6" points="-421.9,68.2 -427.8,98.8 -429.7,108.2 -439.3,108 -437.5,98.8 -431.6,68.2 "/>
<text id="XMLID_51_" transform="matrix(1.101 0 0 1 -611.4058 189.3054)" class="st10" style="font-family:'LemonMilkitalic'; font-size:41.5686px;">cargo</text>
<text id="XMLID_50_" transform="matrix(1.13 0 0 1 -998.4295 189.3054)" class="st10" style="font-family:'LemonMilklightitalic'; font-size:21.7673px;">www.antarpulaucargo.com</text>
<text id="XMLID_3_" transform="matrix(1 0 0 1 -965.5044 447)" style="font-family:'LemonMilklightitalic'; font-size:80px;">ANTAR </text>
<text id="XMLID_5_" transform="matrix(1 0 0 1 -734.4329 447)" style="font-family:'LemonMilkitalic'; font-size:80px;">PULAU</text>
<path id="XMLID_6_" class="st11" d="M-944.6,429.2c0,0,20.9,32.8,113.7,32.8c75.3,0,142.7-38.2,196-39.6
	c48.5-1.3,101.5,4.6,165.7,39.6"/>
<path id="XMLID_53_" d="M-873.3,535.1l1.3-6.9l6.3-32.5h7.2l-11.5,59.3l-27.4-40.4l-0.9,4.5L-905,554h-7.3l11.4-58.8L-873.3,535.1z"
	/>
<path id="XMLID_59_" d="M-829.5,495.8h12.1l-1.5,7.7H-831h-2.3l-0.5,2.4l-9.3,48h-7.2l9.3-48l0.5-2.4h-2.3H-855l1.5-7.7h12.1H-829.5
	z"/>
<path id="XMLID_61_" d="M-789.2,553.9h-7.7l-2.1-9.6h-11.5H-822l-5.9,9.6h-7.7l34.6-58.6L-789.2,553.9z M-809.3,538.1h8.9
	c-0.8-3.6-1.5-7.6-2.1-11.8s-1.3-8.1-2.1-11.8c-2.2,3.7-4.5,7.6-6.8,11.8s-4.5,8.1-6.7,11.8H-809.3z"/>
<path id="XMLID_66_" d="M-772.9,495.8h16.9c2.7,0,5.2,0.5,7.3,1.5c2.1,1,3.8,2.3,5.3,4.2c1.4,2,2.3,3.9,2.7,5.7
	c0.4,1.9,0.4,4.2-0.2,6.8l-0.3,1.6c-0.4,2-1,3.9-1.9,5.5c-0.9,1.6-2,3.3-3.5,5c-1.2,1.4-2.3,2.4-3.3,3.1c-0.9,0.7-2.1,1.3-3.7,1.9
	l-2.7,1.1l1,2.5l7.7,19h-9l-8.4-20.4h-8l-3.9,20.4h-7.3L-772.9,495.8z M-760.8,525.7L-760.8,525.7c1.5,0,2.9-0.2,4.1-0.7
	c1.1-0.5,2.3-1.3,3.6-2.5c1.3-1.2,2.3-2.4,3-3.8c0.7-1.2,1.2-2.7,1.5-4.3c0.3-1.5,0.4-2.9,0.2-4.2c-0.2-1.1-0.7-2.3-1.6-3.5v0
	c-0.8-1.1-1.9-1.8-3.4-2.4c-1.4-0.5-3-0.8-4.8-0.8h-6.6h-2.3l-0.5,2.5l-3.4,17.4l-0.5,2.4h2.3l2.7,0h1.8H-760.8z"/>
<g id="XMLID_8_">
	<path id="XMLID_18_" d="M-727.2,537.4l8.6-44.1h20.6c5.7,0,10.1,2.1,13.3,6.4c3.2,4.3,4.2,9.5,3,15.6c-1.2,6.1-4.2,11.3-9.1,15.5
		c-4.9,4.3-10.2,6.4-15.8,6.4h-8.8l-3.7,18.9h-11.8L-727.2,537.4z M-700.5,505.9h-8.8c-1.2,6.3-2.5,12.7-3.7,19l8.8,0
		c4.8,0,9.6-4.3,10.7-9.5S-695.7,505.9-700.5,505.9z"/>
	<path id="XMLID_24_" d="M-644.4,531.5l7.4-38.1h11.8c-2.5,12.7-5,25.4-7.4,38.1c-1.4,7-4.8,13-10.4,18c-5.6,5-11.7,7.4-18.2,7.4
		c-6.6,0-11.6-2.5-15.3-7.4s-4.8-11-3.4-18c2.5-12.7,4.9-25.4,7.4-38.1h11.9l-7.4,38.1c-1.3,6.9,2.9,12.7,9.4,12.7
		C-652.3,544.1-645.7,538.3-644.4,531.5z"/>
	<path id="XMLID_39_" d="M-606.3,493.4l-9.8,50.4h23.6l-2.5,12.6h-35.3l12.2-63H-606.3z"/>
	<path id="XMLID_41_" d="M-552.9,492.1l14.2,64.3h-12.7l-2.1-9.6h-20l-5.8,9.6h-12.7L-552.9,492.1z M-556,535.6l-2.8-13.3l-8,13.3
		H-556z"/>
	<path id="XMLID_44_" d="M-499.2,531.5l7.4-38.1h11.8c-2.5,12.7-5,25.4-7.4,38.1c-1.4,7-4.8,13-10.4,18c-5.6,5-11.7,7.4-18.2,7.4
		c-6.6,0-11.6-2.5-15.3-7.4s-4.8-11-3.4-18c2.5-12.7,4.9-25.4,7.4-38.1h11.9l-7.4,38.1c-1.3,6.9,2.9,12.7,9.4,12.7
		C-507.2,544.1-500.6,538.3-499.2,531.5z"/>
</g>
<path id="XMLID_4_" class="st4" d="M-433.3,563.6c-2.2-0.7-5.1-1.6-8.5-2.7c-2.4-0.8-5.1-1.6-8-2.6c-5.5-1.7-11.9-3.7-19.1-5.7h0
	c-2.2-0.6-4.4-1.2-6.8-1.9c-1.6-0.4-3.3-0.9-5-1.3c-8.8-2.3-18.5-4.5-29.1-6.4c-4.5-0.8-9.2-1.6-14.1-2.3
	c-8.6-1.2-17.6-2.3-27.1-2.9c-4.4-0.3-8.9-0.6-13.4-0.8c-3-0.1-6-0.2-9-0.3c-3-0.1-6-0.1-9-0.1c-3.1,0-6.1,0-9.2,0.1
	c-1.9,0-3.8,0.1-5.7,0.1c-9.5,0.3-19.2,0.8-29,1.6c-3.1,0.2-6.2,0.5-9.4,0.8c-14.6,1.3-29.5,3.2-44.3,5.3c-3.1,0.5-6.2,0.9-9.3,1.4
	c-2.7,0.4-5.4,0.8-8.1,1.3c-16.9,2.8-33.8,6.1-50.2,9.3c-16.2,3.2-32.4,5.1-48.2,6.1c-31.5,1.9-60.9-0.5-85.8-4.3
	c-10.9-1.7-20.9-3.7-29.9-5.8c-5.3-4.4-10.1-11.8-12.7-23.8l-8.8-43.9l-40.8,69.1h0.5l-0.1,0.1l-0.3,0.3c0,0,30.3,7.8,53,11.9
	c10.9,2.3,23.3,4.6,37.1,6.3c25.8,3.2,56.3,4.7,88.6,1.7c16.2-1.5,32.8-4,49.4-7.8c16.4-3.8,52.8-11.4,54.5-11.8
	c3.1-0.6,40.6-7,56-8.9c3.5-0.4,6.9-0.8,10.3-1.2c9.3-1,18.6-1.8,27.6-2.3c0.9-0.1,1.9-0.1,2.8-0.2c3.4-0.2,6.8-0.3,10.1-0.4
	c3.3-0.1,6.6-0.2,9.9-0.2c3.1,0,6.1-0.1,9.1,0c4.7,0,9.4,0.2,14,0.3c8.9,0.3,17.4,1,25.6,1.9c5.3,0.6,10.4,1.3,15.4,2
	c10.9,1.6,20.9,3.6,29.9,5.7c1.4,0.3,2.8,0.7,4.2,1c2.9,0.7,5.7,1.4,8.4,2.1c6.6,1.7,12.5,3.3,17.7,4.7c2.7,0.8,5.2,1.5,7.4,2.1
	c3.7,1.1,6.8,2,9.2,2.6c3.1,0.9,5.1,1.5,5.7,1.7C-428.3,565.2-430.2,564.6-433.3,563.6z M-942.8,535.2L-942.8,535.2l-17.4,11.5
	c2.5-4.3,12.1-20.5,14.9-25.4c2.7-4.8,5.3-9.4,7.8-13.7c0.1-0.1,0.1-0.2,0.2-0.2c0.9,4.3,1.6,9,2.4,13.9c0.8,4.9,4,22.5,4.9,26.8
	L-942.8,535.2z"/>
<g id="XMLID_152_">
	<path class="st1" d="M83.7,100.8c-4.2,7.5-17.8,30.5-21.6,37l25.7-17l-8.8,44.1l-36.7-15.9l-0.2-0.6l60.4-102.2l-6.7,33.8
		C91.8,86.4,87.8,93.4,83.7,100.8z"/>
</g>
<g>
	<path class="st1" d="M175.5,430.9l12.1-62.4L76.1,557.6l72.6,11.3l12.1-62.3l-0.1-0.1l-42.1,22.9
		C125.5,517.8,168.5,442.7,175.5,430.9z"/>
</g>
</svg>
