<?xml version="1.0" encoding="utf-8"?>
<!-- Generator: Adobe Illustrator 21.1.0, SVG Export Plug-In . SVG Version: 6.00 Build 0)  -->
<svg version="1.1" id="Layer_1" xmlns="http://www.w3.org/2000/svg" xmlns:xlink="http://www.w3.org/1999/xlink" x="0px" y="0px"
	 viewBox="0 0 869 203" style="enable-background:new 0 0 869 203;" xml:space="preserve">
<style type="text/css">
	.st0{fill:#0076BE;}
	.st1{fill:#0096DA;}
	.st2{fill:#656668;}
	.st3{fill:#77787B;}
	.st4{fill:#0073AB;}
	.st5{opacity:0.22;fill:#00B8F1;}
	.st6{opacity:0.29;fill:#BABCBE;}
	.st7{fill:#C2C4C6;}
	.st8{opacity:0.29;}
	.st9{fill:#9D9FA2;}
	.st10{fill:#6D6E71;}
	.st11{fill:#FFFFFF;}
	.st12{fill:none;stroke:#A4D067;stroke-width:8;stroke-miterlimit:10;}
	.st13{fill:#0087CD;}
	.st14{fill:#F3F4F4;}
	.st15{fill:#00A1E3;}
</style>
<g>
	<path class="st0" d="M244.8,913.7H13.1L185.9,648L244.8,913.7z M144.2,842l51.1,35.8c-3.9-16.5-14.3-70.1-17.6-89.1
		c-3.3-18.9-6.6-36.8-10.3-53.5c-10.9,16.6-22.2,34.5-33.7,53.5s-43.9,69-54.7,85.4L144.2,842z"/>
</g>
<g>
	<path class="st1" d="M672.1,868.3H522.5l111.6-189.1L672.1,868.3z M607.1,817.3l33.7,28.9c-2.5-11.7-9.9-53.3-12.1-66.8
		s-4.3-26.2-6.7-38c-7.1,11.8-14.4,24.6-21.8,38S572,828.4,565,840.2L607.1,817.3z"/>
</g>
<rect x="-1057" y="343" class="st2" width="625.5" height="158.5"/>
<path id="XMLID_9_" class="st3" d="M-911.1,520.5l-6.1,31.5l-1.8,9.1l-1.7,8.7l-12.6-18.2l-21.8-31.6l-6,30.9l-8.3,42.6h9.1
	l8.2-42.3l0.3-1.5l1.1-5.6l4.9,7.2l29.4,43.3l8.2-42.3l6.2-31.7H-911.1z"/>
<path id="XMLID_11_" class="st3" d="M-895.8,520.7l-1.9,9.6h18l-0.6,3l-3.8,19.5l-7.9,40.4h9l7.8-40.1l3.9-19.8l0.6-3h18l1.9-9.6
	H-895.8z"/>
<path id="XMLID_13_" class="st3" d="M-823.4,554.4l-6.9-34.4l-19.9,33.7l-23.3,39.5h9.7l7.3-12h28.6l2.7,12h9.7L-823.4,554.4z
	 M-851.7,573.5c2.7-4.5,5.5-9.5,8.4-14.7c0.9-1.6,1.8-3.2,2.7-4.8c2-3.5,3.9-6.8,5.8-9.9c0.6,3.2,1.3,6.6,1.8,10.1
	c0.2,1.5,0.5,3,0.7,4.6c0.8,5.2,1.7,10.2,2.7,14.7H-851.7z"/>
<path id="XMLID_16_" class="st3" d="M-755,535c-0.5-2.3-1.6-4.7-3.4-7.2c-1.8-2.3-4-4-6.6-5.2c-2.7-1.3-5.8-1.9-9.2-1.9h-21.1
	l-6.6,34.3l-7.4,38.3h9.1l4.9-25.4h10l10.4,25.4h11.3l-9.7-23.8l-1.2-3.1l3.4-1.4c2-0.7,3.5-1.5,4.6-2.3c1.2-0.8,2.6-2.1,4.1-3.9
	c0.8-0.9,1.5-1.8,2.1-2.7c0.9-1.2,1.7-2.4,2.3-3.6c1.1-2.1,1.9-4.4,2.4-6.9l0.4-2.1C-754.6,540.2-754.5,537.3-755,535z M-775,557.2
	c-1.5,0.6-3.2,1-5.1,1v-0.1h-7.1l-3.4,0h-2.8l0.6-2.8l0-0.2l4.2-21.7l0.6-3.1h11.1c2.2,0,4.3,0.3,6,1c1.9,0.7,3.3,1.7,4.3,3v0
	c1.1,1.6,1.7,3,2,4.4c0.2,1.6,0.2,3.4-0.2,5.3c-0.4,2.1-1,3.9-1.9,5.4c-0.9,1.7-2.2,3.2-3.8,4.7c-0.7,0.6-1.4,1.2-2,1.6
	C-773.5,556.3-774.3,556.8-775,557.2z"/>
<path id="XMLID_38_" class="st4" d="M-483.8,598.9c-2.2-0.7-5.1-1.6-8.5-2.7c-2.4-0.8-5.1-1.6-8-2.6c-5.5-1.7-11.9-3.7-19.1-5.7h0
	c-2.2-0.6-4.4-1.2-6.8-1.9c-1.6-0.4-3.3-0.9-5-1.3c-8.8-2.3-18.5-4.5-29.1-6.4c-4.5-0.8-9.2-1.6-14.1-2.3
	c-8.6-1.2-17.6-2.3-27.1-2.9c-4.4-0.3-8.9-0.6-13.4-0.8c-3-0.1-6-0.2-9-0.3c-3-0.1-6-0.1-9-0.1c-3.1,0-6.1,0-9.2,0.1
	c-1.9,0-3.8,0.1-5.7,0.1c-9.5,0.3-19.2,0.8-29,1.6c-3.1,0.2-6.2,0.5-9.4,0.8c-14.6,1.3-29.5,3.2-44.3,5.3c-3.1,0.5-6.2,0.9-9.3,1.4
	c-2.7,0.4-5.4,0.8-8.1,1.3c-16.9,2.8-33.8,6.1-50.2,9.3c-16.2,3.2-32.4,5.1-48.2,6.1c-31.5,1.9-60.9-0.5-85.8-4.3
	c-10.9-1.7-20.9-3.7-29.9-5.8c-5.3-4.4-10.1-11.8-12.7-23.8l-8.8-43.9l-40.8,69.1h0.5l-0.1,0.1l-0.3,0.3c0,0,30.3,7.8,53,11.9
	c10.9,2.3,23.3,4.6,37.1,6.3c25.8,3.2,56.3,4.7,88.6,1.7c16.2-1.5,32.8-4,49.4-7.8c16.4-3.8,52.8-11.4,54.5-11.8
	c3.1-0.6,40.6-7,56-8.9c3.5-0.4,6.9-0.8,10.3-1.2c9.3-1,18.6-1.8,27.6-2.3c0.9-0.1,1.9-0.1,2.8-0.2c3.4-0.2,6.8-0.3,10.1-0.4
	c3.3-0.1,6.6-0.2,9.9-0.2c3.1,0,6.1-0.1,9.1,0c4.7,0,9.4,0.2,14,0.3c8.9,0.3,17.4,1,25.6,1.9c5.3,0.6,10.4,1.3,15.4,2
	c10.9,1.6,20.9,3.6,29.9,5.7c1.4,0.3,2.8,0.7,4.2,1c2.9,0.7,5.7,1.4,8.4,2.1c6.6,1.7,12.5,3.3,17.7,4.7c2.7,0.8,5.2,1.5,7.4,2.1
	c3.7,1.1,6.8,2,9.2,2.6c3.1,0.9,5.1,1.5,5.7,1.7C-478.8,600.5-480.7,599.9-483.8,598.9z M-993.3,570.5L-993.3,570.5l-17.4,11.5
	c2.5-4.3,12.1-20.5,14.9-25.4c2.7-4.8,5.3-9.4,7.8-13.7c0.1-0.1,0.1-0.2,0.2-0.2c0.9,4.3,1.6,9,2.4,13.9c0.8,4.9,4,22.5,4.9,26.8
	L-993.3,570.5z"/>
<path id="XMLID_34_" class="st5" d="M-995.8,556.6c-2.7,4.9-12.3,21.1-14.9,25.4l17.3-11.5l-5,25.2l-25.5-6.5l-0.4-0.1l40.8-69.1
	l-4.5,23C-990.5,547.2-993.2,551.8-995.8,556.6z"/>
<path id="XMLID_30_" class="st3" d="M-694.4,536.7c-0.6-3.1-1.9-5.9-3.8-8.4c-1.9-2.6-4.2-4.5-6.8-5.8c-2.6-1.3-5.6-1.9-9-1.9h-24.3
	l-5,26.1l-1.3,6.5L-749,576l-2.8,14.5l-0.2,1.1l-1.2,6.2h9.6l0.9-4.6l0.9-4.6l2.5-12.7l0.6-3.2h14.7c3.3,0,6.5-0.6,9.7-1.9
	c3.1-1.3,6.2-3.2,9.1-5.8c2.9-2.6,5.2-5.4,7-8.4c0.4-0.8,0.8-1.5,1.2-2.4c1.1-2.4,1.9-4.9,2.5-7.7
	C-693.9,543.1-693.8,539.7-694.4,536.7z M-704.2,546.7c-0.5,2.3-1.2,4.3-2.3,6.1c-0.3,0.5-0.6,0.9-0.9,1.4c-1,1.4-2.1,2.6-3.4,3.8
	c-1.8,1.6-3.6,2.8-5.5,3.5c-1.9,0.8-3.8,1.1-5.9,1.1l-11.7,0h-3l0.7-3.2l1.1-5.9l1.3-6.8l2.5-12.6l0.6-3.2h14.7
	c2.1,0,3.9,0.4,5.5,1.2c1.5,0.8,3,2,4,3.5c1.1,1.7,1.9,3.4,2.2,5.1C-703.8,542.5-703.8,544.5-704.2,546.7z"/>
<path id="XMLID_20_" class="st3" d="M-625.9,520.5l-5.9,30.6l-1,5l-2.4,12c-0.2,1.1-2,7-2.7,8.6c-0.5,1.1-1,2.2-1.6,3.2
	c-2.1,3.6-4.9,6.9-8.2,9.9v0c-3.5,3.1-7.1,5.3-10.6,6.7c-3.6,1.5-7.3,2.2-11.3,2.2c-4,0-7.5-0.7-10.6-2.2c-3.2-1.5-5.8-3.8-7.9-6.8
	c-2-2.6-3.4-5.6-4.1-8.7c-0.1-0.4-0.2-0.8-0.3-1.2c-0.4-1.8-0.5-3.8-0.4-5.8c0-1.9,0.3-3.9,0.7-6l2.6-13.5l0.7-3.5l5.9-30.6h9.7
	l-5.9,30.6l-0.7,3.7l-2.2,11.4l-0.3,1.8c-0.3,1.8-0.5,3.5-0.4,5.2c0,0.8,0.1,1.7,0.3,2.5c0.3,1.4,0.7,2.7,1.4,4
	c0.4,0.8,0.9,1.7,1.5,2.5c1.4,2,3.1,3.4,5.2,4.4c2,1,4.3,1.5,6.8,1.5c2.5,0,5-0.5,7.5-1.5c2.5-1,4.7-2.5,6.9-4.4
	c1.7-1.5,3.3-3.2,4.6-5.1c1.6-2.3,3.5-7.9,3.8-9.1l0.4-1.8l2.1-10.4l0.9-4.7l5.9-30.6H-625.9z"/>
<polygon id="XMLID_21_" class="st3" points="-588.6,587.7 -590.6,597.9 -631.5,597.9 -627.7,578 -627.4,576.4 -623.5,556.3 
	-616.5,520.5 -606.9,520.5 -613.9,556.6 -617.7,576.4 -619.3,584.4 -620,587.7 "/>
<path id="XMLID_26_" class="st3" d="M-527.2,586.9l-0.4-2l-5.3-26.3l-7.8-38.9l-22.5,38.1l-10.5,17.8l-1.9,3.1l-11.3,19.1h10.3
	l7.8-12.8h30.5l2.9,12.8h10.3L-527.2,586.9z M-563.5,576.8c2.9-4.8,5.8-10.1,8.9-15.6c0.6-1,1.1-2,1.7-3c2.5-4.5,4.9-8.7,7.3-12.7
	c0.8,4.1,1.6,8.4,2.3,13c0.1,0.9,0.3,1.8,0.4,2.8c0.9,5.6,1.8,10.8,2.9,15.6H-563.5z"/>
<path id="XMLID_29_" class="st3" d="M-461.7,520.5l-5.9,30.6l-1.8,9.2l-1.2,5.9l-0.4,1.8c-0.5,2.7-1.4,5.2-2.9,7.7
	c-1.5,2.6-3.4,4.7-5.5,6.5c-2.2,1.9-4.4,3.4-6.9,4.4c-2.5,1-5,1.5-7.4,1.5c-2.6,0-4.9-0.5-6.9-1.5c-2.1-1-3.8-2.4-5.2-4.4
	c-1.4-2-2.5-4.2-2.9-6.5c-0.5-2.5-0.4-5,0.1-7.7l0.3-1.8l1.4-6.9l1.6-8.2l5.9-30.6h-9.7l-5.9,30.6l-1.5,8l-1.7,9
	c-0.8,4.3-0.9,8.2-0.3,11.7c0.6,3.1,1.7,5.9,3.4,8.5h0c0.3,0.5,0.6,0.9,0.9,1.4c0.1,0.2,0.2,0.3,0.3,0.5c2.1,2.8,4.5,4.9,7.6,6.4
	c3,1.4,6.6,2.2,10.6,2.2c3,0,5.9-0.4,8.6-1.3c0.3-0.1,0.5-0.2,0.8-0.3c0.6-0.2,1.2-0.4,1.8-0.7c3.5-1.4,7-3.6,10.6-6.7v0
	c3.3-3,6.1-6.3,8.2-9.9c2-3.6,3.5-7.5,4.3-11.7l1.5-7.5l1.9-9.5l5.9-30.6H-461.7z"/>
<polygon id="XMLID_12_" class="st6" points="-933.2,551.6 -945.8,551.2 -950.7,544 -951.8,549.6 -952,551.1 -961,550.8 -955,519.9 
	"/>
<polygon id="XMLID_63_" class="st6" points="-911.1,520.5 -902,520.5 -908.2,552.2 -917.2,552 "/>
<polygon id="XMLID_64_" class="st6" points="-850.8,520.7 -852.7,530.3 -870.7,530.3 -871.2,533.3 -875.1,553.1 -884.1,552.8 
	-880.3,533.3 -879.7,530.3 -897.7,530.3 -895.8,520.7 "/>
<path id="XMLID_32_" class="st6" d="M-823.4,554.4l-9.7-0.2c-0.6-3.5-1.2-6.9-1.8-10.1c-1.9,3.1-3.8,6.5-5.8,9.9l-9.5-0.3l19.9-33.7
	L-823.4,554.4z"/>
<path id="XMLID_10_" class="st6" d="M-755.2,543.5l-0.4,2.1c-0.5,2.5-1.3,4.8-2.4,6.9c-0.6,1.2-1.4,2.3-2.3,3.6l-12.4-0.3
	c0.7-0.5,1.3-1,2-1.6c1.7-1.5,2.9-3,3.8-4.7c0.9-1.5,1.5-3.3,1.9-5.4c0.4-1.9,0.4-3.7,0.2-5.3c-0.3-1.4-0.9-2.8-2-4.4v0
	c-1-1.3-2.4-2.3-4.3-3c-1.8-0.7-3.8-1-6-1h-11.1l-0.6,3.1l-4.2,21.7l0,0.2l-9-0.2l6.6-34.3h21.1c3.4,0,6.4,0.6,9.2,1.9
	c2.6,1.2,4.8,2.9,6.6,5.2c1.8,2.5,2.9,4.9,3.4,7.2C-754.5,537.3-754.6,540.2-755.2,543.5z"/>
<path id="XMLID_15_" class="st6" d="M-694.6,546.7c-0.5,2.8-1.4,5.3-2.5,7.7l-10.3-0.3c0.3-0.4,0.6-0.9,0.9-1.3
	c1.1-1.8,1.8-3.8,2.3-6.1c0.4-2.2,0.5-4.2,0.1-6c-0.3-1.7-1-3.4-2.2-5.1c-1.1-1.5-2.5-2.8-4-3.5c-1.6-0.8-3.4-1.2-5.5-1.2h-14.7
	l-0.6,3.2l-2.5,12.7l-1.3,6.8l-9.6-0.2l1.3-6.5l5-26.1h24.3c3.4,0,6.4,0.6,9,1.9c2.6,1.2,4.8,3.2,6.8,5.8c1.9,2.6,3.2,5.4,3.8,8.4
	C-693.8,539.7-693.9,543.1-694.6,546.7z"/>
<polygon id="XMLID_68_" class="st6" points="-683,520.5 -673.2,520.5 -679.2,551.1 -679.9,554.9 -689.6,554.6 -688.9,551.1 "/>
<polygon id="XMLID_69_" class="st6" points="-635.7,520.5 -625.9,520.5 -631.9,551.1 -632.8,556.1 -642.5,555.8 -641.6,551.1 "/>
<polygon id="XMLID_70_" class="st6" points="-616.5,520.5 -606.9,520.5 -613.9,556.6 -623.5,556.3 "/>
<path id="XMLID_14_" class="st6" d="M-532.9,558.7l-10.5-0.3c-0.7-4.5-1.5-8.9-2.3-13c-2.4,4-4.8,8.2-7.3,12.7l-10.2-0.3l22.5-38.1
	L-532.9,558.7z"/>
<polygon id="XMLID_72_" class="st6" points="-509,520.5 -499.3,520.5 -505.2,551.1 -506.8,559.3 -516.5,559.1 -515,551.1 "/>
<polygon id="XMLID_73_" class="st6" points="-452,520.5 -457.9,551.1 -459.8,560.6 -469.5,560.3 -467.6,551.1 -461.7,520.5 "/>
<text id="XMLID_1_" transform="matrix(1.101 0 0 1 -641.5156 641.6387)" class="st3" style="font-family:'LemonMilkitalic'; font-size:41.5686px;">cargo</text>
<text id="XMLID_2_" transform="matrix(1.13 0 0 1 -1028.5393 641.6387)" class="st10" style="font-family:'LemonMilklightitalic'; font-size:21.7673px;">www.antarpulaucargo.com</text>
<g id="XMLID_137_">
	<path class="st0" d="M811.2,467.8c-3.3-1.1-7.6-2.4-12.6-4c-3.5-1.1-7.5-2.4-11.8-3.8c-8.1-2.5-17.5-5.4-28.2-8.4h0
		c-3.2-0.9-6.5-1.8-10-2.8c-2.4-0.7-4.9-1.3-7.4-2c-13-3.3-27.4-6.7-43.1-9.5c-6.7-1.2-13.7-2.4-20.8-3.4c-12.7-1.8-26.1-3.4-40-4.3
		c-6.5-0.5-13.1-0.8-19.8-1.1c-4.4-0.2-8.8-0.3-13.3-0.4c-4.4-0.1-8.8-0.2-13.3-0.2c-4.5,0-9.1,0-13.6,0.1c-2.8,0.1-5.6,0.1-8.5,0.2
		c-14,0.4-28.4,1.2-42.9,2.3c-4.6,0.4-9.2,0.8-13.9,1.2c-21.7,2-43.6,4.7-65.6,7.9c-4.6,0.7-9.2,1.4-13.8,2.1
		c-4,0.6-7.9,1.2-11.9,1.9c-25,4.1-50,9-74.2,13.7c-24,4.7-48,7.6-71.2,9c-46.5,2.8-90.1-0.7-126.9-6.4c-16.1-2.5-30.9-5.5-44.2-8.6
		c-7.9-6.5-15-17.4-18.8-35.2l-13.1-64.9L11.9,453.4l0.2,0.6c0,0,44.8,11.5,78.4,17.6c16.1,3.4,34.5,6.8,54.9,9.3
		c38.2,4.7,83.2,6.9,131.1,2.5c23.9-2.2,48.5-5.9,73.1-11.5c24.3-5.6,78.1-16.9,80.5-17.4c4.6-0.9,60.1-10.4,82.8-13.2
		c5.1-0.7,10.2-1.2,15.2-1.8c13.8-1.5,27.5-2.6,40.9-3.5c1.4-0.1,2.8-0.2,4.2-0.2c5-0.3,10-0.5,15-0.6c4.9-0.2,9.8-0.3,14.6-0.3
		c4.5-0.1,9-0.1,13.4,0c7,0.1,13.9,0.2,20.7,0.5c13.1,0.5,25.7,1.5,37.8,2.8c7.9,0.9,15.4,1.9,22.7,3c16.1,2.4,30.9,5.4,44.3,8.4
		c2.1,0.5,4.2,1,6.3,1.5c4.3,1,8.4,2,12.4,3c9.8,2.5,18.6,4.8,26.1,6.9c4,1.1,7.6,2.2,11,3.1c5.5,1.6,10.1,2.9,13.7,3.9
		c4.6,1.3,7.5,2.2,8.4,2.4C818.6,470.2,815.8,469.2,811.2,467.8z M57.6,425.8l-0.1,0.1l-25.5,17c3.7-6.3,18-30.3,22-37.5
		c3.9-7.1,7.8-13.9,11.6-20.2c0.1-0.1,0.1-0.2,0.2-0.4c1.3,6.4,2.4,13.3,3.6,20.6c1.2,7.3,5.9,33.3,7.3,39.6L57.6,425.8z"/>
</g>
<g>
	<g id="XMLID_150_">
		<path class="st7" d="M179.3,351.9l-9,46.5l-2.6,13.5l-2.5,12.8l-18.6-26.9L114.3,351l-8.9,45.7l-12.3,63h13.5l12.1-62.6l0.4-2.2
			l1.6-8.2l7.2,10.6l43.4,64l12.2-62.6l9.1-46.9H179.3z"/>
	</g>
	<g id="XMLID_148_">
		<path class="st7" d="M201.8,352.1l-2.8,14.2h26.7l-0.9,4.5l-5.6,28.9l-11.6,59.7H221l11.6-59.4l5.7-29.2l0.9-4.5h26.6l2.7-14.2
			H201.8z"/>
	</g>
	<g id="XMLID_144_">
		<path class="st7" d="M309,402l-10.3-50.9L269.3,401l-34.5,58.4h14.3l10.8-17.7h42.4l4,17.7h14.3L309,402z M267.1,430.2
			c4-6.7,8.1-14,12.4-21.7c1.3-2.4,2.7-4.8,4-7.1c2.9-5.1,5.7-10,8.5-14.7c0.9,4.7,1.9,9.8,2.7,15c0.4,2.2,0.7,4.5,1.1,6.8
			c1.2,7.7,2.5,15,4,21.7H267.1z"/>
	</g>
	<g id="XMLID_140_">
		<path class="st7" d="M410.1,373.2c-0.7-3.4-2.4-6.9-5.1-10.6c-2.7-3.4-5.9-5.9-9.7-7.7c-4-1.9-8.6-2.8-13.6-2.8h-31.2l-9.8,50.7
			l-11,56.6h13.4l7.3-37.6h14.8l15.4,37.6h16.7l-14.3-35.1l-1.8-4.6l5.1-2c2.9-1.1,5.1-2.2,6.9-3.5c1.8-1.2,3.8-3.1,6.1-5.7
			c1.1-1.4,2.2-2.7,3-4c1.3-1.8,2.5-3.6,3.4-5.3c1.7-3.1,2.8-6.6,3.5-10.2l0.6-3C410.8,381,410.8,376.8,410.1,373.2z M380.5,406.1
			c-2.2,0.9-4.8,1.4-7.5,1.4v-0.1h-10.5l-5.1-0.1h-4.2l0.8-4.2l0.1-0.3l6.3-32.1l0.9-4.6h16.4c3.3,0,6.3,0.5,8.9,1.5
			c2.8,1.1,4.9,2.5,6.4,4.5v0.1c1.6,2.3,2.5,4.5,3,6.5c0.4,2.4,0.3,5-0.3,7.8c-0.6,3.1-1.5,5.8-2.8,8c-1.3,2.5-3.2,4.8-5.6,6.9
			c-1,0.9-2,1.7-3,2.4C382.8,404.8,381.6,405.6,380.5,406.1z"/>
	</g>
	<g id="XMLID_134_">
		<path class="st7" d="M499.8,375.7c-0.9-4.5-2.8-8.7-5.6-12.5c-2.8-3.8-6.2-6.7-10-8.5c-3.8-1.9-8.2-2.9-13.2-2.9h-36l-7.5,38.6
			l-1.9,9.6l-6.6,33.8l-4.2,21.5l-0.3,1.7l-1.8,9.2h14.3l1.3-6.8l1.3-6.8l3.7-18.8l0.9-4.8h21.8c4.9,0,9.7-0.9,14.3-2.8
			c4.6-1.9,9.2-4.8,13.5-8.5c4.2-3.8,7.7-7.9,10.3-12.4c0.7-1.1,1.3-2.3,1.8-3.5c1.6-3.6,2.9-7.3,3.7-11.4
			C500.5,385.3,500.6,380.3,499.8,375.7z M485.2,390.6c-0.7,3.4-1.8,6.4-3.4,9c-0.4,0.7-0.8,1.3-1.3,2c-1.4,2-3.1,3.9-5,5.6
			c-2.7,2.4-5.4,4.1-8.1,5.1c-2.8,1.2-5.6,1.7-8.7,1.7l-17.3-0.1h-4.5l1-4.8l1.7-8.7l1.9-10l3.6-18.7l0.9-4.8H468
			c3.1,0,5.8,0.6,8.1,1.8c2.3,1.2,4.4,2.9,6,5.2c1.7,2.6,2.8,5.1,3.2,7.6C485.9,384.4,485.8,387.3,485.2,390.6z"/>
	</g>
	<g id="XMLID_133_">
		<path class="st7" d="M601,351.9l-8.7,45.2l-1.4,7.3l-3.5,17.8c-0.3,1.6-2.9,10.3-4,12.6c-0.7,1.6-1.5,3.2-2.4,4.7
			c-3.2,5.3-7.2,10.2-12.1,14.6v0.1c-5.2,4.5-10.5,7.9-15.6,9.9c-5.3,2.2-10.9,3.3-16.7,3.3c-5.9,0-11.2-1.1-15.6-3.2
			c-4.7-2.2-8.5-5.6-11.7-10.1c-2.9-3.9-5-8.2-6.1-12.9c-0.1-0.6-0.3-1.2-0.4-1.8c-0.5-2.7-0.7-5.6-0.6-8.6c0.1-2.8,0.4-5.7,1-8.8
			l3.9-20l1-5.1l8.8-45.2h14.4l-8.8,45.2l-1.1,5.5l-3.3,16.9l-0.5,2.6c-0.5,2.6-0.7,5.2-0.6,7.6c0.1,1.3,0.2,2.5,0.4,3.8
			c0.4,2.1,1.1,4,2,5.9c0.6,1.2,1.4,2.5,2.2,3.7c2.1,3,4.6,5.1,7.7,6.6c2.9,1.4,6.3,2.2,10.1,2.2c3.6,0,7.3-0.8,11-2.2
			c3.6-1.5,7-3.7,10.2-6.6c2.6-2.2,4.9-4.7,6.8-7.6c2.4-3.3,5.2-11.7,5.6-13.4l0.5-2.6l3-15.4l1.4-7l8.8-45.2H601z"/>
	</g>
	<g id="XMLID_132_">
		<polygon class="st7" points="656.2,451.2 653.3,466.3 592.7,466.3 598.5,436.9 598.9,434.5 604.7,404.8 615,351.9 629.2,351.9 
			618.9,405.2 613.2,434.5 610.9,446.4 609.9,451.2 		"/>
	</g>
	<g id="XMLID_128_">
		<path class="st7" d="M747.1,450.1l-0.6-2.9l-7.8-38.9l-11.6-57.5l-33.3,56.3l-15.5,26.3l-2.7,4.6l-16.7,28.3h15.2l11.5-18.9h45.2
			l4.3,18.9h15.2L747.1,450.1z M693.3,435.1c4.2-7.1,8.6-14.9,13.1-23.1c0.8-1.5,1.7-3,2.5-4.5c3.7-6.6,7.3-12.9,10.8-18.8
			c1.2,6,2.3,12.4,3.4,19.2c0.2,1.3,0.4,2.7,0.7,4.1c1.3,8.2,2.7,16,4.2,23.1H693.3z"/>
	</g>
	<g id="XMLID_126_">
		<path class="st7" d="M843.9,351.9l-8.7,45.2l-2.7,13.6l-1.7,8.8l-0.5,2.6c-0.8,4-2.1,7.8-4.2,11.4c-2.2,3.8-5,6.9-8.2,9.6
			c-3.2,2.9-6.5,5.1-10.2,6.5c-3.7,1.5-7.4,2.2-11,2.2c-3.8,0-7.2-0.8-10.1-2.2c-3.1-1.5-5.6-3.6-7.7-6.5c-2.1-3-3.6-6.2-4.2-9.6
			c-0.7-3.6-0.6-7.4,0.1-11.4l0.4-2.6l2-10.2l2.4-12.2l8.8-45.2h-14.4l-8.8,45.2l-2.3,11.8l-2.6,13.3c-1.2,6.3-1.4,12.1-0.4,17.4
			c0.9,4.5,2.5,8.7,5.1,12.6h0c0.4,0.7,0.9,1.4,1.4,2c0.2,0.2,0.3,0.5,0.5,0.7c3.1,4.1,6.7,7.3,11.2,9.4c4.5,2.1,9.7,3.2,15.6,3.2
			c4.4,0,8.7-0.6,12.8-1.9c0.4-0.1,0.8-0.3,1.2-0.4c0.9-0.3,1.8-0.6,2.7-1c5.2-2.1,10.4-5.4,15.6-9.9v-0.1c4.9-4.4,9-9.3,12.2-14.6
			c3-5.3,5.1-11.1,6.4-17.4l2.2-11.1l2.7-14l8.8-45.2H843.9z"/>
	</g>
</g>
<g id="XMLID_125_" class="st8">
	<polygon class="st9" points="146.6,397.8 128,397.3 120.7,386.7 119.1,394.9 118.7,397.1 105.4,396.7 114.3,351 	"/>
</g>
<g id="XMLID_124_" class="st8">
	<polygon class="st9" points="179.3,351.9 192.7,351.9 183.6,398.8 170.3,398.4 	"/>
</g>
<g id="XMLID_123_" class="st8">
	<polygon class="st9" points="268.5,352.1 265.7,366.3 239.1,366.3 238.2,370.8 232.5,400 219.3,399.7 224.9,370.8 225.7,366.3 
		199,366.3 201.8,352.1 	"/>
</g>
<g id="XMLID_122_" class="st8">
	<path class="st9" d="M309,402l-14.4-0.4c-0.9-5.2-1.8-10.3-2.7-15c-2.8,4.6-5.6,9.5-8.5,14.7l-14.1-0.4l29.4-49.9L309,402z"/>
</g>
<g id="XMLID_121_" class="st8">
	<path class="st9" d="M409.8,385.9l-0.6,3c-0.7,3.7-1.9,7.1-3.5,10.2c-0.9,1.7-2,3.5-3.4,5.3l-18.3-0.5c1-0.7,2-1.5,3-2.4
		c2.5-2.2,4.3-4.5,5.6-6.9c1.3-2.2,2.2-4.9,2.8-8c0.6-2.8,0.7-5.4,0.3-7.8c-0.4-2-1.4-4.2-3-6.5v-0.1c-1.4-2-3.5-3.4-6.4-4.5
		c-2.6-1-5.6-1.5-8.9-1.5h-16.4l-0.9,4.6l-6.3,32.1l-0.1,0.3l-13.3-0.4l9.8-50.7h31.2c5,0,9.5,0.9,13.6,2.8c3.8,1.8,7.1,4.3,9.7,7.7
		c2.7,3.7,4.3,7.2,5.1,10.6C410.8,376.8,410.8,381,409.8,385.9z"/>
</g>
<g id="XMLID_120_" class="st8">
	<path class="st9" d="M499.5,390.6c-0.8,4.1-2,7.8-3.7,11.4l-15.2-0.4c0.4-0.7,0.9-1.3,1.3-2c1.6-2.6,2.7-5.6,3.4-9
		c0.6-3.3,0.7-6.2,0.1-8.9c-0.5-2.5-1.5-5.1-3.2-7.6c-1.6-2.3-3.7-4.1-6-5.2c-2.3-1.1-5-1.8-8.1-1.8h-21.8l-0.9,4.8l-3.6,18.7
		l-1.9,10l-14.2-0.4l1.9-9.6l7.5-38.6h36c5,0,9.4,0.9,13.2,2.9c3.8,1.8,7.2,4.7,10,8.5c2.8,3.8,4.7,7.9,5.6,12.5
		C500.6,380.3,500.5,385.3,499.5,390.6z"/>
</g>
<g id="XMLID_119_" class="st8">
	<polygon class="st9" points="516.7,351.9 531.1,351.9 522.3,397.1 521.2,402.7 506.9,402.3 507.9,397.1 	"/>
</g>
<g id="XMLID_118_" class="st8">
	<polygon class="st9" points="586.7,351.9 601,351.9 592.3,397.1 590.9,404.4 576.5,404.1 577.9,397.1 	"/>
</g>
<g id="XMLID_117_" class="st8">
	<polygon class="st9" points="615,351.9 629.2,351.9 618.9,405.2 604.7,404.8 	"/>
</g>
<g id="XMLID_116_" class="st8">
	<path class="st9" d="M738.7,408.3l-15.5-0.4c-1.1-6.7-2.2-13.1-3.4-19.2c-3.5,5.9-7.1,12.2-10.8,18.8l-15.1-0.4l33.3-56.3
		L738.7,408.3z"/>
</g>
<g id="XMLID_115_" class="st8">
	<polygon class="st9" points="773.9,351.9 788.3,351.9 779.6,397.1 777.2,409.3 762.9,408.9 765.2,397.1 	"/>
</g>
<g id="XMLID_114_" class="st8">
	<polygon class="st9" points="858.3,351.9 849.5,397.1 846.8,411.1 832.5,410.8 835.1,397.1 843.9,351.9 	"/>
</g>
<g id="XMLID_113_">
	<path class="st7" d="M604.2,531.3c-6.9,0-12.3-2.4-16.2-7.1c-3.9-4.8-5.1-10.6-3.7-17.3c1.5-6.8,5.2-12.5,11.1-17.4
		c6-4.8,12.4-7.2,19.3-7.2l-0.1,0.1c7.6,0,13,3.3,16.3,7.2l-8.6,6.9c-2.4-2.9-5.6-4.3-9.8-4.3c-4.2,0-8,1.4-11.6,4.3
		c-3.6,2.9-5.8,6.4-6.6,10.4c-0.9,4.1-0.2,7.5,2.2,10.4c2.3,2.9,5.6,4.3,9.7,4.3s8.1-1.4,11.6-4.3l5.6,6.9
		C618.7,528.1,612,531.3,604.2,531.3z"/>
	<path class="st7" d="M660.1,481.6l12,49.4h-10.8l-1.8-7.4h-17l-4.9,7.4h-10.8L660.1,481.6z M657.5,515.1l-2.3-10.2l-6.7,10.2H657.5
		z"/>
	<path class="st7" d="M690.4,482.6h16.2c5.5,0,9.5,2,11.9,4.9c2.4,2.9,3.6,5.6,2.4,11l-0.3,1.3c-0.7,3.3-2.4,6.3-5.1,9.2
		c-2.2,2.4-3.8,3.4-6.9,4.5l7.8,17.5h-12.2l-9.7-21.4L690,531H680L690.4,482.6z M710.5,498.8c0.4-1.8,0.1-3.3-1-4.7
		c-1-1.2-3.3-1.9-5.7-1.9h-5.6l-2.8,13.4h3.8v0h3.3C706.2,505.6,709.8,502.5,710.5,498.8z"/>
	<path class="st7" d="M757.5,482.3c7.6,0,13.1,3.3,16.3,7.2l-8.6,6.9c-2.4-2.9-5.7-4.4-9.7-4.4c-4.2,0-8,1.4-11.6,4.4
		c-3.6,2.9-5.8,6.4-6.6,10.4c-0.9,4.1-0.2,7.5,2.2,10.4c2.3,2.9,5.6,4.3,9.7,4.3c6.4,0,12.3-3.9,15.4-8.5h-14.1l2-9.3h25.4
		c-1.2,9-5.7,15.6-11.6,20.3c-5.9,4.8-12.4,7.2-19.3,7.2c-7,0-12.4-2.4-16.2-7.2c-3.9-4.8-5.1-10.5-3.7-17.3
		c1.5-6.8,5.2-12.5,11.1-17.4C744.1,484.6,750.5,482.2,757.5,482.3L757.5,482.3z"/>
	<path class="st7" d="M830.4,489.5c3.9,4.8,5.1,10.6,3.7,17.4c-1.5,6.8-5.2,12.6-11.1,17.3c-5.9,4.8-12.4,7.1-19.3,7.1
		c-6.9,0-12.4-2.4-16.2-7.1c-3.9-4.8-5.1-10.6-3.7-17.3c1.5-6.8,5.2-12.5,11.1-17.4c6-4.8,12.4-7.2,19.3-7.2
		S826.5,484.6,830.4,489.5z M800.4,496.4c-3.6,2.9-5.8,6.4-6.7,10.4c-0.9,4.1-0.1,7.5,2.2,10.4c2.3,2.9,5.6,4.3,9.8,4.3
		c4.1,0,8-1.4,11.5-4.3c3.6-2.9,5.9-6.3,6.7-10.4c0.9-4.1,0.1-7.5-2.2-10.4c-2.3-2.9-5.6-4.3-9.7-4.3
		C807.8,492,804,493.5,800.4,496.4z"/>
</g>
<g id="XMLID_112_">
	<path class="st10" d="M15.1,506.6l2.4,14.6l8-13.8l1.9,13.8l8.8-14.6h3.6l-14.4,23.8l-1.9-14.3l-8,14.2l-3.9-23.7H15.1z"/>
	<path class="st10" d="M44.6,506.6l2.4,14.6l8-13.8l1.9,13.8l8.8-14.6h3.6l-14.4,23.8L53,516.2l-8,14.2l-3.9-23.7H44.6z"/>
	<path class="st10" d="M74.1,506.6l2.4,14.6l8-13.8l1.9,13.8l8.8-14.6h3.6l-14.4,23.8l-1.9-14.3l-8,14.2l-3.9-23.7H74.1z"/>
	<path class="st10" d="M92.6,526.8c0.6-0.5,1.3-0.7,2-0.7s1.3,0.3,1.7,0.7s0.6,1.1,0.4,1.8s-0.5,1.3-1.2,1.8c-0.6,0.5-1.3,0.7-2,0.7
		s-1.3-0.2-1.7-0.7s-0.5-1.1-0.4-1.8C91.6,527.9,92,527.3,92.6,526.8z"/>
	<path class="st10" d="M119,530h-3.5l-1-3.9h-5.2h-5.2l-2.7,3.9h-3.5l15.7-23.6L119,530z M109.8,523.7h4c-0.4-1.5-0.7-3-1-4.7
		c-0.3-1.7-0.6-3.3-0.9-4.7c-1,1.5-2,3.1-3.1,4.7s-2.1,3.3-3,4.7H109.8z"/>
	<path class="st10" d="M138.9,522.5l0.6-2.8l2.9-13.1h3.3l-5.2,23.8L128,514.2l-0.4,1.8l-3.1,14.1h-3.3l5.2-23.7L138.9,522.5z"/>
	<path class="st10" d="M158.9,506.6h5.5l-0.7,3.1h-5.5h-1l-0.2,1l-4.2,19.3h-3.3l4.2-19.3l0.2-1h-1h-5.5l0.7-3.1h5.5H158.9z"/>
	<path class="st10" d="M177.2,530h-3.5l-1-3.9h-5.2h-5.2l-2.7,3.9h-3.5l15.7-23.6L177.2,530z M168,523.7h4c-0.4-1.5-0.7-3-1-4.7
		c-0.3-1.7-0.6-3.3-0.9-4.7c-1,1.5-2,3.1-3.1,4.7s-2.1,3.3-3,4.7H168z"/>
	<path class="st10" d="M184.6,506.6h7.7c1.2,0,2.3,0.2,3.3,0.6c0.9,0.4,1.7,0.9,2.4,1.7c0.7,0.8,1.1,1.6,1.2,2.3
		c0.2,0.8,0.2,1.7-0.1,2.8l-0.1,0.7c-0.2,0.8-0.5,1.6-0.9,2.2c-0.4,0.6-0.9,1.3-1.6,2c-0.6,0.6-1,1-1.5,1.2c-0.4,0.3-1,0.5-1.7,0.8
		l-1.2,0.4l0.4,1l3.5,7.7H192l-3.8-8.2h-3.6l-1.8,8.2h-3.3L184.6,506.6z M190.1,518.7L190.1,518.7c0.7,0,1.3-0.1,1.8-0.3
		c0.5-0.2,1-0.5,1.6-1c0.6-0.5,1.1-1,1.4-1.5c0.3-0.5,0.6-1.1,0.7-1.7c0.1-0.6,0.2-1.2,0.1-1.7c-0.1-0.4-0.3-0.9-0.7-1.4v0
		c-0.4-0.4-0.9-0.7-1.6-1c-0.6-0.2-1.4-0.3-2.2-0.3h-3h-1l-0.2,1l-1.5,7l-0.2,1h1l1.2,0h0.8H190.1z"/>
	<path class="st10" d="M199.8,523.4l2-8.9l1.7-7.9h4.3h4c1.2,0,2.2,0.2,3.1,0.6c0.9,0.4,1.7,1,2.3,1.7c0.6,0.8,1.1,1.6,1.3,2.5
		c0.2,0.9,0.2,1.9-0.1,3c-0.2,1.1-0.7,2.1-1.3,3c-0.6,0.9-1.4,1.8-2.4,2.5c-1,0.8-2,1.4-3.1,1.7c-1.1,0.4-2.2,0.6-3.3,0.6h-4h-1
		l-0.2,1l-1.5,6.6h-3.3L199.8,523.4z M204,519.3h1l4,0c0.7,0,1.4-0.1,2-0.3c0.6-0.2,1.2-0.6,1.9-1.1c0.6-0.5,1.1-1,1.4-1.6
		c0.4-0.5,0.6-1.1,0.8-1.8c0.1-0.7,0.2-1.3,0-1.8c-0.1-0.5-0.4-1-0.7-1.6c-0.4-0.5-0.9-0.8-1.4-1.1c-0.5-0.2-1.2-0.4-1.9-0.4h-4h-1
		l-0.2,1l-0.8,3.8l-0.8,3.8L204,519.3z"/>
	<path class="st10" d="M241.8,506.6l-2,9.2l-1.1,5.1c-0.3,1.3-0.8,2.5-1.5,3.6c-0.7,1.1-1.7,2.1-2.8,3v0c-1.2,0.9-2.4,1.6-3.6,2
		c-1.2,0.5-2.5,0.7-3.9,0.7c-1.4,0-2.6-0.2-3.6-0.7c-1.1-0.5-2-1.1-2.7-2.1c-0.8-0.9-1.3-1.9-1.5-3c-0.2-1.1-0.2-2.3,0.1-3.6
		l1.1-5.1l2-9.2h3.3l-2,9.2l-1,4.6l-0.1,0.5c-0.2,0.8-0.2,1.6,0,2.3c0.1,0.7,0.5,1.4,1,2c0.5,0.6,1.1,1,1.8,1.3
		c0.7,0.3,1.5,0.5,2.3,0.5c0.8,0,1.7-0.2,2.5-0.5c0.8-0.3,1.6-0.8,2.3-1.3c0.7-0.6,1.4-1.2,1.9-2c0.5-0.7,0.8-1.5,1-2.3l0.1-0.5
		l1-4.6l2-9.2H241.8z"/>
	<path class="st10" d="M248.3,506.6l-4.2,19.3l-0.2,1h1h9.7l-0.7,3.1h-14l5.1-23.4H248.3z"/>
	<path class="st10" d="M276.3,530h-3.5l-1-3.9h-5.2h-5.2l-2.7,3.9h-3.5l15.7-23.6L276.3,530z M267.1,523.7h4c-0.4-1.5-0.7-3-1-4.7
		c-0.3-1.7-0.6-3.3-0.9-4.7c-1,1.5-2,3.1-3.1,4.7s-2.1,3.3-3,4.7H267.1z"/>
	<path class="st10" d="M301.2,506.6l-2,9.2L298,521c-0.3,1.3-0.8,2.5-1.5,3.6c-0.7,1.1-1.7,2.1-2.8,3v0c-1.2,0.9-2.4,1.6-3.6,2
		c-1.2,0.5-2.5,0.7-3.9,0.7c-1.4,0-2.6-0.2-3.6-0.7c-1.1-0.5-2-1.1-2.7-2.1c-0.8-0.9-1.3-1.9-1.5-3c-0.2-1.1-0.2-2.3,0.1-3.6
		l1.1-5.1l2-9.2h3.3l-2,9.2l-1,4.6l-0.1,0.5c-0.2,0.8-0.2,1.6,0,2.3c0.1,0.7,0.5,1.4,1,2c0.5,0.6,1.1,1,1.8,1.3
		c0.7,0.3,1.5,0.5,2.3,0.5c0.8,0,1.7-0.2,2.5-0.5c0.8-0.3,1.6-0.8,2.3-1.3c0.7-0.6,1.4-1.2,1.9-2c0.5-0.7,0.8-1.5,1-2.3l0.1-0.5
		l1-4.6l2-9.2H301.2z"/>
	<path class="st10" d="M315.9,506.5c0.9,0,1.7,0.1,2.5,0.2c0.8,0.2,1.5,0.4,2.2,0.7c0.7,0.3,1.3,0.7,1.9,1.1
		c0.3,0.3,0.7,0.5,0.9,0.8l-2.9,2.2c-0.6-0.5-1.2-0.9-1.9-1.3c-1-0.4-2.1-0.6-3.3-0.6s-2.5,0.2-3.7,0.6c-1.2,0.5-2.3,1.1-3.4,1.9
		c-1.1,0.8-1.9,1.8-2.6,2.8h0c-0.7,1-1.1,2.1-1.4,3.3c-0.3,1.2-0.3,2.3-0.1,3.3c0.2,1,0.7,2,1.4,2.8c0.7,0.8,1.5,1.5,2.5,1.9
		s2.1,0.6,3.4,0.6c1.2,0,2.5-0.2,3.7-0.6c0.9-0.3,1.7-0.7,2.5-1.3l1.8,2.2c-0.4,0.3-0.8,0.5-1.3,0.8c-0.8,0.5-1.6,0.8-2.4,1.1
		c-0.9,0.3-1.7,0.5-2.5,0.7c-0.8,0.2-1.7,0.2-2.6,0.2c-1.7,0-3.2-0.3-4.6-0.9c-1.4-0.6-2.5-1.4-3.4-2.6c-1-1.2-1.6-2.5-1.9-3.9
		c-0.3-1.4-0.3-2.9,0.1-4.5c0.4-1.7,1-3.2,1.9-4.5c0.9-1.4,2.1-2.7,3.6-3.9c1.5-1.2,3-2,4.6-2.6c1.2-0.4,2.4-0.7,3.6-0.8H315.9z"/>
	<path class="st10" d="M341.2,530h-3.5l-1-3.9h-5.2h-5.2l-2.7,3.9h-3.5l15.7-23.6L341.2,530z M332.1,523.7h4c-0.4-1.5-0.7-3-1-4.7
		c-0.3-1.7-0.6-3.3-0.9-4.7c-1,1.5-2,3.1-3.1,4.7s-2.1,3.3-3,4.7H332.1z"/>
	<path class="st10" d="M348.6,506.6h7.7c1.2,0,2.3,0.2,3.3,0.6c0.9,0.4,1.7,0.9,2.4,1.7c0.7,0.8,1.1,1.6,1.2,2.3
		c0.2,0.8,0.2,1.7-0.1,2.8l-0.1,0.7c-0.2,0.8-0.5,1.6-0.9,2.2c-0.4,0.6-0.9,1.3-1.6,2c-0.6,0.6-1,1-1.5,1.2c-0.4,0.3-1,0.5-1.7,0.8
		l-1.2,0.4l0.4,1l3.5,7.7h-4.1l-3.8-8.2h-3.6l-1.8,8.2h-3.3L348.6,506.6z M354.2,518.7L354.2,518.7c0.7,0,1.3-0.1,1.8-0.3
		c0.5-0.2,1-0.5,1.6-1c0.6-0.5,1.1-1,1.4-1.5c0.3-0.5,0.6-1.1,0.7-1.7c0.1-0.6,0.2-1.2,0.1-1.7c-0.1-0.4-0.3-0.9-0.7-1.4v0
		c-0.4-0.4-0.9-0.7-1.6-1c-0.6-0.2-1.4-0.3-2.2-0.3h-3h-1l-0.2,1l-1.5,7l-0.2,1h1l1.2,0h0.8H354.2z"/>
	<path class="st10" d="M378.3,506.5h0.7c0.9,0,1.7,0.1,2.5,0.2c0.8,0.2,1.5,0.4,2.2,0.7c0.7,0.3,1.3,0.7,1.9,1.1
		c0.3,0.2,0.6,0.5,0.9,0.8l-2.8,2.2c-0.6-0.5-1.2-0.9-1.9-1.3c-1-0.4-2.1-0.6-3.4-0.6c-1.3,0-2.5,0.2-3.6,0.6
		c-1.2,0.4-2.3,1.1-3.4,1.9c-1.1,0.9-2,1.8-2.6,2.8c-0.7,1.1-1.2,2.2-1.4,3.3c-0.3,1.2-0.3,2.3-0.1,3.3c0.2,1,0.7,1.9,1.4,2.8
		c0.7,0.9,1.5,1.5,2.5,1.9c1,0.4,2.1,0.6,3.4,0.6c1,0,1.9-0.1,2.9-0.4c0.9-0.3,1.8-0.7,2.8-1.2c0.7-0.5,1.4-1,2-1.5
		c0.6-0.6,1.2-1.2,1.7-1.8l1-1.4h-1.6h-6.6l0.6-2.9h0.3H389c-0.3,1.7-0.9,3.2-1.7,4.6c-1,1.7-2.3,3.1-3.9,4.4c-1.5,1.2-3,2-4.6,2.6
		c-1.6,0.6-3.2,0.9-5,0.9c-1.8,0-3.3-0.3-4.6-0.9c-1.4-0.6-2.5-1.4-3.5-2.6c-1-1.2-1.6-2.5-1.9-3.8c-0.3-1.4-0.2-2.9,0.1-4.6
		s1-3.2,1.9-4.6c0.9-1.4,2.1-2.6,3.6-3.9c1.5-1.2,3-2,4.6-2.6C375.4,506.8,376.8,506.5,378.3,506.5L378.3,506.5z"/>
	<path class="st10" d="M409.8,507.3c1.3,0.6,2.5,1.5,3.5,2.6c1,1.2,1.6,2.5,1.9,3.8c0.3,1.4,0.3,2.9-0.1,4.6c-0.4,1.6-1,3.2-1.9,4.6
		c-0.9,1.4-2.1,2.7-3.6,3.8c-1.5,1.1-3,2-4.6,2.6s-3.3,0.9-5,0.9c-1.7,0-3.3-0.3-4.6-0.9c-1.4-0.6-2.5-1.4-3.4-2.6
		c-1-1.2-1.6-2.5-1.9-3.9c-0.3-1.4-0.3-2.9,0.1-4.5c0.4-1.7,1-3.2,1.9-4.5c0.9-1.4,2.1-2.7,3.6-3.9c1.5-1.2,3-2,4.6-2.6
		c1.6-0.6,3.2-0.9,5-0.9C407,506.5,408.5,506.7,409.8,507.3z M400.9,510.3c-1.2,0.5-2.3,1.1-3.4,1.9c-1.1,0.9-2,1.8-2.6,2.8
		c-0.7,1-1.1,2.1-1.4,3.3c-0.3,1.2-0.3,2.3-0.1,3.3c0.2,1,0.7,1.9,1.4,2.8c0.7,0.8,1.5,1.5,2.5,1.9s2.1,0.6,3.4,0.6
		c1.2,0,2.4-0.2,3.6-0.6s2.3-1.1,3.4-1.9c1.1-0.9,2-1.8,2.6-2.8c0.7-1,1.2-2.1,1.4-3.3c0.3-1.2,0.3-2.3,0-3.3
		c-0.2-1-0.7-1.9-1.4-2.8c-0.7-0.8-1.6-1.5-2.6-1.9c-1-0.4-2.1-0.6-3.3-0.6C403.3,509.6,402.1,509.8,400.9,510.3z"/>
	<path class="st10" d="M415.5,526.8c0.6-0.5,1.3-0.7,2-0.7s1.3,0.3,1.7,0.7s0.6,1.1,0.4,1.8s-0.5,1.3-1.2,1.8
		c-0.6,0.5-1.3,0.7-2,0.7s-1.3-0.2-1.7-0.7s-0.5-1.1-0.4-1.8C414.5,527.9,414.9,527.3,415.5,526.8z"/>
	<path class="st10" d="M438.4,506.5c0.9,0,1.7,0.1,2.5,0.2c0.8,0.2,1.5,0.4,2.2,0.7c0.7,0.3,1.3,0.7,1.9,1.1
		c0.3,0.3,0.7,0.5,0.9,0.8l-2.9,2.2c-0.6-0.5-1.2-0.9-1.9-1.3c-1-0.4-2.1-0.6-3.3-0.6s-2.5,0.2-3.7,0.6c-1.2,0.5-2.3,1.1-3.4,1.9
		c-1.1,0.8-1.9,1.8-2.6,2.8h0c-0.7,1-1.1,2.1-1.4,3.3c-0.3,1.2-0.3,2.3-0.1,3.3c0.2,1,0.7,2,1.4,2.8c0.7,0.8,1.5,1.5,2.5,1.9
		s2.1,0.6,3.4,0.6c1.2,0,2.5-0.2,3.7-0.6c0.9-0.3,1.7-0.7,2.5-1.3l1.8,2.2c-0.4,0.3-0.8,0.5-1.3,0.8c-0.8,0.5-1.6,0.8-2.4,1.1
		c-0.9,0.3-1.7,0.5-2.5,0.7c-0.8,0.2-1.7,0.2-2.6,0.2c-1.7,0-3.2-0.3-4.6-0.9c-1.4-0.6-2.5-1.4-3.4-2.6c-1-1.2-1.6-2.5-1.9-3.9
		c-0.3-1.4-0.3-2.9,0.1-4.5c0.4-1.7,1-3.2,1.9-4.5c0.9-1.4,2.1-2.7,3.6-3.9c1.5-1.2,3-2,4.6-2.6c1.2-0.4,2.4-0.7,3.6-0.8H438.4z"/>
	<path class="st10" d="M462.2,507.3c1.3,0.6,2.5,1.5,3.5,2.6c1,1.2,1.6,2.5,1.9,3.8c0.3,1.4,0.3,2.9-0.1,4.6c-0.4,1.6-1,3.2-1.9,4.6
		c-0.9,1.4-2.1,2.7-3.6,3.8c-1.5,1.1-3,2-4.6,2.6s-3.3,0.9-5,0.9c-1.7,0-3.3-0.3-4.6-0.9c-1.4-0.6-2.5-1.4-3.4-2.6
		c-1-1.2-1.6-2.5-1.9-3.9c-0.3-1.4-0.3-2.9,0.1-4.5c0.4-1.7,1-3.2,1.9-4.5c0.9-1.4,2.1-2.7,3.6-3.9c1.5-1.2,3-2,4.6-2.6
		c1.6-0.6,3.2-0.9,5-0.9C459.4,506.5,460.9,506.7,462.2,507.3z M453.3,510.3c-1.2,0.5-2.3,1.1-3.4,1.9c-1.1,0.9-2,1.8-2.6,2.8
		c-0.7,1-1.1,2.1-1.4,3.3c-0.3,1.2-0.3,2.3-0.1,3.3c0.2,1,0.7,1.9,1.4,2.8c0.7,0.8,1.5,1.5,2.5,1.9s2.1,0.6,3.4,0.6
		c1.2,0,2.4-0.2,3.6-0.6s2.3-1.1,3.4-1.9c1.1-0.9,2-1.8,2.6-2.8c0.7-1,1.2-2.1,1.4-3.3c0.3-1.2,0.3-2.3,0-3.3
		c-0.2-1-0.7-1.9-1.4-2.8c-0.7-0.8-1.6-1.5-2.6-1.9c-1-0.4-2.1-0.6-3.3-0.6C455.7,509.6,454.5,509.8,453.3,510.3z"/>
	<path class="st10" d="M480.6,523.9l15.9-17.5l-5.2,23.6h-3.3l2.9-13.3l-11.5,12.7l-5.9-12.7l-2.9,13.3h-3.3l5.2-23.6L480.6,523.9z"
		/>
</g>
<path id="XMLID_110_" class="st11" d="M-911.1,373.2l-6.1,31.5l-1.8,9.1l-1.7,8.7l-12.6-18.2l-21.8-31.6l-6,30.9l-8.3,42.6h9.1
	l8.2-42.3l0.3-1.5l1.1-5.6l4.9,7.2l29.4,43.3l8.2-42.3l6.2-31.7H-911.1z"/>
<path id="XMLID_108_" class="st11" d="M-895.8,373.3l-1.9,9.6h18l-0.6,3l-3.8,19.5l-7.9,40.4h9l7.8-40.1l3.9-19.8l0.6-3h18l1.9-9.6
	H-895.8z"/>
<path id="XMLID_104_" class="st11" d="M-823.4,407.1l-6.9-34.4l-19.9,33.7l-23.3,39.5h9.7l7.3-12h28.6l2.7,12h9.7L-823.4,407.1z
	 M-851.7,426.1c2.7-4.5,5.5-9.5,8.4-14.7c0.9-1.6,1.8-3.2,2.7-4.8c2-3.5,3.9-6.8,5.8-9.9c0.6,3.2,1.3,6.6,1.8,10.1
	c0.2,1.5,0.5,3,0.7,4.6c0.8,5.2,1.7,10.2,2.7,14.7H-851.7z"/>
<path id="XMLID_100_" class="st11" d="M-755,387.6c-0.5-2.3-1.6-4.7-3.4-7.2c-1.8-2.3-4-4-6.6-5.2c-2.7-1.3-5.8-1.9-9.2-1.9h-21.1
	l-6.6,34.3l-7.4,38.3h9.1l4.9-25.4h10l10.4,25.4h11.3l-9.7-23.8l-1.2-3.1l3.4-1.4c2-0.7,3.5-1.5,4.6-2.3c1.2-0.8,2.6-2.1,4.1-3.9
	c0.8-0.9,1.5-1.8,2.1-2.7c0.9-1.2,1.7-2.4,2.3-3.6c1.1-2.1,1.9-4.4,2.4-6.9l0.4-2.1C-754.6,392.9-754.5,390-755,387.6z M-775,409.8
	c-1.5,0.6-3.2,1-5.1,1v-0.1h-7.1l-3.4,0h-2.8l0.6-2.8l0-0.2l4.2-21.7l0.6-3.1h11.1c2.2,0,4.3,0.3,6,1c1.9,0.7,3.3,1.7,4.3,3v0
	c1.1,1.6,1.7,3,2,4.4c0.2,1.6,0.2,3.4-0.2,5.3c-0.4,2.1-1,3.9-1.9,5.4c-0.9,1.7-2.2,3.2-3.8,4.7c-0.7,0.6-1.4,1.2-2,1.6
	C-773.5,409-774.3,409.5-775,409.8z"/>
<path id="XMLID_97_" class="st4" d="M-483.8,451.5c-2.2-0.7-5.1-1.6-8.5-2.7c-2.4-0.8-5.1-1.6-8-2.6c-5.5-1.7-11.9-3.7-19.1-5.7h0
	c-2.2-0.6-4.4-1.2-6.8-1.9c-1.6-0.4-3.3-0.9-5-1.3c-8.8-2.3-18.5-4.5-29.1-6.4c-4.5-0.8-9.2-1.6-14.1-2.3
	c-8.6-1.2-17.6-2.3-27.1-2.9c-4.4-0.3-8.9-0.6-13.4-0.8c-3-0.1-6-0.2-9-0.3c-3-0.1-6-0.1-9-0.1c-3.1,0-6.1,0-9.2,0.1
	c-1.9,0-3.8,0.1-5.7,0.1c-9.5,0.3-19.2,0.8-29,1.6c-3.1,0.2-6.2,0.5-9.4,0.8c-14.6,1.3-29.5,3.2-44.3,5.3c-3.1,0.5-6.2,0.9-9.3,1.4
	c-2.7,0.4-5.4,0.8-8.1,1.3c-16.9,2.8-33.8,6.1-50.2,9.3c-16.2,3.2-32.4,5.1-48.2,6.1c-31.5,1.9-60.9-0.5-85.8-4.3
	c-10.9-1.7-20.9-3.7-29.9-5.8c-5.3-4.4-10.1-11.8-12.7-23.8l-8.8-43.9l-40.8,69.1h0.5l-0.1,0.1l-0.3,0.3c0,0,30.3,7.8,53,11.9
	c10.9,2.3,23.3,4.6,37.1,6.3c25.8,3.2,56.3,4.7,88.6,1.7c16.2-1.5,32.8-4,49.4-7.8c16.4-3.8,52.8-11.4,54.5-11.8
	c3.1-0.6,40.6-7,56-8.9c3.5-0.4,6.9-0.8,10.3-1.2c9.3-1,18.6-1.8,27.6-2.3c0.9-0.1,1.9-0.1,2.8-0.2c3.4-0.2,6.8-0.3,10.1-0.4
	c3.3-0.1,6.6-0.2,9.9-0.2c3.1,0,6.1-0.1,9.1,0c4.7,0,9.4,0.2,14,0.3c8.9,0.3,17.4,1,25.6,1.9c5.3,0.6,10.4,1.3,15.4,2
	c10.9,1.6,20.9,3.6,29.9,5.7c1.4,0.3,2.8,0.7,4.2,1c2.9,0.7,5.7,1.4,8.4,2.1c6.6,1.7,12.5,3.3,17.7,4.7c2.7,0.8,5.2,1.5,7.4,2.1
	c3.7,1.1,6.8,2,9.2,2.6c3.1,0.9,5.1,1.5,5.7,1.7C-478.8,453.2-480.7,452.5-483.8,451.5z M-993.3,423.1L-993.3,423.1l-17.4,11.5
	c2.5-4.3,12.1-20.5,14.9-25.4c2.7-4.8,5.3-9.4,7.8-13.7c0.1-0.1,0.1-0.2,0.2-0.2c0.9,4.3,1.6,9,2.4,13.9c0.8,4.9,4,22.5,4.9,26.8
	L-993.3,423.1z"/>
<path id="XMLID_96_" class="st5" d="M-995.8,409.3c-2.7,4.9-12.3,21.1-14.9,25.4l17.3-11.5l-5,25.2l-25.5-6.5l-0.4-0.1l40.8-69.1
	l-4.5,23C-990.5,399.9-993.2,404.4-995.8,409.3z"/>
<path id="XMLID_93_" class="st11" d="M-694.4,389.3c-0.6-3.1-1.9-5.9-3.8-8.4c-1.9-2.6-4.2-4.5-6.8-5.8c-2.6-1.3-5.6-1.9-9-1.9
	h-24.3l-5,26.1l-1.3,6.5l-4.5,22.8l-2.8,14.5l-0.2,1.1l-1.2,6.2h9.6l0.9-4.6l0.9-4.6l2.5-12.7l0.6-3.2h14.7c3.3,0,6.5-0.6,9.7-1.9
	c3.1-1.3,6.2-3.2,9.1-5.8c2.9-2.6,5.2-5.4,7-8.4c0.4-0.8,0.8-1.5,1.2-2.4c1.1-2.4,1.9-4.9,2.5-7.7
	C-693.9,395.8-693.8,392.4-694.4,389.3z M-704.2,399.4c-0.5,2.3-1.2,4.3-2.3,6.1c-0.3,0.5-0.6,0.9-0.9,1.4c-1,1.4-2.1,2.6-3.4,3.8
	c-1.8,1.6-3.6,2.8-5.5,3.5c-1.9,0.8-3.8,1.1-5.9,1.1l-11.7,0h-3l0.7-3.2l1.1-5.9l1.3-6.8l2.5-12.6l0.6-3.2h14.7
	c2.1,0,3.9,0.4,5.5,1.2c1.5,0.8,3,2,4,3.5c1.1,1.7,1.9,3.4,2.2,5.1C-703.8,395.2-703.8,397.1-704.2,399.4z"/>
<path id="XMLID_92_" class="st11" d="M-625.9,373.2l-5.9,30.6l-1,5l-2.4,12c-0.2,1.1-2,7-2.7,8.6c-0.5,1.1-1,2.2-1.6,3.2
	c-2.1,3.6-4.9,6.9-8.2,9.9v0c-3.5,3.1-7.1,5.3-10.6,6.7c-3.6,1.5-7.3,2.2-11.3,2.2c-4,0-7.5-0.7-10.6-2.2c-3.2-1.5-5.8-3.8-7.9-6.8
	c-2-2.6-3.4-5.6-4.1-8.7c-0.1-0.4-0.2-0.8-0.3-1.2c-0.4-1.8-0.5-3.8-0.4-5.8c0-1.9,0.3-3.9,0.7-6l2.6-13.5l0.7-3.5l5.9-30.6h9.7
	l-5.9,30.6l-0.7,3.7l-2.2,11.4l-0.3,1.8c-0.3,1.8-0.5,3.5-0.4,5.2c0,0.8,0.1,1.7,0.3,2.5c0.3,1.4,0.7,2.7,1.4,4
	c0.4,0.8,0.9,1.7,1.5,2.5c1.4,2,3.1,3.4,5.2,4.4c2,1,4.3,1.5,6.8,1.5c2.5,0,5-0.5,7.5-1.5c2.5-1,4.7-2.5,6.9-4.4
	c1.7-1.5,3.3-3.2,4.6-5.1c1.6-2.3,3.5-7.9,3.8-9.1l0.4-1.8l2.1-10.4l0.9-4.7l5.9-30.6H-625.9z"/>
<polygon id="XMLID_91_" class="st11" points="-588.6,440.4 -590.6,450.6 -631.5,450.6 -627.7,430.7 -627.4,429.1 -623.5,409 
	-616.5,373.2 -606.9,373.2 -613.9,409.2 -617.7,429 -619.3,437.1 -620,440.4 "/>
<path id="XMLID_87_" class="st11" d="M-527.2,439.6l-0.4-2l-5.3-26.3l-7.8-38.9l-22.5,38.1l-10.5,17.8l-1.9,3.1l-11.3,19.1h10.3
	l7.8-12.8h30.5l2.9,12.8h10.3L-527.2,439.6z M-563.5,429.5c2.9-4.8,5.8-10.1,8.9-15.6c0.6-1,1.1-2,1.7-3c2.5-4.5,4.9-8.7,7.3-12.7
	c0.8,4.1,1.6,8.4,2.3,13c0.1,0.9,0.3,1.8,0.4,2.8c0.9,5.6,1.8,10.8,2.9,15.6H-563.5z"/>
<path id="XMLID_85_" class="st11" d="M-461.7,373.2l-5.9,30.6l-1.8,9.2l-1.2,5.9l-0.4,1.8c-0.5,2.7-1.4,5.2-2.9,7.7
	c-1.5,2.6-3.4,4.7-5.5,6.5c-2.2,1.9-4.4,3.4-6.9,4.4c-2.5,1-5,1.5-7.4,1.5c-2.6,0-4.9-0.5-6.9-1.5c-2.1-1-3.8-2.4-5.2-4.4
	c-1.4-2-2.5-4.2-2.9-6.5c-0.5-2.5-0.4-5,0.1-7.7l0.3-1.8l1.4-6.9l1.6-8.2l5.9-30.6h-9.7l-5.9,30.6l-1.5,8l-1.7,9
	c-0.8,4.3-0.9,8.2-0.3,11.7c0.6,3.1,1.7,5.9,3.4,8.5h0c0.3,0.5,0.6,0.9,0.9,1.4c0.1,0.2,0.2,0.3,0.3,0.5c2.1,2.8,4.5,4.9,7.6,6.4
	c3,1.4,6.6,2.2,10.6,2.2c3,0,5.9-0.4,8.6-1.3c0.3-0.1,0.5-0.2,0.8-0.3c0.6-0.2,1.2-0.4,1.8-0.7c3.5-1.4,7-3.6,10.6-6.7v0
	c3.3-3,6.1-6.3,8.2-9.9c2-3.6,3.5-7.5,4.3-11.7l1.5-7.5l1.9-9.5l5.9-30.6H-461.7z"/>
<polygon id="XMLID_84_" class="st6" points="-933.2,404.2 -945.8,403.9 -950.7,396.7 -951.8,402.3 -952,403.7 -961,403.5 
	-955,372.6 "/>
<polygon id="XMLID_83_" class="st6" points="-911.1,373.2 -902,373.2 -908.2,404.9 -917.2,404.6 "/>
<polygon id="XMLID_82_" class="st6" points="-850.8,373.3 -852.7,382.9 -870.7,382.9 -871.2,386 -875.1,405.7 -884.1,405.5 
	-880.3,386 -879.7,382.9 -897.7,382.9 -895.8,373.3 "/>
<path id="XMLID_81_" class="st6" d="M-823.4,407.1l-9.7-0.2c-0.6-3.5-1.2-6.9-1.8-10.1c-1.9,3.1-3.8,6.5-5.8,9.9l-9.5-0.3l19.9-33.7
	L-823.4,407.1z"/>
<path id="XMLID_80_" class="st6" d="M-755.2,396.2l-0.4,2.1c-0.5,2.5-1.3,4.8-2.4,6.9c-0.6,1.2-1.4,2.3-2.3,3.6l-12.4-0.3
	c0.7-0.5,1.3-1,2-1.6c1.7-1.5,2.9-3,3.8-4.7c0.9-1.5,1.5-3.3,1.9-5.4c0.4-1.9,0.4-3.7,0.2-5.3c-0.3-1.4-0.9-2.8-2-4.4v0
	c-1-1.3-2.4-2.3-4.3-3c-1.8-0.7-3.8-1-6-1h-11.1l-0.6,3.1l-4.2,21.7l0,0.2l-9-0.2l6.6-34.3h21.1c3.4,0,6.4,0.6,9.2,1.9
	c2.6,1.2,4.8,2.9,6.6,5.2c1.8,2.5,2.9,4.9,3.4,7.2C-754.5,390-754.6,392.9-755.2,396.2z"/>
<path id="XMLID_79_" class="st6" d="M-694.6,399.4c-0.5,2.8-1.4,5.3-2.5,7.7l-10.3-0.3c0.3-0.4,0.6-0.9,0.9-1.3
	c1.1-1.8,1.8-3.8,2.3-6.1c0.4-2.2,0.5-4.2,0.1-6c-0.3-1.7-1-3.4-2.2-5.1c-1.1-1.5-2.5-2.8-4-3.5c-1.6-0.8-3.4-1.2-5.5-1.2h-14.7
	l-0.6,3.2l-2.5,12.7l-1.3,6.8l-9.6-0.2l1.3-6.5l5-26.1h24.3c3.4,0,6.4,0.6,9,1.9c2.6,1.2,4.8,3.2,6.8,5.8c1.9,2.6,3.2,5.4,3.8,8.4
	C-693.8,392.4-693.9,395.8-694.6,399.4z"/>
<polygon id="XMLID_78_" class="st6" points="-683,373.2 -673.2,373.2 -679.2,403.8 -679.9,407.5 -689.6,407.3 -688.9,403.8 "/>
<polygon id="XMLID_77_" class="st6" points="-635.7,373.2 -625.9,373.2 -631.9,403.8 -632.8,408.7 -642.5,408.5 -641.6,403.8 "/>
<polygon id="XMLID_76_" class="st6" points="-616.5,373.2 -606.9,373.2 -613.9,409.2 -623.5,409 "/>
<path id="XMLID_75_" class="st6" d="M-532.9,411.3l-10.5-0.3c-0.7-4.5-1.5-8.9-2.3-13c-2.4,4-4.8,8.2-7.3,12.7l-10.2-0.3l22.5-38.1
	L-532.9,411.3z"/>
<polygon id="XMLID_74_" class="st6" points="-509,373.2 -499.3,373.2 -505.2,403.8 -506.8,412 -516.5,411.8 -515,403.8 "/>
<polygon id="XMLID_52_" class="st6" points="-452,373.2 -457.9,403.8 -459.8,413.2 -469.5,413 -467.6,403.8 -461.7,373.2 "/>
<text id="XMLID_51_" transform="matrix(1.101 0 0 1 -641.5156 494.3054)" class="st11" style="font-family:'LemonMilkitalic'; font-size:41.5686px;">cargo</text>
<text id="XMLID_50_" transform="matrix(1.13 0 0 1 -1028.5393 494.3054)" class="st11" style="font-family:'LemonMilklightitalic'; font-size:21.7673px;">www.antarpulaucargo.com</text>
<text id="XMLID_3_" transform="matrix(1 0 0 1 -995.6142 752)" style="font-family:'LemonMilklightitalic'; font-size:80px;">ANTAR </text>
<text id="XMLID_5_" transform="matrix(1 0 0 1 -764.5427 752)" style="font-family:'LemonMilkitalic'; font-size:80px;">PULAU</text>
<path id="XMLID_6_" class="st12" d="M-974.7,734.2c0,0,20.9,32.8,113.7,32.8c75.3,0,142.7-38.2,196-39.6
	c48.5-1.3,101.5,4.6,165.7,39.6"/>
<path id="XMLID_53_" d="M-903.4,840.1l1.3-6.9l6.3-32.5h7.2l-11.5,59.3l-27.4-40.4l-0.9,4.5l-6.8,35.1h-7.3l11.4-58.8L-903.4,840.1z
	"/>
<path id="XMLID_59_" d="M-859.6,800.8h12.1l-1.5,7.7h-12.1h-2.3l-0.5,2.4l-9.3,48h-7.2l9.3-48l0.5-2.4h-2.3h-12.1l1.5-7.7h12.1
	H-859.6z"/>
<path id="XMLID_61_" d="M-819.3,858.9h-7.7l-2.1-9.6h-11.5h-11.4l-5.9,9.6h-7.7l34.6-58.6L-819.3,858.9z M-839.4,843.1h8.9
	c-0.8-3.6-1.5-7.6-2.1-11.8s-1.3-8.1-2.1-11.8c-2.2,3.7-4.5,7.6-6.8,11.8s-4.5,8.1-6.7,11.8H-839.4z"/>
<path id="XMLID_66_" d="M-803,800.8h16.9c2.7,0,5.2,0.5,7.3,1.5c2.1,1,3.8,2.3,5.3,4.2c1.4,2,2.3,3.9,2.7,5.7
	c0.4,1.9,0.4,4.2-0.2,6.8l-0.3,1.6c-0.4,2-1,3.9-1.9,5.5c-0.9,1.6-2,3.3-3.5,5c-1.2,1.4-2.3,2.4-3.3,3.1c-0.9,0.7-2.1,1.3-3.7,1.9
	l-2.7,1.1l1,2.5l7.7,19h-9l-8.4-20.4h-8l-3.9,20.4h-7.3L-803,800.8z M-790.9,830.7L-790.9,830.7c1.5,0,2.9-0.2,4.1-0.7
	c1.1-0.5,2.3-1.3,3.6-2.5c1.3-1.2,2.3-2.4,3-3.8c0.7-1.2,1.2-2.7,1.5-4.3c0.3-1.5,0.4-2.9,0.2-4.2c-0.2-1.1-0.7-2.3-1.6-3.5v0
	c-0.8-1.1-1.9-1.8-3.4-2.4c-1.4-0.5-3-0.8-4.8-0.8h-6.6h-2.3l-0.5,2.5l-3.4,17.4l-0.5,2.4h2.3l2.7,0h1.8H-790.9z"/>
<g id="XMLID_8_">
	<path id="XMLID_18_" d="M-757.3,842.4l8.6-44.1h20.6c5.7,0,10.1,2.1,13.3,6.4c3.2,4.3,4.2,9.5,3,15.6c-1.2,6.1-4.2,11.3-9.1,15.5
		c-4.9,4.3-10.2,6.4-15.8,6.4h-8.8l-3.7,18.9H-761L-757.3,842.4z M-730.6,810.9h-8.8c-1.2,6.3-2.5,12.7-3.7,19l8.8,0
		c4.8,0,9.6-4.3,10.7-9.5S-725.8,810.9-730.6,810.9z"/>
	<path id="XMLID_24_" d="M-674.5,836.5l7.4-38.1h11.8c-2.5,12.7-5,25.4-7.4,38.1c-1.4,7-4.8,13-10.4,18c-5.6,5-11.7,7.4-18.2,7.4
		c-6.6,0-11.6-2.5-15.3-7.4s-4.8-11-3.4-18c2.5-12.7,4.9-25.4,7.4-38.1h11.9l-7.4,38.1c-1.3,6.9,2.9,12.7,9.4,12.7
		C-682.4,849.1-675.8,843.3-674.5,836.5z"/>
	<path id="XMLID_39_" d="M-636.4,798.4l-9.8,50.4h23.6l-2.5,12.6h-35.3l12.2-63H-636.4z"/>
	<path id="XMLID_41_" d="M-583.1,797.1l14.2,64.3h-12.7l-2.1-9.6h-20l-5.8,9.6h-12.7L-583.1,797.1z M-586.1,840.6l-2.8-13.3l-8,13.3
		H-586.1z"/>
	<path id="XMLID_44_" d="M-529.3,836.5l7.4-38.1h11.8c-2.5,12.7-5,25.4-7.4,38.1c-1.4,7-4.8,13-10.4,18c-5.6,5-11.7,7.4-18.2,7.4
		c-6.6,0-11.6-2.5-15.3-7.4s-4.8-11-3.4-18c2.5-12.7,4.9-25.4,7.4-38.1h11.9l-7.4,38.1c-1.3,6.9,2.9,12.7,9.4,12.7
		C-537.3,849.1-530.7,843.3-529.3,836.5z"/>
</g>
<path id="XMLID_4_" class="st4" d="M-463.4,868.6c-2.2-0.7-5.1-1.6-8.5-2.7c-2.4-0.8-5.1-1.6-8-2.6c-5.5-1.7-11.9-3.7-19.1-5.7h0
	c-2.2-0.6-4.4-1.2-6.8-1.9c-1.6-0.4-3.3-0.9-5-1.3c-8.8-2.3-18.5-4.5-29.1-6.4c-4.5-0.8-9.2-1.6-14.1-2.3
	c-8.6-1.2-17.6-2.3-27.1-2.9c-4.4-0.3-8.9-0.6-13.4-0.8c-3-0.1-6-0.2-9-0.3c-3-0.1-6-0.1-9-0.1c-3.1,0-6.1,0-9.2,0.1
	c-1.9,0-3.8,0.1-5.7,0.1c-9.5,0.3-19.2,0.8-29,1.6c-3.1,0.2-6.2,0.5-9.4,0.8c-14.6,1.3-29.5,3.2-44.3,5.3c-3.1,0.5-6.2,0.9-9.3,1.4
	c-2.7,0.4-5.4,0.8-8.1,1.3c-16.9,2.8-33.8,6.1-50.2,9.3c-16.2,3.2-32.4,5.1-48.2,6.1c-31.5,1.9-60.9-0.5-85.8-4.3
	c-10.9-1.7-20.9-3.7-29.9-5.8c-5.3-4.4-10.1-11.8-12.7-23.8l-8.8-43.9l-40.8,69.1h0.5l-0.1,0.1l-0.3,0.3c0,0,30.3,7.8,53,11.9
	c10.9,2.3,23.3,4.6,37.1,6.3c25.8,3.2,56.3,4.7,88.6,1.7c16.2-1.5,32.8-4,49.4-7.8c16.4-3.8,52.8-11.4,54.5-11.8
	c3.1-0.6,40.6-7,56-8.9c3.5-0.4,6.9-0.8,10.3-1.2c9.3-1,18.6-1.8,27.6-2.3c0.9-0.1,1.9-0.1,2.8-0.2c3.4-0.2,6.8-0.3,10.1-0.4
	c3.3-0.1,6.6-0.2,9.9-0.2c3.1,0,6.1-0.1,9.1,0c4.7,0,9.4,0.2,14,0.3c8.9,0.3,17.4,1,25.6,1.9c5.3,0.6,10.4,1.3,15.4,2
	c10.9,1.6,20.9,3.6,29.9,5.7c1.4,0.3,2.8,0.7,4.2,1c2.9,0.7,5.7,1.4,8.4,2.1c6.6,1.7,12.5,3.3,17.7,4.7c2.7,0.8,5.2,1.5,7.4,2.1
	c3.7,1.1,6.8,2,9.2,2.6c3.1,0.9,5.1,1.5,5.7,1.7C-458.4,870.2-460.3,869.6-463.4,868.6z M-972.9,840.2L-972.9,840.2l-17.4,11.5
	c2.5-4.3,12.1-20.5,14.9-25.4c2.7-4.8,5.3-9.4,7.8-13.7c0.1-0.1,0.1-0.2,0.2-0.2c0.9,4.3,1.6,9,2.4,13.9c0.8,4.9,4,22.5,4.9,26.8
	L-972.9,840.2z"/>
<g id="XMLID_152_">
	<path class="st1" d="M53.6,405.8c-4.2,7.5-17.8,30.5-21.6,37l25.7-17l-8.8,44.1l-36.7-15.9l-0.2-0.6l60.4-102.2l-6.7,33.8
		C61.7,391.4,57.7,398.4,53.6,405.8z"/>
</g>
<g id="XMLID_190_">
	<path class="st13" d="M811.2,131.6c-3.3-1.1-7.6-2.4-12.6-4c-3.5-1.1-7.5-2.4-11.8-3.8c-8.1-2.5-17.5-5.4-28.2-8.4h0
		c-3.2-0.9-6.5-1.8-10-2.8c-2.4-0.7-4.9-1.3-7.4-2c-13-3.3-27.4-6.7-43.1-9.5c-6.7-1.2-13.7-2.4-20.8-3.4c-12.7-1.8-26.1-3.4-40-4.3
		c-6.5-0.5-13.1-0.8-19.8-1.1c-4.4-0.2-8.8-0.3-13.3-0.4c-4.4-0.1-8.8-0.2-13.3-0.2c-4.5,0-9.1,0-13.6,0.1c-2.8,0.1-5.6,0.1-8.5,0.2
		c-14,0.4-28.4,1.2-42.9,2.3c-4.6,0.4-9.2,0.8-13.9,1.2c-21.7,2-43.6,4.7-65.6,7.9c-4.6,0.7-9.2,1.4-13.8,2.1
		c-4,0.6-7.9,1.2-11.9,1.9c-25,4.1-50,9-74.2,13.7c-24,4.7-48,7.6-71.2,9c-46.5,2.8-90.1-0.7-126.9-6.4c-16.1-2.5-30.9-5.5-44.2-8.6
		c-7.9-6.5-15-17.4-18.8-35.2L72.2,14.9L11.9,117.2l0.2,0.6c0,0,44.8,11.5,78.4,17.6c16.1,3.4,34.5,6.8,54.9,9.3
		c38.2,4.7,83.2,6.9,131.1,2.5c23.9-2.2,48.5-5.9,73.1-11.5c24.3-5.6,78.1-16.9,80.5-17.4c4.6-0.9,60.1-10.4,82.8-13.2
		c5.1-0.7,10.2-1.2,15.2-1.8c13.8-1.5,27.5-2.6,40.9-3.5c1.4-0.1,2.8-0.2,4.2-0.2c5-0.3,10-0.5,15-0.6c4.9-0.2,9.8-0.3,14.6-0.3
		c4.5-0.1,9-0.1,13.4,0c7,0.1,13.9,0.2,20.7,0.5c13.1,0.5,25.7,1.5,37.8,2.8c7.9,0.9,15.4,1.9,22.7,3c16.1,2.4,30.9,5.4,44.3,8.4
		c2.1,0.5,4.2,1,6.3,1.5c4.3,1,8.4,2,12.4,3c9.8,2.5,18.6,4.8,26.1,6.9c4,1.1,7.6,2.2,11,3.1c5.5,1.6,10.1,2.9,13.7,3.9
		c4.6,1.3,7.5,2.2,8.4,2.4C818.6,134,815.8,133,811.2,131.6z M57.6,89.6l-0.1,0.1l-25.5,17c3.7-6.3,18-30.3,22-37.5
		c3.9-7.1,7.8-13.9,11.6-20.2c0.1-0.1,0.1-0.2,0.2-0.4c1.3,6.4,2.4,13.3,3.6,20.6c1.2,7.3,5.9,33.3,7.3,39.6L57.6,89.6z"/>
</g>
<g>
	<g id="XMLID_188_">
		<path class="st14" d="M179.3,15.7l-9,46.5l-2.6,13.5l-2.5,12.8l-18.6-26.9l-32.3-46.8l-8.9,45.7l-12.3,63h13.5l12.1-62.6l0.4-2.2
			l1.6-8.2l7.2,10.6l43.4,64l12.2-62.6l9.1-46.9H179.3z"/>
	</g>
	<g id="XMLID_186_">
		<path class="st14" d="M201.8,15.9L199,30.1h26.7l-0.9,4.5l-5.6,28.9l-11.6,59.7H221l11.6-59.4l5.7-29.2l0.9-4.5h26.6l2.7-14.2
			H201.8z"/>
	</g>
	<g id="XMLID_182_">
		<path class="st14" d="M309,65.8l-10.3-50.9l-29.4,49.9l-34.5,58.4h14.3l10.8-17.7h42.4l4,17.7h14.3L309,65.8z M267.1,94
			c4-6.7,8.1-14,12.4-21.7c1.3-2.4,2.7-4.8,4-7.1c2.9-5.1,5.7-10,8.5-14.7c0.9,4.7,1.9,9.8,2.7,15c0.4,2.2,0.7,4.5,1.1,6.8
			c1.2,7.7,2.5,15,4,21.7H267.1z"/>
	</g>
	<g id="XMLID_178_">
		<path class="st14" d="M410.1,37.1c-0.7-3.4-2.4-6.9-5.1-10.6c-2.7-3.4-5.9-5.9-9.7-7.7c-4-1.9-8.6-2.8-13.6-2.8h-31.2l-9.8,50.7
			l-11,56.6h13.4l7.3-37.6h14.8l15.4,37.6h16.7l-14.3-35.1l-1.8-4.6l5.1-2c2.9-1.1,5.1-2.2,6.9-3.5c1.8-1.2,3.8-3.1,6.1-5.7
			c1.1-1.4,2.2-2.7,3-4c1.3-1.8,2.5-3.6,3.4-5.3c1.7-3.1,2.8-6.6,3.5-10.2l0.6-3C410.8,44.8,410.8,40.6,410.1,37.1z M380.5,69.9
			c-2.2,0.9-4.8,1.4-7.5,1.4v-0.1h-10.5l-5.1-0.1h-4.2l0.8-4.2l0.1-0.3l6.3-32.1l0.9-4.6h16.4c3.3,0,6.3,0.5,8.9,1.5
			c2.8,1.1,4.9,2.5,6.4,4.5v0.1c1.6,2.3,2.5,4.5,3,6.5c0.4,2.4,0.3,5-0.3,7.8c-0.6,3.1-1.5,5.8-2.8,8c-1.3,2.5-3.2,4.8-5.6,6.9
			c-1,0.9-2,1.7-3,2.4C382.8,68.6,381.6,69.4,380.5,69.9z"/>
	</g>
	<g id="XMLID_175_">
		<path class="st14" d="M499.8,39.6c-0.9-4.5-2.8-8.7-5.6-12.5c-2.8-3.8-6.2-6.7-10-8.5c-3.8-1.9-8.2-2.9-13.2-2.9h-36l-7.5,38.6
			l-1.9,9.6L419,97.7l-4.2,21.5l-0.3,1.7l-1.8,9.2h14.3l1.3-6.8l1.3-6.8l3.7-18.8l0.9-4.8h21.8c4.9,0,9.7-0.9,14.3-2.8
			c4.6-1.9,9.2-4.8,13.5-8.5c4.2-3.8,7.7-7.9,10.3-12.4c0.7-1.1,1.3-2.3,1.8-3.5c1.6-3.6,2.9-7.3,3.7-11.4
			C500.5,49.1,500.6,44.1,499.8,39.6z M485.2,54.4c-0.7,3.4-1.8,6.4-3.4,9c-0.4,0.7-0.8,1.3-1.3,2c-1.4,2-3.1,3.9-5,5.6
			c-2.7,2.4-5.4,4.1-8.1,5.1c-2.8,1.2-5.6,1.7-8.7,1.7l-17.3-0.1h-4.5l1-4.8l1.7-8.7l1.9-10l3.6-18.7l0.9-4.8H468
			c3.1,0,5.8,0.6,8.1,1.8c2.3,1.2,4.4,2.9,6,5.2c1.7,2.6,2.8,5.1,3.2,7.6C485.9,48.2,485.8,51.1,485.2,54.4z"/>
	</g>
	<g id="XMLID_174_">
		<path class="st14" d="M601,15.7l-8.7,45.2l-1.4,7.3L587.3,86c-0.3,1.6-2.9,10.3-4,12.6c-0.7,1.6-1.5,3.2-2.4,4.7
			c-3.2,5.3-7.2,10.2-12.1,14.6v0.1c-5.2,4.5-10.5,7.9-15.6,9.9c-5.3,2.2-10.9,3.3-16.7,3.3c-5.9,0-11.2-1.1-15.6-3.2
			c-4.7-2.2-8.5-5.6-11.7-10.1c-2.9-3.9-5-8.2-6.1-12.9c-0.1-0.6-0.3-1.2-0.4-1.8c-0.5-2.7-0.7-5.6-0.6-8.6c0.1-2.8,0.4-5.7,1-8.8
			l3.9-20l1-5.1l8.8-45.2h14.4l-8.8,45.2l-1.1,5.5l-3.3,16.9l-0.5,2.6c-0.5,2.6-0.7,5.2-0.6,7.6c0.1,1.3,0.2,2.5,0.4,3.8
			c0.4,2.1,1.1,4,2,5.9c0.6,1.2,1.4,2.5,2.2,3.7c2.1,3,4.6,5.1,7.7,6.6c2.9,1.4,6.3,2.2,10.1,2.2c3.6,0,7.3-0.8,11-2.2
			c3.6-1.5,7-3.7,10.2-6.6c2.6-2.2,4.9-4.7,6.8-7.6c2.4-3.3,5.2-11.7,5.6-13.4l0.5-2.6l3-15.4l1.4-7l8.8-45.2H601z"/>
	</g>
	<g id="XMLID_173_">
		<polygon class="st14" points="656.2,115 653.3,130.1 592.7,130.1 598.5,100.7 598.9,98.3 604.7,68.6 615,15.7 629.2,15.7 
			618.9,69 613.2,98.3 610.9,110.2 609.9,115 		"/>
	</g>
	<g id="XMLID_169_">
		<path class="st14" d="M747.1,113.9l-0.6-2.9l-7.8-38.9l-11.6-57.5l-33.3,56.3l-15.5,26.3l-2.7,4.6l-16.7,28.3h15.2l11.5-18.9h45.2
			l4.3,18.9h15.2L747.1,113.9z M693.3,99c4.2-7.1,8.6-14.9,13.1-23.1c0.8-1.5,1.7-3,2.5-4.5c3.7-6.6,7.3-12.9,10.8-18.8
			c1.2,6,2.3,12.4,3.4,19.2c0.2,1.3,0.4,2.7,0.7,4.1c1.3,8.2,2.7,16,4.2,23.1H693.3z"/>
	</g>
	<g id="XMLID_167_">
		<path class="st14" d="M843.9,15.7l-8.7,45.2l-2.7,13.6l-1.7,8.8l-0.5,2.6c-0.8,4-2.1,7.8-4.2,11.4c-2.2,3.8-5,6.9-8.2,9.6
			c-3.2,2.9-6.5,5.1-10.2,6.5c-3.7,1.5-7.4,2.2-11,2.2c-3.8,0-7.2-0.8-10.1-2.2c-3.1-1.5-5.6-3.6-7.7-6.5c-2.1-3-3.6-6.2-4.2-9.6
			c-0.7-3.6-0.6-7.4,0.1-11.4l0.4-2.6l2-10.2l2.4-12.2l8.8-45.2h-14.4l-8.8,45.2l-2.3,11.8L760.3,86c-1.2,6.3-1.4,12.1-0.4,17.4
			c0.9,4.5,2.5,8.7,5.1,12.6h0c0.4,0.7,0.9,1.4,1.4,2c0.2,0.2,0.3,0.5,0.5,0.7c3.1,4.1,6.7,7.3,11.2,9.4c4.5,2.1,9.7,3.2,15.6,3.2
			c4.4,0,8.7-0.6,12.8-1.9c0.4-0.1,0.8-0.3,1.2-0.4c0.9-0.3,1.8-0.6,2.7-1c5.2-2.1,10.4-5.4,15.6-9.9v-0.1c4.9-4.4,9-9.3,12.2-14.6
			c3-5.3,5.1-11.1,6.4-17.4l2.2-11.1l2.7-14l8.8-45.2H843.9z"/>
	</g>
</g>
<g id="XMLID_154_">
	<path class="st14" d="M604.2,195.1c-6.9,0-12.3-2.4-16.2-7.1c-3.9-4.8-5.1-10.6-3.7-17.3c1.5-6.8,5.2-12.5,11.1-17.4
		c6-4.8,12.4-7.2,19.3-7.2l-0.1,0.1c7.6,0,13,3.3,16.3,7.2l-8.6,6.9c-2.4-2.9-5.6-4.3-9.8-4.3c-4.2,0-8,1.4-11.6,4.3
		c-3.6,2.9-5.8,6.4-6.6,10.4c-0.9,4.1-0.2,7.5,2.2,10.4c2.3,2.9,5.6,4.3,9.7,4.3s8.1-1.4,11.6-4.3l5.6,6.9
		C618.7,191.9,612,195.1,604.2,195.1z"/>
	<path class="st14" d="M660.1,145.4l12,49.4h-10.8l-1.8-7.4h-17l-4.9,7.4h-10.8L660.1,145.4z M657.5,178.9l-2.3-10.2l-6.7,10.2
		H657.5z"/>
	<path class="st14" d="M690.4,146.4h16.2c5.5,0,9.5,2,11.9,4.9c2.4,2.9,3.6,5.6,2.4,11l-0.3,1.3c-0.7,3.3-2.4,6.3-5.1,9.2
		c-2.2,2.4-3.8,3.4-6.9,4.5l7.8,17.5h-12.2l-9.7-21.4l-4.6,21.4H680L690.4,146.4z M710.5,162.6c0.4-1.8,0.1-3.3-1-4.7
		c-1-1.2-3.3-1.9-5.7-1.9h-5.6l-2.8,13.4h3.8v0h3.3C706.2,169.5,709.8,166.3,710.5,162.6z"/>
	<path class="st14" d="M757.5,146.1c7.6,0,13.1,3.3,16.3,7.2l-8.6,6.9c-2.4-2.9-5.7-4.4-9.7-4.4c-4.2,0-8,1.4-11.6,4.4
		c-3.6,2.9-5.8,6.4-6.6,10.4c-0.9,4.1-0.2,7.5,2.2,10.4c2.3,2.9,5.6,4.3,9.7,4.3c6.4,0,12.3-3.9,15.4-8.5h-14.1l2-9.3h25.4
		c-1.2,9-5.7,15.6-11.6,20.3c-5.9,4.8-12.4,7.2-19.3,7.2c-7,0-12.4-2.4-16.2-7.2c-3.9-4.8-5.1-10.5-3.7-17.3
		c1.5-6.8,5.2-12.5,11.1-17.4C744.1,148.4,750.5,146,757.5,146.1L757.5,146.1z"/>
	<path class="st14" d="M830.4,153.3c3.9,4.8,5.1,10.6,3.7,17.4c-1.5,6.8-5.2,12.6-11.1,17.3c-5.9,4.8-12.4,7.1-19.3,7.1
		c-6.9,0-12.4-2.4-16.2-7.1c-3.9-4.8-5.1-10.6-3.7-17.3c1.5-6.8,5.2-12.5,11.1-17.4c6-4.8,12.4-7.2,19.3-7.2
		S826.5,148.4,830.4,153.3z M800.4,160.2c-3.6,2.9-5.8,6.4-6.7,10.4c-0.9,4.1-0.1,7.5,2.2,10.4c2.3,2.9,5.6,4.3,9.8,4.3
		c4.1,0,8-1.4,11.5-4.3c3.6-2.9,5.9-6.3,6.7-10.4c0.9-4.1,0.1-7.5-2.2-10.4c-2.3-2.9-5.6-4.3-9.7-4.3
		C807.8,155.9,804,157.3,800.4,160.2z"/>
</g>
<g id="XMLID_153_">
	<path class="st15" d="M53.6,69.6c-4.2,7.5-17.8,30.5-21.6,37l25.7-17l-8.8,44.1l-36.7-15.9l-0.2-0.6L72.2,14.9l-6.7,33.8
		C61.7,55.2,57.7,62.2,53.6,69.6z"/>
</g>
<g>
	<path class="st1" d="M167.1,735.7l18.8-87.7L13.1,913.7l112.4,15.9l18.8-87.5l-0.1-0.1L79,874.2
		C89.7,857.7,156.3,752.2,167.1,735.7z"/>
</g>
</svg>
